<svg id="Layer_1" data-name="Layer 1" xmlns="http://www.w3.org/2000/svg" viewBox="0 0 375 812"><defs><style>.cls-1{fill:none;}.cls-2{fill:#0d1c26;}.cls-3{fill:#09101a;}</style></defs><rect class="cls-1" width="375" height="812"/><g id="Group_33" data-name="Group 33"><rect id="Rectangle_1" data-name="Rectangle 1" class="cls-2" x="-534.5" width="1444" height="812"/><rect id="Rectangle_2" data-name="Rectangle 2" class="cls-2" x="-534.28" y="0.16" width="1443.56" height="811.84"/><path id="Path_2492" data-name="Path 2492" class="cls-3" d="M423,26.49c-1-5.87-3.2-11.45-5.28-17-1.15-3.08-2.28-6.15-3.23-9.28H407.9a49,49,0,0,1,5.8,23.19c0,.81-.05,1.62-.11,2.43C416.72,26,419.84,26.27,423,26.49Zm-16.18-8.86a53,53,0,0,1-2.57-15.5,5.86,5.86,0,0,0-.13-.73c-1.61,2.18-3,4.28-4.61,6.19A3.07,3.07,0,0,0,399,11.4a36.33,36.33,0,0,1,3,13.47l7.07.57c-.71-2.63-1.51-5.22-2.29-7.81ZM394.6,22.25a22.89,22.89,0,0,1-.62-7.69c-1.31,1.42-2.3,2.52-3.31,3.58-.46.49-.21,1-.07,1.48.38,1.44.71,2.89,1,4.35l3.47.29c-.14-.66-.3-1.34-.45-2Zm-7.39-.36c-.56.53-1.09,1.06-1.63,1.56l1.39.12a4,4,0,0,0,.24-1.68ZM714,.16h-1.7a42.7,42.7,0,0,1,1.64,10.11,29.62,29.62,0,0,0,3.26.25C716.2,7.05,715.08,3.61,714,.16ZM707.3,3.29c-.38-1-.77-2.08-1.16-3.12h-5.91a48.76,48.76,0,0,1,1.95,6.51,36,36,0,0,0,7.37,2.78C708.84,7.39,708.06,5.34,707.3,3.29ZM694,.16h-3.9c-.34.44-.69.87-1,1.29a3.56,3.56,0,0,0-.43.59c1.88.06,3.75.14,5.63.25C694.17,1.58,694.09.87,694,.16ZM406.78,17.63a53,53,0,0,1-2.57-15.5,5.86,5.86,0,0,0-.13-.73c-1.61,2.18-3,4.28-4.61,6.19A3.07,3.07,0,0,0,399,11.4a36.33,36.33,0,0,1,3,13.47l7.07.57C408.37,22.81,407.57,20.22,406.78,17.63ZM394,14.56c-1.31,1.42-2.3,2.52-3.31,3.58-.46.49-.21,1-.07,1.48.38,1.44.71,2.89,1,4.35l3.47.29c-.14-.67-.3-1.35-.45-2a22.82,22.82,0,0,1-.62-7.68Zm-8.39,8.89,1.39.12a4.37,4.37,0,0,0,.24-1.68l-1.63,1.56ZM785.41,552.33c11-25.13,22.72-49.93,33.42-75.18q15.66-37,29.77-74.59,25-66.68,44.92-135a33.07,33.07,0,0,0,15.77,7.09V.16H-534.28V260.88c17-5.52,30.17-19.8,36-36.9,2.93-8.54,3.43-17.76,4.48-26.65q1-8.55,2.15-17.11a470,470,0,0,1,10.07-51.94q6.07-1.17,12.17-2.78c13.27-3.5,26.25-8,39.76-10.42a83.49,83.49,0,0,1,11.73-.14c9.86,2,19.31,5.42,28.95,8.3,13.85,4.12,28.76,6.69,43.23,5.4a198.69,198.69,0,0,0,42.81-8.87c7-2.22,14.08-4.74,21.21-6.8q14.29,2.5,28.59,4.92c8.73,4.74,17.36,9.69,26.53,13.66a483.88,483.88,0,0,0-13.93,78.32A113.87,113.87,0,0,1-260.07,212a310.48,310.48,0,0,1-40.14-27.84c-6.08-5-14.88,3.59-8.74,8.62l.23.18c-2.73,2.08-4,6.65-1.25,9.62,1.72,1.86,3.52,3.63,5.36,5.36l-7.2-1.2a15.07,15.07,0,0,0-9.28,1.25c-2-1.12-4-2.26-5.92-3.49-5.62-3.56-13.66-1.14-16.93,4.36-3.51,5.91-1.2,13.09,4.43,16.66,8.56,5.43,18.28,9.2,26.35,15.38.94.72,1.86,1.44,2.78,2.17l-.06.12c21.67,10.62,40.23,27.1,63.19,35.15a7.92,7.92,0,0,1,5.4,8.52,182.27,182.27,0,0,0-1.25,19.81c.61,49.28,1.75,98.55,2.58,147.81q1.49,88.65,3,177.29c.48,29.24.34,58.55,1.48,87.76,1,26.67,11.79,58.21,38.66,68.68A215.51,215.51,0,0,0-191.7,812H-31.84l-4.64-3.74a526.64,526.64,0,0,1,75.4-16.6c35.25-4.18,70.88-3.68,106.11-8,20.42-2.51,40.15-6,59.72-12.29,15.92-5.1,31.65-10.82,48.15-13.72,16.74-1.59,33.66-.77,50.44-.42l56.26,1.18c37,.78,74,1.11,111,2.85q14,.67,27.91,1.74a34.8,34.8,0,0,0,17.61,4.7,34.32,34.32,0,0,0,11.05-1.87h0a416.84,416.84,0,0,1,63.18,13.56c10.61,3.23,21,7.31,32,9.08q3.36.54,6.63.85a32.19,32.19,0,0,0,20.1,6.28c12.47-.56,23.43-6.6,29.91-16.44,8.36-4.47,16.06-10.33,23.86-15.6q14.94-10.08,29.87-20.17L792.5,703l34.4-23.23c8.77-5.92,17.42-12.48,26.93-17.27l.18,0c.37.36.74.75,1.11,1.13.72,1.13,1.39,2.27,2,3.44.37,1.17.7,2.34,1,3.54.05,1.6,0,3.22-.06,4.83a79.39,79.39,0,0,1-3,10.37,147.54,147.54,0,0,1-14.6,23.22C820.8,733.25,798,754.75,773.4,774a626,626,0,0,1-57.3,38H837.76c24.38-20.66,46.5-43.57,65.54-69.37q3.13-4.25,6-8.67V618.33c-1.41-1.66-2.89-3.28-4.42-4.81-18.59-18.64-47.64-26.82-72.94-17.41-18.16,6.75-34,18.12-49.81,29.16-1.51-16.9-5-33.66-3.73-50.64a127.86,127.86,0,0,1,7.06-22.3ZM890.27,46.75c1.57-3.4,2.24-2.28-.1.2C890.2,46.88,890.24,46.82,890.27,46.75ZM776.76,71.12c5.89,14.87,15.33,25.19,28.46,34.36,3.8,2.66,7.82,5,11.81,7.36,1.77,1.06,3.56,2.11,5.3,3.23a.08.08,0,0,0,0,0,87.92,87.92,0,0,0,7.62,7.58c.32.48.65.94,1,1.42,1.21,1.88,2.34,3.8,3.42,5.74,1.57,2.83,2.91,5.74,4.26,8.67a6.93,6.93,0,0,0-.41-.76c.09.26.62,1.34,1.86,3.82l-.14-.35.78,1.62c-.23-.44-.42-.83-.61-1.21,1,2.38,1.88,4.79,2.81,7.18s1.9,5,2.83,7.44c-12.38,28.48-13.53,35.92-26.12,64.32-39.81-9.21-72.34-20.33-103.19-44.66-3-2.38-2.05-7.07-5.12-9.37,28.26-37.57,42.77-75.88,61-118.89C773,56.32,773.92,64,776.76,71.12ZM638.26,3.9q10-1.12,19.94-1.64,6.28-.33,12.57-.43,8.15-.12,16.29.15c.54,0,1.06,0,1.6.06,1.88.06,3.75.14,5.63.25l1.21.06a39.53,39.53,0,0,0,6.69,4.31,36,36,0,0,0,7.37,2.78,35.84,35.84,0,0,0,4.35.82,29.62,29.62,0,0,0,3.26.25c1,0,1.91,0,2.86,0a35.58,35.58,0,0,0,6.34-.88c5.31,7.67,10.81,15.51,17.88,21.57a69.57,69.57,0,0,0,7,5.24C733.76,79.22,712.52,113,685,149.55c-.39-.23-4.73-.49-5.12-.72-10.11-5.87-15.5-17.54-25.74-23.15C633,114.13,627.57,95.4,618.2,74.76c-9.94-21.87-31.29-35.54-40-57.89,20-4.61,39.8-9.9,60.1-13ZM543.81,23.58c3.33-.48,6.64-1,10-1.62q5.52,14.17,11.33,28.22A101.15,101.15,0,0,1,543.45,49,105.13,105.13,0,0,1,511,37.63,108.4,108.4,0,0,1,496.31,28q23.76-1,47.5-4.42Zm-699,198a13.35,13.35,0,0,1,1.67-.2c3.8-.21,5.92,1.92,5.19,5.58-.83,4.1-3.1,7.59-5.37,11a3.71,3.71,0,0,1-2.14,1.09q.27-8.76.65-17.52Zm14,70a9.36,9.36,0,0,1-9.79-1.71,4.25,4.25,0,0,1-.93-5.38c.31-.55.7-1.05,1.29-.7,2.38,1.4,5.17,1.23,7.7,2a5.56,5.56,0,0,1,2.48,1.28c1.65,1.64,1.35,3.5-.75,4.51Zm4.91,31.35a5.2,5.2,0,0,1-.86,5.54,1.67,1.67,0,0,1-.23.23,4.73,4.73,0,0,1-4.8,1.55,9.51,9.51,0,0,1-4.2-2.26c-2.22-1.89-4.26-4-7.18-4.95-.59-.18-1.14-.59-1-1.32s.77-1.16,1.52-1.29a25.34,25.34,0,0,1,7.48-.12c1.77.2,3.53.52,5.3.63S-137,321.12-136.28,323Zm10.06,459.93q1.36,5,2.74,10.07-1.51-5-2.74-10.07ZM706.37,458.25c-14,27.12-27.79,54.69-46.16,79.26-23.63,28.82-53.54,51.93-77.27,80.66-19,23-35.84,50.11-42.74,79.31a923.37,923.37,0,0,0-94.43-7.16c-32.67-1-65.36-1.48-98-2.16l-49.76-1c-16.15-.34-32.34-1-48.41.86-20.19,2.32-38.78,7.71-58,14a297.69,297.69,0,0,1-48.35,11.84c-18.16,2.09-36.42,2.91-54.67,3.85-23,1.17-45.71,3.21-68.48,6.44a517.34,517.34,0,0,0-83.44,19.06c-20.87-76.51-42.26-152.92-60.65-230-10.2-42.79-19.94-85.85-26.21-129.4-2.08-16.27-3.56-32.57-4.56-48.89a60.35,60.35,0,0,0,12.1,3.22,25.37,25.37,0,0,0,17.48-3.32,48.8,48.8,0,0,1,9.57-4.69c2.31-.76,3-1.89,2.55-4.24a9,9,0,0,0-1.14-3.07c-2.16-3.41-5.46-5.41-9-7.15a76.7,76.7,0,0,0-16.5-5.43,2.6,2.6,0,0,1,1.7-.66,22,22,0,0,1,9,.33c4.32,1.1,8.6,2.37,12.93,3.41,5.22,1.26,10.38,1.28,15.39-1A27.93,27.93,0,0,0-85,294a40.45,40.45,0,0,1,2.62-7.58c.76-1.44.35-2.55-1-3.5a7.72,7.72,0,0,0-4.42-1.29c-3.69,0-7.37-.06-11,.09-5.93.25-11.85,1-17.81.57l-.25,0a25,25,0,0,1-9.41-2.07,6.44,6.44,0,0,1-.63-.36,5.57,5.57,0,0,1,0-1.47c.08-.68.15-1.36.23-2,2.08-2,4.8-2.18,7.49-2.42a36.42,36.42,0,0,1,10.36.74c2.92.59,5.81,1.43,8.68,2.3A42.2,42.2,0,0,0-88,279.2c5.18,0,7.89-2,9.67-6.76,1.41-3.76,1.88-7.78,3.22-11.58a2.12,2.12,0,0,0-.48-2.28,11.5,11.5,0,0,0-4.49-3.3c-2.06-.7-4.12-1.35-6.21-2l-.8-.24c-3.33-.93-6.77-1.42-10-2.61-.51-.18-1.23-.32-1.27-.92s.67-.92,1.23-1.18a13.86,13.86,0,0,1,5.73-1,20.72,20.72,0,0,1,8.71,1.39,11.73,11.73,0,0,1,2.92,1.85,14.62,14.62,0,0,0,4.12,2.5,5.6,5.6,0,0,0,6.37-1.24,13.77,13.77,0,0,0,3-4.54c2.54-5.58,7.15-8.93,12.5-11.51a22,22,0,0,1,6.36-1.73c.88-.13,1.68-.3,1.65-1.4s-1-1.09-1.68-1.14c-4-.32-7.35-2-10.57-4.15-3-2-5.82-4.31-9-5.84a37.53,37.53,0,0,0-8-2.92,18.8,18.8,0,0,0-4.85-.42c-4.25.22-8.2.95-11.26,4.23-1.85,2-4,3.63-5.71,5.71-2.1,2.61-4.32,5-7.49,6.26-1.65.68-2.31.28-2.21-1.5a12.68,12.68,0,0,1,2.06-6.67c1.3-1.91,3-3.46,4.19-5.49,1.89-3.39,1.29-5.82-2.09-7.72a30.66,30.66,0,0,0-5.28-2.32,49,49,0,0,0-9.5-2.11c-2.53-.35-5.23-.3-7.4,1.21a29.27,29.27,0,0,0-8.77,9.81,21.52,21.52,0,0,0-2.47,11.7,71.06,71.06,0,0,1-.06,7.15,31,31,0,0,1-.74,5c-.9,3.8-1.82,7.6-4.11,10.76l-7,1.67c0-.18-.06-.37-.1-.55a15.74,15.74,0,0,1,0-5.08c.05-.38.11-.75.17-1.13,1.34-8.43,4.16-16.49,6.45-24.67a16,16,0,0,0,1-6.21,2.64,2.64,0,0,0-1.73-2.41,13.32,13.32,0,0,0-2.91-.72c-3.32-.38-6.64-.73-10-.87q.93-19.86,2.24-39.7,1-15.48,2.16-30.94a108,108,0,0,0,22.27-7c12.07-.22,23.89-2.64,35-9.32,11.48-6.93,19.54-16.57,28.58-26A211.68,211.68,0,0,1-44,82.52,226.06,226.06,0,0,1-20,67.31,61.55,61.55,0,0,0-3.56,60.23c1.44-.9,2.82-1.85,4.16-2.81A228.3,228.3,0,0,1,45.05,45.79,224.26,224.26,0,0,1,72,44.56,34.71,34.71,0,0,0,99.66,31.09c2,.19,4,.35,6,.46,24.15,1.29,48.36-4.12,72.22-7.62a820.52,820.52,0,0,1,110.9-6.11l5.11.07c3.07.05,6.15.12,9.23.19l4.24.12,1.82.05,2.87.1,6.74.26,3.4.16c2,.09,4,.18,6,.29,1.3.06,2.61.13,3.91.21,2.69.15,5.37.31,8.06.49q2.91.18,5.82.4c2.89.2,5.76.42,8.65.65l2.59.2c2,.16,3.95.32,5.92.5l3.85.33,15.22,1.31c.59.06,1.16.11,1.75.15l1.6.14,1.39.12,4.6.41,3.47.29,6.95.59,7.07.57,4.52.36c3.12.25,6.25.49,9.38.7l1.51.11c7.61.53,15.23,1,22.86,1.34q7.34.33,14.62.48A129.34,129.34,0,0,0,562.62,74.48,18.93,18.93,0,0,1,580.3,85.61l.05.12c10.59,23.79,20.23,51.14,42,67.33,9.52,7.06,20.55,11.35,31.14,16.56A197.08,197.08,0,0,1,685,189.33c20.52,15.48,39,33.42,59.8,48.5,16.3,11.79,34.24,21.67,53.57,27.08-29.13,65.15-59.3,129.85-92,193.34ZM-118.85,287.61a5.83,5.83,0,0,1,2.71-.72A33,33,0,0,1-105.91,288c1.11.28,2.35.68,2.49,2.09s-1,2-2.1,2.46c-4.38,1.78-8.79,2.36-13.13-.19l-.62-.38a2.65,2.65,0,0,1-.39-3.73A2.9,2.9,0,0,1-118.85,287.61Zm19.69-48.86a142,142,0,0,1,13.49-6.09A107.7,107.7,0,0,1-74.6,229h0a9.27,9.27,0,0,1,2.51-.35c.3,0,.64.05.64.31a.3.3,0,0,1,0,.13.5.5,0,0,1,0,.13,2.15,2.15,0,0,1-1,.67c-.52.23-1,.43-1.54.63l-.8.3a254.14,254.14,0,0,0-29.28,13.85q-6.87,3.75-13.74,7.84-4,2.37-8,4.88c0-1.06,0-2.11,0-3.18C-117,248.77-108.15,243.37-99.16,238.75Zm-23.21-21.57a5.73,5.73,0,0,1,3.11-1.09,13.92,13.92,0,0,1,5.51.64,12.46,12.46,0,0,1,3,1.55,3.59,3.59,0,0,1,1.59,2.76c.07,1-.32,1.85-1.37,2a23.36,23.36,0,0,1-9.27-.37,13.67,13.67,0,0,1-2.49-1c-.2-.11-.39-.23-.59-.36a2.75,2.75,0,0,1,.15-3.88,3,3,0,0,1,.32-.25Zm50.82,28.48c0,.68-.49,1.11-1.32,1.4a3.52,3.52,0,0,1-3.6-.61,6.86,6.86,0,0,1-2.6-5.13,2.17,2.17,0,0,1,1.2-2.34,2.21,2.21,0,0,1,2.53.74l.7.68a2.19,2.19,0,0,0,.21.23,14.79,14.79,0,0,1,2.68,4.17,2.3,2.3,0,0,1,.2.86ZM387.21,21.89c-.56.53-1.09,1.06-1.63,1.56l1.39.12A4,4,0,0,0,387.21,21.89Zm7.39.36a22.89,22.89,0,0,1-.62-7.69c-1.31,1.42-2.3,2.52-3.31,3.58-.46.49-.21,1-.07,1.48.38,1.44.71,2.89,1,4.35l3.47.29C394.91,23.6,394.75,22.92,394.6,22.25Zm12.19-4.62a53,53,0,0,1-2.57-15.5,5.86,5.86,0,0,0-.13-.73c-1.61,2.18-3,4.28-4.61,6.19A3.07,3.07,0,0,0,399,11.4a36.33,36.33,0,0,1,3,13.47l7.07.57c-.71-2.63-1.51-5.22-2.29-7.81Z"/><path id="Path_2073" data-name="Path 2073" class="cls-3" d="M580.8,792.62c-3.43-6.19-6.37-12.6-9.46-19-5.94-12.16-12.05-24.34-20.73-35-.56-.69-1.7-1.36-1-2.43.53-.86,1.64-.51,2.48-.41,5.5.69,10.66,2.72,16,3.92a24,24,0,0,0,8.78.62,2.53,2.53,0,0,0,2.34-1.5c.39-1.22-.7-1.74-1.47-2.24-3.66-2.33-7.81-3.65-11.75-5.37-1.35-.59-2.66-1.24-4-1.89-.7-.35-1.54-.74-1.4-1.66s1.12-1,1.84-1.2c2.92-1,5.86-.51,8.75.05,8.4,1.62,15.79.33,21.63-6.47a83,83,0,0,0,8.43-11.8,13,13,0,0,0,1.61-9.66c-.51-2.58-2.12-3.72-4.61-4-5.51-.59-10.38,1.84-15.45,3.26-8.33,2.33-16.62,4.83-25.45,4.17A22.74,22.74,0,0,1,547.31,699c-3.33-2-3.22-4.09.1-6.06,1.69-1,3.56-1,5.4-1.29a20.78,20.78,0,0,1,3-.09c17.26.2,29.65-8.93,40.39-20.84,3.42-3.79,4.07-8.94,4.76-13.86.87-6.15.94-12.49-1.08-18.24-3.71-10.53-11.87-16.36-23.22-8.15-7.75,5.61-13.33,13.4-20.38,19.73-4.5,4-8.83,8.22-14.5,10.8A21.51,21.51,0,0,1,528,662.64c-1.15-.24-2.85,0-3.14-1.61-.23-1.31,1-2,1.92-2.7,4-3.41,8.65-5.74,13.33-8,7-3.35,14.22-6.21,21.11-9.72,8-4.07,14.13-9.83,15.49-19.2a18.94,18.94,0,0,0-2.36-11.51,87.47,87.47,0,0,0-18.23-24.45c-5.57-5.14-13.71-4.9-20.35.43-5.68,4.55-10.23,10.12-14.55,15.87-4.85,6.46-9.57,13-14.37,19.53a20.18,20.18,0,0,1-4.7,4.38c-.53.37-1,1.2-1.73.8-.93-.48-.5-1.36-.31-2.07,1.4-5.07,4.28-9.3,7.77-13.2s7.34-7.81,10.67-12c4.58-5.8,6.45-12.18,5-19.42-2.77-14-10.77-24.3-23.55-31-5.84-3-10.18.62-12.32,5.11-2.71,5.69-3.3,11.9-4.36,18-1.24,7.16-3,14.05-8.47,19.4-1.57,1.54-3.34,3.89-5.58,2.75s-1.34-4-.78-6.11c1.59-6.1,5-11.35,8.3-16.63,3.49-5.59,6.21-11.65,7-18,.59-4.54-1.67-9.22-5-12.86-6.6-7.14-15-8.3-24.08-6.59-9.49,1.79-9.8,2.53-8.78,12,.83,7.69,3,15.23,2.85,23-.06,2.8-.38,5.61-.68,8.4-.11,1-.29,2.24-1.61,2.51-1.12.23-1.78-.58-2.41-1.35-3.34-4.06-5-9-6.91-13.69-3.23-7.88-5.05-16.27-9.49-23.72-8.51-14.27-29.16-12.63-37.12-.69-3.34,5-2.74,11.4,2.11,17.15A46.27,46.27,0,0,0,403,566.72c4.07,2.62,8.31,5.09,11.9,8.26,4.37,3.87,9.55,7.38,10,14.11.25,3.54-1.12,5.85-4.62,6.51-5.27,1-9.87-.88-14.11-3.66-6.38-4.19-12.53-8.78-19.46-12.05-5.45-2.57-12.23-2-15,3.5-2,4.09-2.34,8.53-2.19,13a50.49,50.49,0,0,0,6.1,22.82c5.6,10.21,13,15.22,26,11.35,8.08-2.4,16-5.39,24-8.11a26.32,26.32,0,0,1,9-1.6c1.54,0,2.91.32,3.68,1.9a3.67,3.67,0,0,1-.74,4.29c-2.91,3.47-7.08,4.77-11.17,6.15-9.7,3.27-19.79,4-30,4.41-3.87.14-7.77.12-11.47,1.91s-5.91,4.5-5.84,8.35c.19,10.22,3.06,20,10.33,27.22,6.14,6.13,14.57,7.86,23.4,5.58,9.72-2.51,17.45-8.16,24.57-14.87,4.76-4.48,9.75-8.72,15.6-11.82a14.76,14.76,0,0,1,7-2c4,0,5.79,2.59,4.21,6.15-2.1,4.77-6.14,8-10,11.31-8.61,7.5-19.4,10.36-30.06,13.49-6.2,1.82-12.55,3.23-18.19,6.6-4.63,2.77-5.79,6.54-3.85,11.57,1.48,3.84,4,6.9,6.54,10a88.75,88.75,0,0,0,14.9,14.28c8.75,6.81,15.92,5.59,23.87-.93,6.79-5.57,11.66-12.81,16.95-19.66,4-5.18,8.26-10.11,13.84-13.76a7.51,7.51,0,0,1,1.21-.81c1.8-.7,3.67-2,5.48-.24s.82,3.49,0,5.12a59.22,59.22,0,0,1-18.92,21.49c-9.2,6.59-18.7,12.82-26.14,21.53-5,5.83-4.2,11.65,2,16.09a51.45,51.45,0,0,0,20,8.56,23.49,23.49,0,0,0,15.92-2.1c9.12-4.72,16.75-10.85,20.3-20.84,1.69-4.75,3.4-9.5,5.26-14.18,1.26-3.17,2.93-6.18,5.77-8.29,3.1-2.31,5.08-1.52,5.71,2.24a17.7,17.7,0,0,1-2.94,13.32c-5.88,8.47-12,16.76-18.07,25.12-1.76,2.44-4.63,3.56-6.79,5.52-4.45,4-3.69,9.08,1.8,11.62,11.26,5.2,24.84,2.87,34.55-5.68a45.44,45.44,0,0,0,13.87-22,25.06,25.06,0,0,1,2.89-7c1.47-2.23,3-2.22,4.6-.06,7.26,9.85,12.68,20.7,17.61,31.81q6,13.43,12,26.83a34.19,34.19,0,0,1,1.9,5.77c.7,2.78,2.75,3.67,5.36,2.4,3.57-1.73,4.6-4.56,2.89-8-.56-1.13-1.18-2.23-1.8-3.34S581.44,793.71,580.8,792.62Zm-37-60.85c.84,1.26,1,2.16.19,2.6-1.29.72-2-.35-2.7-1.08-.12-.15-.24-.31-.35-.47-8.44-10.39-15.23-21.86-22.13-33.23-7.57-12.47-14.41-25.41-23.37-37S477,640,467.71,628.71a488.12,488.12,0,0,1-33.79-45.35c-3.69-5.7-7.26-11.5-11.62-16.77a79,79,0,0,0-9.89-10.31c-.77-.65-1.67-1.36-.69-2.38s1.79-.5,2.61.22l1.32,1.16c6.12,5.15,10.89,11.46,15.2,18,7.41,11.31,14.84,22.58,23,33.36q13.25,17.43,27.46,34.08c10.52,12.31,20.51,25,28.95,38.77,10.73,17.57,20.29,35.87,33.46,52.25Zm-38.48-75.06c.06,0-.44.28-1,.55-4.26,2.16-6.05,1.4-6.58-3.23-.79-6.71,2-12.07,7.31-16.1,2.91-2.21,6.05-1.34,8,1.78a8.86,8.86,0,0,1,.37,8.86,17.2,17.2,0,0,1-8.14,8.14Zm-26.91,7.68a23.57,23.57,0,0,1,8.9-3.13c2.81-.29,3.94.88,3.37,3.53a18.87,18.87,0,0,1-7.24,11.58,8.88,8.88,0,0,1-9.7.48c-2.56-1.58-3.18-3.81-1.77-6.43,1.52-2.86,4.16-4.54,6.44-6ZM534.6,687c-2.12,1.15-5.57,1.9-9.05,2.53-2.79.51-3.48,0-3.06-2.86a17.83,17.83,0,0,1,9.84-14,4.49,4.49,0,0,1,5.42.87c4.21,3.75,3.21,9.77-3.15,13.43Zm-29.68,17.1a22.56,22.56,0,0,1-3.46,1.6,5.72,5.72,0,0,1-6.37-1.87,4.3,4.3,0,0,1-.54-5.37c2.4-3.94,11.36-7.46,16-6.37,2.47.58,3.13,1.87,1.92,4a21,21,0,0,1-7.52,8Zm-64.1-94.13c-7,4-11.86,2.1-16.35-2.36-1.33-1.32-1-2.35.79-3,2.57-.94,5.1-2,7.68-2.93,3.14-1.12,6.33-1.61,9.4.16,3.77,2.18,3.86,3.72.54,6.47l-2.06,1.67ZM552.13,718.69c-3.6,1.89-7.21,1-10.79-.26-1.34-.46-1.16-1.64-1-2.72a11.09,11.09,0,0,1,11.15-9.24c3.08.1,5.24,2.27,5,5.27a8.39,8.39,0,0,1-4.31,7Zm-104.4-79.2c-.88-1.66.27-3.27,2.08-4.54a18.07,18.07,0,0,1,8.41-3.24c2.16-.24,4.83-1.22,6.26,1s0,4.73-1.23,6.78c-3.09,5-12.5,5.33-15.52,0Zm31.61-13.08-1.28.72c-3.07,1.71-4.11,1.33-5.14-1.89-2-6.18,3.51-11.79,10.19-10.41,3.39.7,4.53,3.57,2.43,6.34a19.45,19.45,0,0,1-6.2,5.24Zm-21-39.37a10.4,10.4,0,0,1-.68,12.23c-1.15,1.34-2.11,1.47-3.45.36a12.81,12.81,0,0,1-4.62-8.78,5.83,5.83,0,0,1,3.82-5.86c2.68-1,4.07.21,4.93,2ZM529,733.21c-2.76,1.54-6.19,1.15-7.42-.84s.33-6,3.16-7.6c2.62-1.5,5.76-1.39,6.61.22a6,6,0,0,1-2.27,8.18l-.08,0Z"/><path id="Path_2074-2" data-name="Path 2074-2" class="cls-3" d="M67.52,586.25c-.71,0-.79.61-.91,1.14-.08.37-.18.74-.25,1.12-2.09,11-6.23,21.31-10.88,31.43a136.22,136.22,0,0,1-9.11,15.8,85,85,0,0,1-15,17.82c-.61.54-1.14,1.33-2.11.39s-.55-1.5.17-2.3c7.34-8.16,11.88-17.78,14.91-28.14,2.84-9.68,4.23-19.49,2.75-29.58a37,37,0,0,0-4.57-13.31c-.46-.8-1-1.44-2-1.23s-.47,1.17-.53,1.73c-.3,2.73.1,5.49,0,8.21-.2,4,.47,7.87.14,11.84-.22,2.66.6,5.41.19,8.08-.59,3.77-.78,7.6-1,11.36a50.8,50.8,0,0,1-4.25,17c-1.76,4.1-3.89,8-7.27,11.14-.47.43-1,1.6-1.8.78-1-1-2.59-2-1.17-4A27.46,27.46,0,0,0,28,638.68a96.31,96.31,0,0,0,5.34-33.78,88.85,88.85,0,0,0-3.18-23.78c-2-7-5-13.38-10.28-18.61-.54-.54-1.09-1.54-2.1-1s-.68,1.59-.57,2.28c.44,2.86,1,5.7,1.71,8.51,1.62,6.58,3.69,13.07,4.89,19.72,1.05,5.81,2.68,11.49,3.24,17.47.55,5.8,1.4,11.53,1,17.36a35.53,35.53,0,0,1-5.28,16.49c-.44.71-.73,1.3-1.61.3-2.25-2.54-4.63-5-6.89-7.51-.57-.64-1.3-1.37-.61-2.43,1.51-2.33,1.67-5,2.07-7.66a78,78,0,0,0-.9-27.84,96.36,96.36,0,0,0-8.61-24.63,101.52,101.52,0,0,0-7.41-12.4c-2.07-2.87-4.88-5-7.5-7.31a2,2,0,0,0-2.37-.33c-1,.63-.19,1.23,0,1.91,1.39,5.16,4,9.76,6.42,14.48C1,581,7.53,591.68,11.15,603.81c2.55,8.54,3.14,16.81,1.07,25.34-.87,3.6-1,3.54-3.7,1-.83-.77-1.81-1.38-2.72-2.07a5.68,5.68,0,0,1-2.43-5.43,61.55,61.55,0,0,0,.19-8.26c-.29-4.33-.24-8.67-1-13a81.65,81.65,0,0,0-7.44-21.95,65.37,65.37,0,0,0-12.93-17.91,47.5,47.5,0,0,0-12.49-9c-.76-.37-1.57-.58-2.12,0s-.1,1.38.42,1.82c2.78,2.34,4.72,5.39,7.19,8a97,97,0,0,1,9.57,11.26c5.54,8,8.87,17,12.05,26.05a91.28,91.28,0,0,1,2.74,10,51.07,51.07,0,0,1,1,13.11c-5.2-2.69-7.28-6.62-7.45-12.17-.21-7.1-2.63-13.75-6.21-19.91-7.39-12.74-18.16-22.15-30.74-29.68a27.87,27.87,0,0,0-13.2-4.31c-.64,0-1.32,0-1.62.6s.23,1.15.72,1.52c3.34,2.52,6.52,5.29,10.08,7.46,5.18,3.16,10,6.86,14.94,10.28a40.26,40.26,0,0,1,6.45,5.57c1.74,1.84,3.7,3.47,5.34,5.42,4.13,4.89,6.05,10.83,8.27,16.62a16.69,16.69,0,0,1,1.47,6.09c-8.88-10.49-19.43-18.21-30.88-24.75-10.14-5.79-20.46-11.29-30.71-16.9a106.36,106.36,0,0,0-15.15-7.35c-.75-.27-1.58-.66-2.08.19-.6,1,.54,1.27,1.1,1.63,4.8,3.14,9.65,6.22,14.44,9.37,2.52,1.66,4.91,3.52,7.47,5.13,3.86,2.44,7.94,4.53,11.69,7.15a63.52,63.52,0,0,0,6.66,4.36A222.86,222.86,0,0,1-27,601.93l.52.36a.9.9,0,0,1,.76,1v0s0,0,0,0l-.92-.56-.59-.3c-.73-.25-1.47-.48-2.18-.76a66.49,66.49,0,0,0-27.37-5,57.41,57.41,0,0,0-20.44,4.32c-4.44,1.9-8.69,4-11.84,7.79-.49.59-1.15,1.1-.8,1.91s1.32.67,2,.53a36.85,36.85,0,0,0,9.32-2.68c3-1.49,6.38-2.38,9.47-3.79a40.07,40.07,0,0,1,14.46-3.3c6.58-.37,12.86,1,19.19,2.66A83.26,83.26,0,0,1-14,613a30.91,30.91,0,0,1,7.18,6.11c-1.33.5-2.15-.12-3-.43-10.62-4-21.53-4.62-32.72-3.1A67.7,67.7,0,0,0-63,621.73a52.78,52.78,0,0,0-16.57,12.75c-.32.36-.84.75-.45,1.39a1,1,0,0,0,1.17.52c2.17-.75,4.68-1.1,6.42-2.41,3.26-2.47,6.79-4.5,10.14-6.82,3.81-2.64,8.35-3.7,12.74-4.86a79.4,79.4,0,0,1,17.29-2.18c4.47-.18,8.93-.55,13.41-.41,9.35.29,17.64,3.07,24.13,10a.86.86,0,0,1,.62.86l-.82-.16c-.23,0-.45-.1-.67-.16-21.66-7.67-41.37-4.08-59.19,10A44.21,44.21,0,0,0-67.37,657c-.27.58-.95,1.23-.17,1.83s1.43.05,2-.52c4.21-4.28,8.63-8.32,13.22-12.21,10.18-8.64,21.64-14.2,35.13-15.15,8.06-.57,15.85,1.38,23.7,2.92,6.19,1.22,8.4,6.39,12.46,10a2.16,2.16,0,0,1-2.1-.22A58.4,58.4,0,0,0-6.66,640,70.61,70.61,0,0,0-50.49,657.8c-5.63,4.89-10.83,10.21-14.1,17-.24.5-1.22.92-.32,1.7s1.27,0,1.84-.3a5.53,5.53,0,0,0,1.18-.73c4.45-4.4,9.74-7.78,14.69-11.56A137.33,137.33,0,0,1-31.14,653.8a92.35,92.35,0,0,1,20-7.87,58,58,0,0,1,20-1.75c3.81.26,7.38,1.72,11.05,2.69a6.57,6.57,0,0,1,4.54,3.79c-.33.43-.73.29-1.1.24a86,86,0,0,0-20.6,0,73,73,0,0,0-28.47,9.87c-4.73,2.8-8.95,6.7-13.13,10.45-5.6,5-10.61,10.45-13.78,17.29a12.6,12.6,0,0,0-1.11,8.23c.13.56.28,1.24,1.06,1.35a1.13,1.13,0,0,0,1.15-.57,87.44,87.44,0,0,1,9.15-10.45c11.88-12.18,24.58-23.34,40.52-30.23C6.88,653,16,651.3,25.55,653.26c1.39.28,2.37.8,2.65,2.48A60.4,60.4,0,0,0,13,656.88c-15.47,3.34-28.13,11.32-38.63,22.83a71.33,71.33,0,0,0-9.09,12.42c-.34.59-.87,1.21-.14,1.83s1.18,0,1.71-.24a23,23,0,0,0,4.44-2.92c6.82-6.22,13.33-12.76,21.11-17.91,9.52-6.3,19.24-12,30.71-14.28,6.94-1.37,6.91-1.52,11,4.23,1.61,2.28,1.59,2.32-1.3,2.65-.15,0-.31,0-.47,0a79.69,79.69,0,0,0-40.55,14C-15.91,684.68-22.45,691-27,699.12a53.26,53.26,0,0,0-4,9.72c-.27.84-.28,1.75.64,2.21a1.33,1.33,0,0,0,1.61-.5c5.42-6,11.5-11.37,17.24-17.07a111.91,111.91,0,0,1,10-8.4c7-5.47,14.8-9.51,22.81-13.22,4.48-2.07,9.06-4,14.08-4.56.82-.09,1.66-.46,2.27.53,1.78,2.94,4.08,5.55,5.61,8.65a2.76,2.76,0,0,1-2,.51c-8.34-.17-16.1,2.1-23.55,5.53C9,686.45,1.22,691.63-4.89,698.88c-2.92,3.46-5.69,7.21-6.49,11.89-.12.73-.59,1.58.22,2.12s1.46-.24,2-.7c4.51-3.85,9.08-7.65,13.44-11.65,7.27-6.68,14.9-12.86,23.82-17.33a39.36,39.36,0,0,1,14.35-4.37c1.1-.09,2.34-.18,3,.83,1.54,2.4,2.92,4.91,4.45,7.51-9.09-1.74-11.45-1.55-17.28,1.35-10.46,5.21-18.75,12.89-25.77,22-2.12,2.75-4.45,5.4-5.23,8.92-.15.66-.53,1.38.22,1.87s1.3-.1,1.8-.57c1-1,2-1.91,3-2.89,7.31-7.35,14-15.3,22.34-21.63,4.71-3.58,9.68-6.65,15.79-7.35,4.93-.57,7.48.87,9.08,5.07.34.89.32,1.26-.78,1.2-8.27-.51-14.79,3.3-20.8,8.28-8.5,7-14.6,15.83-19.15,25.68,1.12.86,2.15.46,3-.45,1.66-1.69,3.33-3.38,4.9-5.16,5.26-6,9.85-12.51,15.8-17.89,4.41-4,9.22-7.23,15.44-7.77,4-.34,4.34-.1,5.39,4a27.62,27.62,0,0,0-13.39,5.35,59.5,59.5,0,0,0-12.77,13.16,27.15,27.15,0,0,0-2.19,4.17c-.29.56-.51,1.2.2,1.61s1.14-.12,1.56-.59c1-1.09,1.91-2.21,2.92-3.26,3.15-3.27,6-6.84,9.38-9.88,4.14-3.69,8.7-6.65,14.31-7.66.63-.11,1.47-.52,1.82.4.26.67-.5.9-.89,1.15-5.21,3.4-7.76,8.72-9.89,14.09-1.16,2.93-2.31,6.11-2.21,9.45,0,.56,0,1.12.57,1.38s1-.12,1.34-.6.8-1.13,1.14-1.73c2.4-4.17,4-8.7,6.1-13a19.11,19.11,0,0,1,3.9-5.83c1.56-1.47,2-.94,2.72.49,2.17,4.27,3.62,8.84,5.64,13.15,2.33,5,4.06,10.18,6.15,15.24,2.4,5.83,3.85,12,5.83,18s3.28,11.82,4.8,17.76c.65,2.54,1.22,5.11,1.84,7.66.17.73.52,1.38,1.41,1.12s.58-1,.46-1.55c-.75-3.62-1.29-7.31-2.32-10.85-2-6.9-3.77-13.85-6-20.68-2.81-8.43-5.67-16.83-9.15-25-2.3-5.41-4.77-10.76-7.17-16.13-.49-1.09-1.06-2.28.65-2.71,2.88-.73,5.68-1.85,8.78-1.63,5.24.37,10.48.6,15.72.91,1,.06,1.9.51,2.91,0,.55-.27,1.24-.3,1.36-1s-.56-1-1.09-1.28a13.12,13.12,0,0,0-4.6-1.25c-8.41-1.46-16.78-2-24.86,1.6-.41.18-.83.53-1.16-.1s0-.84.5-1,1.14-.48,1.7-.75c6.59-3.17,13.77-5,20.16-8.64,5.59-3.18,10.6-6.92,13.83-12.58.33-.57.94-1.22.3-1.86a1.64,1.64,0,0,0-2.11-.23c-3.17,2-6.38,4-9.46,6.16C81,688.52,76,692.57,69.84,695a37,37,0,0,0-8.05,4.1c-2.35,1.69-2.26,1.65-3.63-.85-.7-1.28-.43-1.94.81-2.47,1.07-.46,2.09-1,3.16-1.44,3.08-1.25,6.31-2.21,9.07-4.1,10.88-7.45,19.39-16.87,24.49-29,1.14-2.71,2.1-5.49,3.08-8.27.21-.58.56-1.38-.3-1.8s-1.23.31-1.66.85c-1.2,1.5-2.48,2.94-3.59,4.49C83.28,670.38,72,683,57.27,692.17c-.5.31-1,1.23-1.49.83a10.36,10.36,0,0,1-2.63-4.24c-.43-1,.56-1.45,1.17-2,8.75-7.44,17.36-15,23.73-24.68,4.17-6.32,7-13.11,7.1-20.78,0-1.15.65-2.87-.72-3.3-1.52-.47-1.75,1.42-2.28,2.39q-4.41,8-8.62,16A98.23,98.23,0,0,1,51,685.25c-1.09-1.85-2.14-3.79-3.34-5.64-.69-1.07-.44-1.55.66-2.05a29.37,29.37,0,0,0,6.31-3.87,75.16,75.16,0,0,0,23.62-34.2c1.65-4.72,2.58-9.61,1.74-14.65-.12-.75-.15-1.68-1.15-1.73s-1,.83-1.23,1.46c-1,2.58-1.91,5.17-2.91,7.74-4.43,11.37-9.35,22.48-16.91,32.26a56.74,56.74,0,0,1-10.49,10.34c-1.3,1-2.17,1.05-3.09-.54a45,45,0,0,0-3.65-5.31c-1.09-1.38-.91-2.16.48-3.31,9.44-7.74,18.34-16,25-26.3,6.1-9.43,10.15-19.56,11-30.8.06-.76.31-1.68-.63-2s-1.29.62-1.65,1.27c-1.45,2.61-2.92,5.22-4.3,7.87-5,9.52-9.28,19.34-15,28.49A72.84,72.84,0,0,1,39.29,663c-1.42,1.14-2.4,1.36-3.48-.34a51.69,51.69,0,0,0-3.41-4.64c-.84-1-1-1.67.4-2.47a50.11,50.11,0,0,0,10.48-8.32c15.74-16.15,25.23-35,25.4-57.78,0-.66.27-1.28-.08-2S68.33,586.24,67.52,586.25Z"/><path id="Path_2499" data-name="Path 2499" class="cls-3" d="M407.91.16a49,49,0,0,1,5.8,23.19c0,.81,0,1.62-.11,2.43-.2,2.7-.64,5.37-.93,8.06-.25,2.29-.36,4.6-.56,6.9,0,.43,0,1-.66.92s-.62-.54-.58-1a43,43,0,0,0-1.8-15.25c-.7-2.62-1.51-5.21-2.29-7.8a53,53,0,0,1-2.57-15.5,5.86,5.86,0,0,0-.13-.73c-1.61,2.18-3,4.28-4.61,6.19a3.07,3.07,0,0,0-.44,3.81,36.33,36.33,0,0,1,3,13.47c.09,2.11.06,4.23,0,6.37a60.68,60.68,0,0,1-2.67,15.18,30,30,0,0,0-1.13,5.22c-.07.49,0,1.25-.76,1.15s-.47-.84-.42-1.3a70.66,70.66,0,0,0-.33-19.16c-.4-2.71-1-5.38-1.59-8-.14-.67-.3-1.35-.45-2a22.89,22.89,0,0,1-.62-7.69c-1.31,1.42-2.3,2.52-3.31,3.58-.46.49-.21,1-.07,1.48.38,1.44.71,2.89,1,4.35a46.84,46.84,0,0,1,.65,13.83,41.75,41.75,0,0,1-1.48,7.51,92.6,92.6,0,0,0-2.23,11.33,3.83,3.83,0,0,1-2.22-.18,113.35,113.35,0,0,0-.23-16.17c-.42-5.3-.79-10.56.62-15.79.08-.3.2-.61.29-.93a4.37,4.37,0,0,0,.24-1.68c-.56.53-1.09,1.06-1.63,1.56-1.21,1.17-2.38,2.3-3.59,3.39a2.66,2.66,0,0,0-.94,2c-.45,9.32-2.64,18.37-4.28,27.5a17,17,0,0,1-5,.9c1.07-8.92,2.39-17.79,6-26.29-1.25.64-1.24.65-1.8,1.64-1.94,3.35-3.68,6.83-5.91,10a80.28,80.28,0,0,1-6.17,7.6A89.15,89.15,0,0,1,356,58.3,28.37,28.37,0,0,1,351,62.18c-.38.2-.77.55-1.2.2s-.2-.76-.06-1.18a32.09,32.09,0,0,1,4.48-8.56c2.44-3.59,5-7.13,7.7-10.54a42.64,42.64,0,0,1,9.26-9,4.51,4.51,0,0,0,.51-.47,2.42,2.42,0,0,0-1.75.25c-5.84,2.05-11.71,4-17.72,5.46-3.08.77-6.22,1.33-9.35,1.85a6.53,6.53,0,0,1-2.11-.25c-.62-.12-.63-.58-.14-1.06A8,8,0,0,1,343,37.55l.76-.35,1.93-.87c2.14-.95,4.28-1.92,6.44-2.82q1.42-.6,2.88-1.17c2.27-.88,4.57-1.69,6.91-2.4,1.13-.33,2.27-.66,3.4-1,1.64-.45,3.29-.86,4.94-1.21a43.35,43.35,0,0,1,9.5-1.05,1.25,1.25,0,0,0,.95-.28c1.05-1,2.12-2,3.3-3.12l.9-.83a5.53,5.53,0,0,0-2.36.59,1.4,1.4,0,0,1-.29.09c-4.47,1.51-9.2,1.89-13.76,3l-.24.05q-2.85.69-5.71,1.32c-3.27.73-6.55,1.39-9.86,1.91-.53.09-1.05.17-1.58.24a18.76,18.76,0,0,1-3.18.12c-1.09,0-2.21-.13-3.3-.15a1,1,0,0,1-1.11-.77c-.19-.77.54-.51.86-.67.47-.24.95-.47,1.42-.69,1.36-.64,2.73-1.2,4.12-1.7a67.46,67.46,0,0,1,7.52-2.2c2.18-.5,4.37-.91,6.58-1.27,1-.17,2-.33,3-.47,3.42-.5,6.86-.91,10.28-1.38,3.16-.43,6.28-1,9.41-1.56a5.35,5.35,0,0,0,3.55-2c.79-1,1.7-2,2.78-3.21-2.59.61-4.84,1.18-7.1,1.66-5.12,1.1-10.36,1.52-15.51,2.47-.58.1-1.16.23-1.73.37l-.51.12c-1.39.33-2.78.72-4.19,1a13.26,13.26,0,0,1-2.73.35,7.46,7.46,0,0,1-2.77-.41c-.35-.12-.79-.23-.77-.74s.43-.59.8-.7l.71-.22a28,28,0,0,0,4.57-1.88.31.31,0,0,1,.1-.05c.94-.5,1.9-.95,2.86-1.37,1.39-.6,2.8-1.14,4.24-1.6,1.62-.54,3.26-1,4.92-1.39a130.18,130.18,0,0,1,14.44-2.4c2-.24,4-.38,6-.53a1.85,1.85,0,0,0,1.53-.66c1.43-1.95,2.89-3.87,4.44-5.94a3.51,3.51,0,0,0-1.89.71,65.7,65.7,0,0,1-15.68,4.74c-3.21.65-6.43,1.28-9.62,2-.34.08-.69.15-1,.25a44.21,44.21,0,0,0-5.43,1.66l-1.17.45c-.53.22-1.25.75-1.73.07s.29-1.2.73-1.66a2.61,2.61,0,0,1,.31-.27A11.85,11.85,0,0,1,371.7,7l.39-.1c6.85-1.83,13.38-4.54,20.09-6.78Z"/><path id="Path_2503" data-name="Path 2503" d="M67.38.16,64.62,4.21c-1.75,2.56-3.52,5.12-5.26,7.68,0,.07-.09.14-.14.21-.43.72-.86,1.7-2,1.17-1.31-.61-.62-1.67-.25-2.52a1.19,1.19,0,0,0,.08-.2A77.67,77.67,0,0,0,60.59.15a.56.56,0,0,0,0-.12l.11.12h6.64Z"/><path id="Path_2504" data-name="Path 2504" d="M86.37.16C86,.78,85.61,1.4,85.21,2c-1.95,3.12-4,6.2-6,9.26-1.35,2-2.77,4-4.19,6-1.16,1.64-2.32,3.31-3.41,5-.81,1.26-1.59,2.55-2.31,3.87-.49.9-1.2,2.2-2.53,1.54s-.37-1.79-.16-2.75q.63-2.94,1.47-5.83c.57-2,1.21-4,1.93-6,.23-.6.45-1.2.68-1.81C72.07,7.6,73.46,3.85,75,.16Z"/><path id="Path_2505" data-name="Path 2505" d="M79.93,25.31C83.09,18.84,86,12.25,89.24,5.8c.27-.55.54-1.1.81-1.63.67-1.34,1.36-2.68,2.06-4h10.07C99,8.26,94.36,15.59,89.52,22.82c-2,2.91-3.92,5.83-5.86,8.76-.44.67-.9,1.35-1.34,2-.79,1.23-1.59,2.47-2.37,3.7A82.36,82.36,0,0,0,75.07,46c-.62,1.24-1.19,2.5-1.73,3.78-.14.34-.26.77-.42,1.17-.3.67-.72,1.23-1.66,1.06-1.66-.29-1.19-1.88-1.21-3,0-.33,0-.64,0-1a20.36,20.36,0,0,1,1.56-7,19.57,19.57,0,0,1,1.48-2.88q2.67-4.57,5-9.33C78.77,27.69,79.36,26.51,79.93,25.31Z"/><path id="Path_2506" data-name="Path 2506" d="M163.37,62.23c.54.69,1.65,1.52.53,2.38s-1.69-.48-2.22-1.13a130,130,0,0,0-25-23.77c-5-3.65-10.24-6.89-15.48-10.16a42.55,42.55,0,0,1-10.65-8.95c.16,3.43.32,6,.41,8.63,0,1.21,1,1.5,1.81,2,9.64,5.6,18.31,12.33,25.39,20.93a74.42,74.42,0,0,1,7.74,11.31c3.35,6,7.65,11.48,11.71,17.06a6.41,6.41,0,0,1-3,2.53,204.77,204.77,0,0,0-21-20.12c-7.32-6.16-14.55-12.35-19.47-20.69-.76-1.31-1.3-2.8-2.69-4-.07,4.38,0,8.56-.24,12.74a4.67,4.67,0,0,0,1.38,3.68c11.36,12.33,20.22,26.47,29.87,40a29.67,29.67,0,0,1-5.17,7.35c-10.08-12.58-19.78-25.42-26.13-40.65-.76,2.37-.72,2.35-.17,4.32,1.85,6.64,4.11,13.19,5.36,19.94a140.91,140.91,0,0,1,2,17.26c.39,6.7.9,13.43.43,20.07-.26,3.67-.29,7.53-1.41,11.17-.23.72-.27,1.63-1.25,1.74s-1.22-.74-1.59-1.42c-2.79-5.15-4.21-10.76-5.33-16.39-1.52-7.57-2.84-15.19-3.79-22.87a74.44,74.44,0,0,1,.17-22.84,9.72,9.72,0,0,0,0-1.21c-1.25.6-1.47,1.65-1.89,2.5C98.92,83.5,94,93.24,88.29,102.58c-2.9,4.79-6.15,9.4-9.43,13.94a11.16,11.16,0,0,1-3,2.3c-1,.62-1.54.05-1.54-1.16A13.38,13.38,0,0,1,75.66,113C79.91,101.74,84,90.44,89.79,79.86c5.14-9.42,10.54-18.65,18.38-26.24a2.16,2.16,0,0,0,.83-1.54c0-3.24.14-6.47.23-10.2A10,10,0,0,0,107,45.55c-3.71,7.67-9.31,14.15-13.78,21.34-5.52,8.87-11.11,17.69-17.44,26-2.33,3.07-5.43,5.39-8.22,8a1.9,1.9,0,0,1-2.4.41c-1.21-.75,0-1.31.23-1.91C71.71,80,84.86,64.68,97.08,48.8c3.42-4.46,6.67-9,9.87-13.67a9.33,9.33,0,0,0,1.89-7c-.32-2.28-.38-4.61-.6-7.51-2.49,4-4.6,7.5-6.84,10.92C96.33,39.32,90.27,46.37,85,54c-2.22,3.19-4,6.63-6.16,9.89a17.33,17.33,0,0,1-7,6.77c-.6.28-1.29.69-1.93,0s-.2-1.28.12-1.88a49.91,49.91,0,0,0,4-9.2c.58-1.87,1.22-3.68,1.93-5.47.58-1.5,1.22-3,1.89-4.43a103.63,103.63,0,0,1,7.14-12.82c.41-.65.83-1.29,1.25-1.92,3.9-5.83,8.21-11.41,12.58-17,2.2-2.78,4.56-5.44,6.89-8.12a3.12,3.12,0,0,0,1.1-2.73c-.38-2.3-.74-4.61-1.09-7h2.29c.27,1.61.48,3.22.63,4.82.27,2.95,1.49,4.27,4.33,5.36,11.69,4.44,20.84,12.38,29.13,21.4a110.59,110.59,0,0,1,16.11,22.48A54.53,54.53,0,0,0,163.37,62.23Z"/><path id="Path_2507" data-name="Path 2507" d="M167,31.13c.5.59,1.16,1.28.34,2s-1.47.08-2-.54c-9.41-11-22.23-17.33-34.73-24A121.73,121.73,0,0,1,117,.16h21.79a82.88,82.88,0,0,1,7.95,7c4.46,4.49,8.15,9.65,12.14,14.53C161.49,25,164.31,28,167,31.13Z"/><path id="Path_2508" data-name="Path 2508" d="M172.54,6.23c-.84,1-1.63.18-2.23-.37A74.86,74.86,0,0,0,163.2.16H167c1.54,1.37,3.1,2.7,4.72,4C172.37,4.64,173.37,5.25,172.54,6.23Z"/><path id="Path_2509" data-name="Path 2509" d="M-7.42,21.37a20.59,20.59,0,0,1,3.06-10.8C-2.37,7.16-.53,3.68,1.23.16H8.7C6.59,3.31,4.49,6.47,2.47,9.67a82.55,82.55,0,0,0-6.6,12.47c-.38.92-.61,2.5-2.08,2.23C-7.88,24.08-7.4,22.5-7.42,21.37Z"/><path id="Path_2510" data-name="Path 2510" d="M-7.62,43c-.64-.66-.2-1.28.12-1.88a49.91,49.91,0,0,0,4-9.2c3.64-11.8,10-22,17.22-31.76H26.32q-1.2,1.92-2.41,3.77C18.84,11.69,12.77,18.74,7.5,26.33,5.27,29.52,3.44,33,1.34,36.22a17.42,17.42,0,0,1-7,6.77C-6.29,43.26-7,43.68-7.62,43Z"/><path id="Path_2511" data-name="Path 2511" d="M77.78,49.65c.79,1.08,1.59,2.15,2.37,3.23a6.54,6.54,0,0,1-3,2.53c-.4-.45-.8-.88-1.22-1.32-1-1.06-2-2.11-3-3.15S71.06,49,70.08,48.05q-6.66-6.7-14-12.77c-7.33-6.16-14.56-12.35-19.47-20.69-.77-1.31-1.31-2.8-2.7-4-.06,4.38,0,8.56-.24,12.74A4.67,4.67,0,0,0,35.07,27C46.44,39.37,55.31,53.51,65,67.08a29.48,29.48,0,0,1-5.17,7.35C49.7,61.84,40,49,33.66,33.77c-.76,2.37-.72,2.35-.17,4.32C35.34,44.73,37.6,51.28,38.85,58a139,139,0,0,1,2,17.26c.39,6.7.9,13.43.43,20.07C41,99,41,102.89,39.84,106.53c-.23.72-.28,1.63-1.25,1.75s-1.23-.74-1.6-1.42c-2.79-5.14-4.2-10.76-5.33-16.39-1.52-7.57-2.84-15.19-3.79-22.87a74.37,74.37,0,0,1,.19-22.83c0-.41,0-.81,0-1.22-1.25.6-1.47,1.67-1.88,2.5C21.47,55.88,16.5,65.61,10.84,75c-2.91,4.79-6.15,9.4-9.45,13.94a11.16,11.16,0,0,1-3,2.3c-.95.62-1.54,0-1.54-1.16a13.82,13.82,0,0,1,1.33-4.71c4.24-11.2,8.35-22.5,14.12-33.08C17.45,42.83,22.85,33.6,30.7,26a2.16,2.16,0,0,0,.83-1.54c0-3.24.14-6.47.23-10.2A9.67,9.67,0,0,0,29.53,18c-3.72,7.65-9.32,14.13-13.78,21.32C10.23,48.14,4.63,57-1.7,65.3c-2.33,3.07-5.43,5.39-8.22,8a1.89,1.89,0,0,1-2.39.41c-1.22-.75,0-1.31.22-1.9C-5.78,52.37,7.38,37.05,19.59,21.17,23,16.7,26.26,12.12,29.47,7.5a9.31,9.31,0,0,0,1.88-7c0-.12,0-.24-.05-.37h2.13q0,.74.06,1.44c0,1.21,1,1.5,1.81,2,9.63,5.6,18.3,12.33,25.38,20.93a74,74,0,0,1,7.74,11.32c1,1.81,2.08,3.55,3.22,5.27s2.26,3.3,3.44,4.91C76,47.23,76.87,48.44,77.78,49.65Z"/><path id="Path_2512" data-name="Path 2512" d="M86.41,37A1,1,0,0,1,85,37a1,1,0,0,1-.13-.16c-.27-.31-.49-.7-.71-1-.61-.76-1.23-1.51-1.87-2.25C81,32,79.59,30.41,78.15,28.87c-2.1-2.27-4.3-4.48-6.57-6.59-1.16-1.09-2.33-2.14-3.53-3.18q-4.26-3.71-8.84-7h0c-.71-.52-1.42-1-2.15-1.53-4.34-3.05-8.84-5.83-13.34-8.63C42.78,1.37,41.87.78,41,.17H60.6a.56.56,0,0,0,0-.12l.11.12c1.29,1.29,2.54,2.61,3.77,4l.09.1q3.18,3.42,6,7.11c1.51,1.94,3,3.94,4.33,6q2.63,3.9,4.93,8l.7,1.28a53.83,53.83,0,0,0,3,5c.7,1,1.43,2,2.21,3l.28.33C86.72,35.54,87.35,36.25,86.41,37Z"/><path id="Path_2513" data-name="Path 2513" d="M89.88,5.5a1,1,0,0,1-.64.29c-.53,0-1-.39-1.35-.83C87,4,86.13,3,85.21,2,84.58,1.39,83.94.77,83.29.16h3.07c0-.06.07-.11.1-.16a1.07,1.07,0,0,0,.14.16c1,1.11,2,2.22,2.94,3.34a4.88,4.88,0,0,1,.52.66A.92.92,0,0,1,90,5.45Z"/><path id="Path_2518" data-name="Path 2518" class="cls-3" d="M285.66,12c-1.64,1.51-3.57,2.7-5.05,4.4-.27.32-.78.61-1.14.25s-.22-.83,0-1.29a29.37,29.37,0,0,1,5.67-7.65A41.09,41.09,0,0,1,295.67.16h9.44A57.18,57.18,0,0,0,292.78,6.1,61.5,61.5,0,0,0,285.66,12Z"/><path id="Path_2519" data-name="Path 2519" class="cls-3" d="M332.39,45a.58.58,0,0,1-.32.72c-.4.24-.65-.08-.88-.27a32.27,32.27,0,0,1-8.06-10.14,40.62,40.62,0,0,1-3.9-12.52c-.2-1.39-.33-2.77-.4-4.15a37.23,37.23,0,0,1,2.36-15.88,2.11,2.11,0,0,0,.27-1.81,18.8,18.8,0,0,0-3.86,4.39,50.58,50.58,0,0,0-5.52,13s0,0,0,0c-1,3.88-1.92,7.71-1.68,11.74A23.8,23.8,0,0,0,312.48,39c.88,1.89,1.44,3.93,2.39,5.79a22.67,22.67,0,0,1,1.69,5.7c.09.45.26,1-.34,1.25s-.82-.18-1.21-.49c-2.39-1.93-3.71-4.53-4.92-7.24a34.32,34.32,0,0,1-2.73-12.51,39.56,39.56,0,0,1,1.85-13.23,36.16,36.16,0,0,1,1.3-3.52c.18-.44.32-.88.48-1.33a3.9,3.9,0,0,1,.19-.35l.36-.57h0a.57.57,0,0,0-.66.45h0c-.07.11-.16.21-.23.33q-1.67,2.43-3.23,4.94-2.58,4.14-4.86,8.47a39.76,39.76,0,0,1-2.75,4.07c-1.66,2.3-3,4.8-4.52,7.16-1,1.56-2.2,3-3.25,4.58-2,2.93-3.93,5.9-5.92,8.84-.23.35-.37,1-1,.67s-.28-.81-.11-1.27a63.18,63.18,0,0,1,4.64-9.27c3.55-6.27,7-12.58,10.68-18.79.92-1.55,1.87-3.08,2.88-4.57A64.1,64.1,0,0,1,315.92,3.77a10.67,10.67,0,0,0-3.85.9C308.41,6,304.65,7.2,301.56,9.73c-1.23,1-2.27,2.2-3.42,3.27a24.49,24.49,0,0,0-3.53,3.94l-.69,1c-2,2.71-4,5.35-5.8,8.18a74.53,74.53,0,0,1-4.72,6.17c-.23.3-.52.64-1,.45s-.39-.61-.38-1a16.76,16.76,0,0,1,2.73-8.07,67.39,67.39,0,0,1,4-5.81,48.36,48.36,0,0,1,14.74-13A27.29,27.29,0,0,1,316.12,1a9.59,9.59,0,0,0,4-.84h3.33a22.76,22.76,0,0,0-1.62,8.11c-.09,2.74.14,5.47.26,8.21,0,.77.07,1.54.12,2.3a40.63,40.63,0,0,0,1.26,8.28c.73,2.68,1.4,5.46,3.07,7.79,1.46,2,2.74,4.21,4.3,6.2C331.7,42.12,331.93,43.66,332.39,45Z"/><path id="Path_2520" data-name="Path 2520" class="cls-3" d="M346.55,38.08c-.38.48-.79.06-1.17-.1-.56-.25-1.1-.51-1.64-.78a27.15,27.15,0,0,1-8.87-6.94,40.72,40.72,0,0,1-6.65-11.18A33.12,33.12,0,0,1,326.78.16h2.54a30.79,30.79,0,0,0-.39,7.11,32.73,32.73,0,0,0,3.21,12,41.2,41.2,0,0,0,6.36,9.48c2.3,2.62,4.67,5.15,7.18,7.56.19.19.36.37.55.54C346.57,37.21,346.94,37.6,346.55,38.08Z"/><path id="Path_2521" data-name="Path 2521" class="cls-3" d="M357.56,35.35c.21.35.61.65.19,1.13s-.75,0-1.07-.19a25.57,25.57,0,0,1-4.56-2.77,36.24,36.24,0,0,1-4.2-3.73c-.69-.69-1.35-1.4-2-2.13l-.13-.15a46.48,46.48,0,0,1-5.59-7.71,41.66,41.66,0,0,1-5.55-19c0-.22,0-.44,0-.66h3a28.84,28.84,0,0,0,.78,3.43,54.73,54.73,0,0,0,5,12.21c.86,1.47,1.72,2.93,2.62,4.37a60.26,60.26,0,0,0,3.78,5.46l.11.15c.94,1.2,1.83,2.42,2.76,3.62.75,1,1.52,2,2.32,2.93.67.79,1.37,1.55,2.11,2.28A3.83,3.83,0,0,1,357.56,35.35Z"/><path id="Path_2522" data-name="Path 2522" class="cls-3" d="M349.68.16h4.94l.83,1.23c3.26,4.76,7.38,8.74,11.31,12.91h0A14,14,0,0,1,368.62,17c.19.33.46.69.16,1l-.08.09a.56.56,0,0,1-.51.12,3.06,3.06,0,0,1-.57-.29,40.44,40.44,0,0,1-3.71-2.32,44.87,44.87,0,0,1-4.15-3.24A47.09,47.09,0,0,1,349.68.16Z"/><path id="Path_2523" data-name="Path 2523" class="cls-3" d="M371.39,29c-.07.48-.51.58-.86.65a8.23,8.23,0,0,1-5.21-.68h0a23.64,23.64,0,0,1-2.77-1.47,31.28,31.28,0,0,1-5.1-3.92c-.95-.87-1.87-1.8-2.76-2.76l-.26-.27a52.55,52.55,0,0,1-6.61-8A43.81,43.81,0,0,1,342.53.16h3.86a71.69,71.69,0,0,0,12.86,17.43c.66.7,1.34,1.39,2,2.07l1.9,1.86.83.79c.14.13.28.26.41.4,1.25,1.19,2.51,2.38,3.82,3.47.65.56,1.31,1.09,2,1.58l.77.55A.7.7,0,0,1,371.39,29Z"/><path id="Path_2524" data-name="Path 2524" class="cls-3" d="M379.56,15.36a1.06,1.06,0,0,1-1.39.4A33.3,33.3,0,0,1,372,13.28c-.35-.19-.69-.39-1-.59a27.48,27.48,0,0,1-2.33-1.53c-.64-.45-1.26-.92-1.86-1.42a39.82,39.82,0,0,1-7.2-8c-.38-.53-.75-1.07-1.09-1.61h6.63c1.05,1.27,2.17,2.49,3.31,3.67S370.6,6,371.67,7q1.2,1.23,2.43,2.46c.59.61,1.2,1.21,1.81,1.81q1.62,1.57,3.33,3.08A.77.77,0,0,1,379.56,15.36Z"/><path id="Path_2071-2" data-name="Path 2071-2" class="cls-3" d="M258.19,711.63a13.09,13.09,0,0,0-3.37-3.51c-4.94-3.38-10.62-4.19-16.41-4.52-8.52-.49-16.92.63-25.57,2.12a3.67,3.67,0,0,1,1.91-1.87,31.78,31.78,0,0,1,12.35-4.7c6.51-1,13.06-1.73,19.55-2.82,7.81-1.3,14.83-4.23,20.23-10.25,8.71-9.69,12-21,10.43-33.73-.49-3.91-1.24-7.79-.94-11.77.18-2.4-1-3.65-3.46-4.16a11.41,11.41,0,0,0-6.77.8c-5,2.06-10,4.15-14.92,6.47-7.89,3.75-15.49,8.11-23.78,11l-.35.12c-4.53,1.55-9.12,2.86-14,2.59-3.45-.19-4.21-1.46-3.05-4.6,1.55-4.2,5.26-6,8.9-8a53.29,53.29,0,0,1,14.47-5c4.31-.88,8.72-1.4,13.14-1.87,6.15-.65,12.27-1.52,18-4,7-3,9.51-7.2,9.1-14.7-.33-5.92-2.08-11.63-2.51-17.53a3.16,3.16,0,0,0-2-2.82c-2.57-1.09-5.12-2.1-8-1.89-3.2.23-6.39.54-9.59.88l-1.23.15c-5.06.65-10,2-15.13,2.23-.8,0-1.86.28-2.27-.52s.35-1.64,1-2.3a20.34,20.34,0,0,1,7.18-4.63c4.1-1.75,8.25-3.22,12.63-3.13a17.75,17.75,0,0,1,5.06.83,21.66,21.66,0,0,0,7.06,1,8.2,8.2,0,0,0,7.92-5.34,19.9,19.9,0,0,0,1.33-7.86c.13-9,4.39-16.2,10.11-22.77a31.91,31.91,0,0,1,7.59-6c1.11-.68,2.1-1.37,1.41-2.84s-2-.9-3-.58c-5.56,1.84-11.16,1.46-16.78.45-5.23-.94-10.43-2.5-15.69-2.71a54.6,54.6,0,0,0-12.51.6,27.18,27.18,0,0,0-6.81,2.23c-5.63,2.75-10.54,6-12.75,12.2-1.32,3.72-3.3,7.24-4.34,11-1.3,4.74-2.91,9.2-6.43,12.79-1.83,1.87-3,1.7-3.89-.77a18.65,18.65,0,0,1-1.16-10.23c.63-3.33,2.08-6.43,2.41-9.85.55-5.67-1.7-8.62-7.41-9.25a47.54,47.54,0,0,0-8.52-.13,72.86,72.86,0,0,0-14.12,2.6c-3.63,1-7.27,2.6-9.31,5.9a42.38,42.38,0,0,0-6.08,18.33c-.64,6.3,1,11.91,3.59,17.28a101.67,101.67,0,0,1,4.17,9.73,45.65,45.65,0,0,1,2,7.18c1.32,7.27,2.64,14.55-.84,21.68a5.62,5.62,0,0,1-4.39,3c-1.58.31-2.21-1.06-2.94-2.13a23.26,23.26,0,0,1-3-6.89c-.15-.54-.3-1.08-.44-1.63-3.19-12.19-4.15-24.72-5.9-37.13-.43-3.07-.74-6.18-2.36-9a3.93,3.93,0,0,0-3.78-2.27,20.11,20.11,0,0,0-4.37.69c-8.52,2.54-17,5.11-24.87,9.43s-14.65,9.64-18.29,18c-2.27,5.23-2.93,10.63-.2,15.89a57.2,57.2,0,0,0,11.78,15c6.3,5.95,12.45,12,17.52,19.1,1.76,2.45,3.55,4.9,4.07,8,.2,1.14.31,2.49-.82,3.08s-1.65-.75-2.42-1.27a7.78,7.78,0,0,1-1-1.05c-5.72-5.82-10.47-12.54-16.8-17.79-6.93-5.75-14.38-9.57-23.73-5.69a4.69,4.69,0,0,0-2.22,1.4,12.71,12.71,0,0,0-2.81,7.61c.16,16.61,5.17,31.54,15.69,44.66C110.76,703,117.78,707,126,709a52.17,52.17,0,0,0,7.65,1.17c3.4.29,6.82.35,10.23.51,1.4.06,2.16.18,1.66,1.93-1.6,5.64-3.67,11.15-5.18,16.81q-.37,1.41-.69,2.82c-.62,2.77-1.92,5.38-2.57,8.1-1.81,7.51-4,14.9-6.39,22.25-1,3-2,6-1.28,9.21a3,3,0,0,0,2.66,2.67c2.79.48,4.42-.36,5.67-3.24a60.46,60.46,0,0,0,4.21-15.5,173.78,173.78,0,0,1,5.28-23.63c1.89-6.52,4.06-13,6.33-19.39.18-.51.21-1.26.89-1.34.87-.1.94.77,1.21,1.3a82.25,82.25,0,0,0,9.38,14.12,71.38,71.38,0,0,0,9.23,9.25A49.14,49.14,0,0,0,191,745c.3.1.6.21.9.3,4.2,1.37,8.5,2.63,12.85,2.6a88.35,88.35,0,0,0,20.66-2.69,36.92,36.92,0,0,0,21.71-14.54A71,71,0,0,1,257.3,718.8C259.94,716.49,260.19,714.58,258.19,711.63ZM200.74,570.91c-4,2.3-8.2,4.26-12.78,4.82a21.83,21.83,0,0,1-4,.12,8.48,8.48,0,0,1-1-.15,4,4,0,0,1-2.1-5.32,3.37,3.37,0,0,1,.3-.56,8.25,8.25,0,0,1,3.56-3.26,20.17,20.17,0,0,1,7.85-2.29,17.79,17.79,0,0,1,5,.36,5.39,5.39,0,0,1,3.79,2.83C202.1,568.73,202.09,570.14,200.74,570.91ZM133,600.35a28.1,28.1,0,0,1,8.48-7c5-2.46,9.15-.8,10.34,4.59,1.32,6,.3,12.07-.72,18.06a5.51,5.51,0,0,1-3,3.12,2.67,2.67,0,0,1-3.68-.91,2.53,2.53,0,0,1-.21-.44,9.12,9.12,0,0,1-.77-1.79c-1-3.69-3.66-5.32-7.23-6.08-7.24-1.53-8.09-4.1-3.21-9.59Zm11.42,46.24c-1.62,1.32-3.38.88-5.19.22-5.41-3.25-10-7.19-11.78-13.56a7.09,7.09,0,0,1,0-3.6,3.69,3.69,0,0,1,4.28-3,3.65,3.65,0,0,1,1.27.49c5,2.82,9.15,6.54,11.67,11.77a11.69,11.69,0,0,1,.85,2.52c.41,1.86.57,3.75-1.14,5.13Zm121.72-68.42c1.42,1.36,1.1,2.5-.18,3.69a5.18,5.18,0,0,1-5.24,1.24,10.32,10.32,0,0,1-6.56-5.47c-.66-1.32-.85-2.7.23-3.85s2.51-1,3.88-.45l1.34.53.42.19a22,22,0,0,1,6.11,4.12Zm-10-21.71c.47-.18,1-.35,1.1.25v.21h0a2.94,2.94,0,0,1-1,1.5c-.56.6-1.13,1.17-1.71,1.73l-.9.88a367.8,367.8,0,0,0-31.46,35.59h0q-7.1,9-14,18.52c-10,13.78-19.41,28.26-28.31,43.22q-7.52,12.63-14.53,25.57-5.82,10.71-11.28,21.64c-1.44,2.88-2.34,3.6-3.66,3s-1.42-2.16,0-4.93q3.38-6.63,6.79-13.24a499,499,0,0,1,34.89-59.28c10.82-15.54,21.58-31.23,33.32-45.43a205.53,205.53,0,0,1,14.66-16,155,155,0,0,1,12.85-11.3l0,0a13,13,0,0,1,3.18-1.91Zm-106,147.39h0l0,0c-.15.06-.27,0,.07-.16l0,0q-.22.16,0,.06Zm49.72-22.38c-3.13,3.61-9.65,5.11-14.27,3.29-3.18-1.25-4.75-3.69-4.45-6.76.09-.91.33-1.81,1.32-1.68,4.07.53,7.73-1.3,11.63-1.73a8.35,8.35,0,0,1,4.12.31c3.2,1.29,3.89,4,1.65,6.57Zm27.9-18.25a8.49,8.49,0,0,1,3.25-2.53,48.93,48.93,0,0,1,14.53-4.33c1.68-.26,3.6-.44,4.61,1.4s-.21,3.34-1.39,4.53c-4.88,4.93-10.5,8.26-17.89,7.28l-1.07-.15a3.92,3.92,0,0,1-2.72-4.84,3.63,3.63,0,0,1,.68-1.36Zm-6.29,71.21a14.09,14.09,0,0,1-7-.66c-4.13-1.28-8.17-3-12.67-2.58a1.87,1.87,0,0,1-2.19-1.19c-.37-1.22.37-2,1.3-2.62a37.92,37.92,0,0,1,10.06-4.46c2.51-.74,5.08-1.33,7.55-2.2,2.32-.82,4.55-1.67,6.62.39a7.72,7.72,0,0,1,2.12,8,2.35,2.35,0,0,1-.17.44h0a6.93,6.93,0,0,1-5.6,4.87Z"/><path id="Path_2539" data-name="Path 2539" d="M909.28,314.64V812H-534.28V455.1C-479,409.36-434.15,303.63-402,203.5a139.1,139.1,0,0,0-2-91C-418.63,73-436.78,25.11-447.74.16h66.24L-366.15,49a3.49,3.49,0,0,0,4.4,2.23,3.49,3.49,0,0,0,2.3-2.47c4.69-20,8.3-36.67,10.79-48.59h74.94c.45,4.66.87,9.73,1.23,15.26,1,16-.56,36-4,59a11.87,11.87,0,0,0,10.14,13.39,13,13,0,0,0,2.25.1,12.05,12.05,0,0,0,7.71-3.21,11.74,11.74,0,0,0,3.7-7.4l8-77.18h44.84l-3.91,59.67C-204.43,70.29-194,78-184,74.56l55.85-19.34,16.66-30.63a14.58,14.58,0,0,1,14.66-7.41A14.37,14.37,0,0,1-84.18,31.37a13.91,13.91,0,0,1-2.37,7.76l-.73,1.11a5.81,5.81,0,0,0,1.69,8A5.79,5.79,0,0,0-81,49l37.41-8.8A11.21,11.21,0,0,1-30,48.46,11.38,11.38,0,0,1-29.72,51a11,11,0,0,1-2.85,7.36A11.24,11.24,0,0,1-39.65,62a138.55,138.55,0,0,0-14.16,2.39A135.33,135.33,0,0,0-67.63,68.2L-261,132.9a52.76,52.76,0,0,0-34.78,38C-308,223.81-323.08,282.18-335.82,339c-3.35,14.94,11,27.82,25.82,23.07l123.71-39.67a3.28,3.28,0,0,1,4.15,2.05,3.27,3.27,0,0,1-.62,3.19L-194,340.33a4.64,4.64,0,0,0,.46,6.55,4.67,4.67,0,0,0,3.86,1.07l47.79.36c14.26.11,31.12,4.41,43.21-3,3.9-2.4,11.53-1.2,11.92-1.2,11.34,0,13.5-2.17,13.5,9.42A20.81,20.81,0,0,1-93,374.12c-14.17.8-34.89,1.91-58.62,3-24.94,1.17-87.15,10.2-137,17.91-37.39,5.77-66.19,35.43-70.54,72.43-4.51,38.4-5.23,72.52.17,99.11,15.71,32.12,28.08,60.4,37.62,85.29,11.68,30.53,19.09,56,23.16,77.12l8.89-.4,16.67-.73,10.28-.46,55.62-2.44,6.39-.29c20.66-1,41.36-2.14,62-2.38q6.54-.07,13.08,0,8.9.09,17.73.65A417.51,417.51,0,0,1-43,732.3c12.94,2.85,25.81,6,38.77,8.79,6.27,1.35,12.56,2.62,18.88,3.71q4.38.75,8.76,1.4l1.86.24c1.6.18,3.19.36,4.78.52,56.24,5.48,105.81-8.12,161.55-14.09,54.13-5.79,108.8-6.78,163.19-7.93,26.39-.56,52.71-.49,78.93.9a630.92,630.92,0,0,1,76.09,8.37l4.1.74c2.06.38,4.11.77,6.18,1.18,12.91,2.55,25.74,5.4,38.63,8q5.91,1.22,11.84,2.36,2.89.57,5.77,1.09l2.94.54c3.24.57,6.48,1.12,9.71,1.62l4.87.73.91.13.39.05a253.53,253.53,0,0,0,36.64,2c3.05-.07,6.08-.21,9.12-.43,2.76-.18,5.53-.43,8.29-.71l.52-.06c1.4-.21,2.81-.44,4.2-.68,2.84-.5,5.66-1.07,8.48-1.73a136.74,136.74,0,0,0,17.48-5.26c.3-.11,1.75-.73,2.52-1l1-.45c2.58-1.26,5.15-2.51,7.65-3.91,3.14-1.77,6.22-3.67,9.19-5.71,1-.68,2-1.38,2.94-2.09l.28-.22c4.51-3.63,8.8-7.49,12.92-11.53,17.71-17.39,33.12-37.23,48.75-56.41q12.07-14.84,23.92-29.87l2.71-3.46,3-3.82c1.73-2.23,3.45-4.47,5.19-6.7q5.91-7.67,11.76-15.38,23.75-31.32,46.39-63.46c3.67-5.22,7.37-10.43,10.67-15.89,1.34-2.22,2.57-4.5,3.8-6.79.31-.58.55-1,.72-1.34.47-1.19.91-2.41,1.31-3.62A86,86,0,0,0,877.29,501s.11-.83.22-1.48c.08-.91.26-2.62.28-2.9.55-6.19.71-12.41.91-18.62l2.43-80.31c.78-25.83-.13-54.62,18.67-75.08A48.25,48.25,0,0,1,909.28,314.64Z"/><g id="Group_30" data-name="Group 30"><path id="Path_2540" data-name="Path 2540" d="M722.24.16c-1.75,66.2-28.77,128.17-76.53,175.17a261.35,261.35,0,0,1-156,73.85q-5.67.6-11.38,1-8.76.58-17.62.58c-69.87,0-135.56-26.78-185-75.4C228,128.32,201,66.35,199.23.16H188.92c1.75,68.9,29.84,133.43,79.55,182.35,51.35,50.54,119.64,78.37,192.26,78.37q11.82,0,23.46-1,5.71-.48,11.4-1.2A271.58,271.58,0,0,0,653,182.51C702.71,133.58,730.8,69.06,732.55.16Z"/></g></g></svg>