<svg id="Layer_1" data-name="Layer 1" xmlns="http://www.w3.org/2000/svg" xmlns:xlink="http://www.w3.org/1999/xlink" viewBox="0 0 375 812"><defs><style>.cls-1{fill:none;}.cls-2,.cls-8{opacity:0.9;}.cls-10,.cls-2,.cls-4,.cls-8{isolation:isolate;}.cls-2{fill:url(#linear-gradient);}.cls-3{fill:url(#linear-gradient-2);}.cls-4{opacity:0.9;fill:url(#linear-gradient-3);}.cls-5{fill:url(#linear-gradient-4);}.cls-6{fill:url(#linear-gradient-5);}.cls-7{fill:url(#linear-gradient-6);}.cls-8{fill:url(#linear-gradient-7);}.cls-9{fill:url(#linear-gradient-8);}.cls-10{opacity:0.9;fill:url(#linear-gradient-9);}.cls-11{fill:url(#linear-gradient-10);}.cls-12{fill:url(#linear-gradient-11);}</style><linearGradient id="linear-gradient" x1="-994.83" y1="-0.53" x2="-993.83" y2="-0.53" gradientTransform="translate(-35363.13 36345.25) rotate(135) scale(50.78 76.37)" gradientUnits="userSpaceOnUse"><stop offset="0" stop-color="#ffab5f"/><stop offset="1" stop-color="#fff"/></linearGradient><linearGradient id="linear-gradient-2" x1="-990.8" y1="1.49" x2="-989.8" y2="1.49" gradientTransform="matrix(-47.98, -27.7, 65.54, -113.52, -47296.34, -27251.88)" xlink:href="#linear-gradient"/><linearGradient id="linear-gradient-3" x1="-980.89" y1="-1.44" x2="-979.89" y2="-1.44" gradientTransform="matrix(26.37, -15.22, 36.03, 62.4, 25935.73, -14820.82)" xlink:href="#linear-gradient"/><linearGradient id="linear-gradient-4" x1="-985.16" y1="-1.25" x2="-984.16" y2="-1.25" gradientTransform="matrix(52.3, -30.19, 45.4, 78.64, 51626.43, -29612.21)" xlink:href="#linear-gradient"/><linearGradient id="linear-gradient-5" x1="-982.65" y1="-1.83" x2="-981.65" y2="-1.83" gradientTransform="matrix(33.23, -8.91, 26.03, 97.07, 33051.24, -7792.74)" xlink:href="#linear-gradient"/><linearGradient id="linear-gradient-6" x1="-984.29" y1="-1.17" x2="-985.29" y2="-1.17" gradientTransform="matrix(53.89, -31.11, 50.84, 88.06, 53486.96, -29824.6)" xlink:href="#linear-gradient"/><linearGradient id="linear-gradient-7" x1="-983.05" y1="-0.48" x2="-982.05" y2="-0.48" gradientTransform="translate(29513.13 -28323.87) rotate(-45) scale(41.95 99.25)" xlink:href="#linear-gradient"/><linearGradient id="linear-gradient-8" x1="-991.55" y1="-0.51" x2="-990.55" y2="-0.51" gradientTransform="translate(-92346.99 93333.13) rotate(135) scale(132.09 198.75)" xlink:href="#linear-gradient"/><linearGradient id="linear-gradient-9" x1="-987.71" y1="-3.24" x2="-986.71" y2="-3.24" gradientTransform="matrix(34.92, 20.16, -47.69, 82.6, 34336.78, 20902.64)" xlink:href="#linear-gradient"/><linearGradient id="linear-gradient-10" x1="-989.47" y1="-2.62" x2="-988.47" y2="-2.62" gradientTransform="translate(59180.97 60415.75) rotate(45) scale(84.93 127.76)" xlink:href="#linear-gradient"/><linearGradient id="linear-gradient-11" x1="-990.68" y1="-3.08" x2="-989.68" y2="-3.08" gradientTransform="matrix(28.86, 49.99, -87.94, 50.77, 28381.89, 50448.36)" xlink:href="#linear-gradient"/></defs><rect class="cls-1" width="375" height="812"/><path id="Path_2079" data-name="Path 2079" class="cls-2" d="M361.1,690.7a3.47,3.47,0,0,1,.47-1.28,8.48,8.48,0,0,1,3.68-3,30.8,30.8,0,0,1,6.75-2.26,1.06,1.06,0,0,0-.7-.27,8.58,8.58,0,0,0-3.67.14c-1.77.45-3.52,1-5.29,1.42a9.24,9.24,0,0,1-6.3-.43,11.57,11.57,0,0,1-6.42-7.58,16.71,16.71,0,0,0-1.07-3.15,1,1,0,0,1,.33-1.41l.09,0a3.15,3.15,0,0,1,1.81-.54c1.51,0,3,0,4.52,0a68,68,0,0,0,7.28.24h.1a10.19,10.19,0,0,0,3.85-.86c.85-.43.91-.84.26-1.52a4.45,4.45,0,0,0-3.16-1.09,14.73,14.73,0,0,0-4.24.31,36.48,36.48,0,0,0-3.55,1,16.9,16.9,0,0,1-5,1,3.7,3.7,0,0,1-4-2.81c-.58-1.57-.77-3.24-1.32-4.81a.88.88,0,0,1,.2-1,4.75,4.75,0,0,1,1.83-1.37c.84-.29,1.69-.56,2.54-.82l.33-.1c1.36-.39,2.77-.59,4.1-1.08.21-.08.5-.13.52-.38s-.27-.39-.5-.49a5.67,5.67,0,0,0-2.34-.41,8.32,8.32,0,0,0-3.56.58,5.22,5.22,0,0,0-1.2.77,5.88,5.88,0,0,1-1.69,1,2.27,2.27,0,0,1-2.61-.52,5.64,5.64,0,0,1-1.22-1.89,10,10,0,0,0-5.12-4.78,9.06,9.06,0,0,0-2.6-.72c-.36-.05-.69-.12-.68-.58s.41-.45.69-.47a9.11,9.11,0,0,0,4.33-1.72,31.37,31.37,0,0,1,3.7-2.42,15,15,0,0,1,3.25-1.22,7.34,7.34,0,0,1,2-.17,6.23,6.23,0,0,1,4.61,1.76c.75.82,1.65,1.51,2.33,2.38a7.81,7.81,0,0,0,3.07,2.6c.67.28.94.12.91-.62a5.35,5.35,0,0,0-.84-2.77c-.53-.79-1.25-1.44-1.71-2.28-.77-1.41-.53-2.42.86-3.21a13.08,13.08,0,0,1,2.16-1,19.82,19.82,0,0,1,3.88-.88,4.18,4.18,0,0,1,3,.51,12,12,0,0,1,3.59,4.08,9.12,9.12,0,0,1,1,4.86,29.42,29.42,0,0,0,0,3,14.34,14.34,0,0,0,.3,2.07c.47,2,.95,4.06,2.63,5.52a1.56,1.56,0,0,0,1.45.3c.44-.09.44-.52.51-.87a6.85,6.85,0,0,0,0-2.12c0-.16,0-.31-.07-.47a90.11,90.11,0,0,0-2.64-10.25,6.68,6.68,0,0,1-.4-2.58,1.08,1.08,0,0,1,.71-1,4.83,4.83,0,0,1,1.19-.3,34.48,34.48,0,0,1,7.39-.29,10.74,10.74,0,0,1,6.67,2.66,5.07,5.07,0,0,1,1.82,4.09,16,16,0,0,1-1.33,5.18,38,38,0,0,0-2.34,6.86,5.57,5.57,0,0,0-.15,2.5c.08.32.2.68.55.71s.33-.37.47-.59a1.74,1.74,0,0,0,.14-.38,66.75,66.75,0,0,1,2.29-6.45c1.13-2.25,2.59-4,5.41-4.08a1.27,1.27,0,0,1,.72.12,3.59,3.59,0,0,1,1.56,1.66,20,20,0,0,1,1,13.28,10,10,0,0,1-3.85,5.53,13.21,13.21,0,0,1-1.82,1.14c-.83.45-1.7.84-2.55,1.25-.35.17-.53.28-.21.68,1,1.28,2.18,2.48,3.19,3.78.17.21.33.43.49.65.47.65,1.09,1.18,1.56,1.81,1.3,1.75,2.68,3.42,4.11,5.06a4.81,4.81,0,0,1,1.35,2.24.82.82,0,0,1-.38,1,1.26,1.26,0,0,1-1.77-.17l0,0a17.46,17.46,0,0,1-2.8-3.55,50.29,50.29,0,0,0-4-5.53c-1.21-1.48-2.48-2.91-3.77-4.32-.1-.11-.19-.3-.37-.25s-.15.3-.16.47a23,23,0,0,1-.81,4.68,20.2,20.2,0,0,1-1.32,3.41A13.52,13.52,0,0,1,381.9,692l-.2.18a11.25,11.25,0,0,1-3,2.08,24.34,24.34,0,0,1-5.56,1.57,10.25,10.25,0,0,1-7.15-1.38,19.82,19.82,0,0,0-3.91-2A1.3,1.3,0,0,1,361,691,1.9,1.9,0,0,0,361.1,690.7ZM360,648a9.49,9.49,0,0,0,3.79-.15,6.35,6.35,0,0,0,1-.4l.24-.15a1.15,1.15,0,0,0-.07-1.62l-.12-.1a2.33,2.33,0,0,0-1.27-.45,5.71,5.71,0,0,0-2.25.27,4.86,4.86,0,0,0-1.24.64,1.52,1.52,0,0,0-.65,1.15.67.67,0,0,0,.51.8Zm20.54.18a8,8,0,0,0-2.94-.88c-1.55-.09-2.42.8-2.12,2.32a13.26,13.26,0,0,0,2.2,4.59,1.55,1.55,0,0,0,1.11.48.74.74,0,0,0,.84-.63.76.76,0,0,0,0-.15,2.53,2.53,0,0,0,0-.55,2.32,2.32,0,0,1,1.17-2.37C382.5,649.81,382.43,649.05,380.58,648.16Zm2.24,13.22a1.32,1.32,0,0,0,1.34-.51,6.54,6.54,0,0,0,1.49-4.8,2.11,2.11,0,0,0-.41-.93,1,1,0,0,0-1.41-.31,1.24,1.24,0,0,0-.29.27,7.6,7.6,0,0,0-1.66,4.33,2.73,2.73,0,0,0,.07.75,1.34,1.34,0,0,0,.87,1.2ZM344.19,657c-.21.51,0,.77.46.94a1.43,1.43,0,0,0,1.47-.25,2.82,2.82,0,0,0,1.06-2.14.85.85,0,0,0-1.53-.66l-.28.28-.09.09A6.54,6.54,0,0,0,344.19,657Zm.13-6.71c-.14,0-.31,0-.25.19s0,0,0,0h0a.85.85,0,0,0,.42.28c.21.1.42.18.63.26l.33.13a103,103,0,0,1,12,5.76h0q2.82,1.56,5.62,3.26c4.09,2.46,8.09,5.18,12,8.08,2.21,1.63,4.4,3.3,6.55,5,1.78,1.42,3.55,2.88,5.29,4.36.69.59,1,.67,1.27.38s.12-.71-.55-1.28c-1.06-.9-2.14-1.79-3.21-2.68A141.34,141.34,0,0,0,369,662.62c-4.49-2.83-9-5.71-13.55-8.1a55,55,0,0,0-5.52-2.53,42.2,42.2,0,0,0-4.53-1.51h0a3.2,3.2,0,0,0-1-.16Zm43.44,26.5h0s.07,0,0,0h0C387.8,676.82,387.81,676.82,387.76,676.82Zm-15.16-.33a3.79,3.79,0,0,0,4-.71,1.78,1.78,0,0,0,.38-2.24c-.12-.23-.29-.43-.52-.29-1,.58-2.11.51-3.16.83a2.24,2.24,0,0,0-1,.53,1.08,1.08,0,0,0-.22,1.5A1.13,1.13,0,0,0,372.6,676.49Zm-9.14-1.66a2.39,2.39,0,0,0-1.11-.3,13.71,13.71,0,0,0-4.18.47c-.46.12-1,.28-1,.87s.43.84.86,1a5.65,5.65,0,0,0,5.37-.08l.26-.16a1.11,1.11,0,0,0,.14-1.57,1.31,1.31,0,0,0-.33-.25ZM373,692.56a3.88,3.88,0,0,0,1.72-.94,8.89,8.89,0,0,1,2.94-2.06.52.52,0,0,0,.43-.55.64.64,0,0,0-.62-.54,10.46,10.46,0,0,0-3.06-.05c-.72.08-1.44.21-2.17.26s-1.34.07-1.64.83a2.21,2.21,0,0,0,.35,2.31l.09.09h0A1.89,1.89,0,0,0,373,692.56Z"/><path id="Path_2082" data-name="Path 2082" class="cls-3" d="M271.1,37.64c7.74-4,16.27-4.71,24.69-5.87,2.36-.33,4.71-.75,7.06-1.19A4,4,0,0,0,305.51,29c.59-.79,1.27-1.5,2.08-2.44-1.94.46-3.63.9-5.33,1.26-3.84.83-7.77,1.16-11.63,1.88-1.62.3-3.2.79-4.81,1.16a7.26,7.26,0,0,1-4.13,0c-.26-.09-.59-.17-.58-.57s.33-.44.6-.53a21.88,21.88,0,0,0,4-1.6c6.22-3.33,13.05-4.32,19.91-5.19,1.49-.19,3-.29,4.5-.41a1.37,1.37,0,0,0,1.15-.49c1.07-1.48,2.16-2.95,3.33-4.53a2.67,2.67,0,0,0-1.41.54,47.94,47.94,0,0,1-11.76,3.61c-2.41.5-4.82,1-7.22,1.53a35.81,35.81,0,0,0-5.72,1.8c-.39.17-.93.57-1.29.06s.21-.92.55-1.27a8.91,8.91,0,0,1,4.17-2.35c6.25-1.69,12.15-4.39,18.35-6.21a36.15,36.15,0,0,1,5.82-1.17,1.55,1.55,0,0,0,1.24-.75c.79-1.27,1.64-2.52,2.44-3.73-.14-.27-.27-.19-.39-.12-5.49,3-11.48,4.42-17.54,5.67-2.48.51-5,.81-7.43,1.54-.42.13-1,.31-1.21-.28s.43-.65.78-.88A37.86,37.86,0,0,1,298.51,13c4.71-2.16,9.4-4.46,14.63-5.28a53.67,53.67,0,0,0,8.47-2c.31-.1.69-.1.87-.41,1.23-2.1,2.44-4.21,3.71-6.4L324.39.15C319,3.83,313,5.81,306.71,7.22c-3.64.82-7.31,1.49-11,2.21-.36.07-.85.33-1.05-.22s.32-.69.68-.83c4.22-1.67,7.78-4.64,12.12-6.08C311.26,1.05,315.13.19,319-.88c2.9-.82,5.72-1.87,8.53-3A2.35,2.35,0,0,0,328.76-5c.83-1.5,1.7-3,2.57-4.47-.16-.06-.24-.13-.27-.11-6.1,4.08-13,6.32-19.94,8.29l-9.85,2.81a12.07,12.07,0,0,1-2.06.66c-.41,0-.65,0-.78-.38s.23-.5.39-.64A52.41,52.41,0,0,1,319.21-9.63c2.31-.6,4.58-1.33,6.89-1.94,2.8-.74,5.25-2.26,7.9-3.33a.93.93,0,0,0,.52-.53q2.63-5.46,5.24-10.92a1.63,1.63,0,0,0,.09-.45c-.4,0-.59.29-.83.48a29.83,29.83,0,0,1-8.57,4.65c-4.54,1.59-9,3.34-13.68,4.54a23.42,23.42,0,0,1-5.64.87c-.33,0-.72.06-.83-.34s.33-.58.66-.7c2.45-1,4.88-2,7.36-2.86,4.15-1.45,7.88-3.73,11.8-5.66a29.25,29.25,0,0,1,9.84-3,1.36,1.36,0,0,0,1.32-1,66.76,66.76,0,0,0,2.43-8.78,40.64,40.64,0,0,1,1.92-5.9,2.18,2.18,0,0,1,1.45-1.25c.64-.22.95.25,1.32.53s.13.69-.08,1c-.82,1.14-1.5,2.35-2.37,3.47-1.63,2.1-1.84,4.77-2.43,7.26a23.31,23.31,0,0,1-1.24,3.73,2.91,2.91,0,0,0-.2,2.54c1.11,2.44,1.89,5,3.13,7.41,1.45,2.82,2.72,5.73,4,8.63a47.94,47.94,0,0,1,1.84,6.45c1,3.36.71,6.92,1.7,10.27.1.35.15.81-.34.89s-.51-.35-.56-.67a17.44,17.44,0,0,0-2.59-6.23,81.38,81.38,0,0,1-7.91-17.16A49.1,49.1,0,0,1,340-24.27c-1.62,2.5-2.59,4.94-1.67,7.89a38.43,38.43,0,0,0,2.77,6.7,45.83,45.83,0,0,1,5.21,13.73,56.75,56.75,0,0,1,1,10.4c0,.39.1.91-.48.93s-.45-.48-.58-.81c-1.51-4.13-3.26-8.16-5-12.21-.67-1.59-1.29-3.2-2.05-4.74a24.14,24.14,0,0,1-2.36-11,11.55,11.55,0,0,0-.38-3.56c-.83,1.44-1.95,2.69-1.83,4.54A65.29,65.29,0,0,0,336.34-1c.82,3.33,1.63,6.65,2.65,9.92.81,2.6,1.45,5.25,2.08,7.89a22.2,22.2,0,0,1,.29,7.71,5,5,0,0,1-.28.82.48.48,0,0,1-.53.43h0c-.26,0-.33-.27-.39-.48-.18-.64-.35-1.28-.52-1.92-2-7.2-4.55-14.19-6.89-21.26a22.59,22.59,0,0,1-1.12-9.79,7.46,7.46,0,0,0-2.24,5.06A41.65,41.65,0,0,0,332.14,7.9c1.7,4.67,3.21,9.37,3.43,14.4.17,4.07,0,8.15.31,12.21,0,.33.06.72-.38.79s-.5-.23-.56-.54c-1.4-7.5-4.34-14.56-6.13-21.94a41.64,41.64,0,0,1-1.27-13.2c0-.12.12-.29-.35-.55-1.29,2.24-2.57,4.49-3.89,6.71-.29.5,0,.82.17,1.2,1.51,2.86,3,5.7,4.4,8.63a33.79,33.79,0,0,1,3.25,13.83c.07,3.67,0,7.34.38,11,0,.34.15.81-.4.87s-.54-.43-.55-.77c-.24-6-2.37-11.61-4.42-17.2-1.78-4.86-3.54-9.74-4.08-14.94,0-.09-.09-.17-.19-.35-1.32,2-2.58,4-3.86,5.94-.36.54.06.9.27,1.3a38.3,38.3,0,0,1,4.87,18.65c0,2.68-.5,5.33-.78,8-.19,1.75-.28,3.51-.42,5.26,0,.33,0,.73-.5.7s-.46-.41-.43-.75c.54-6.13-1.37-11.83-3.06-17.57A40.76,40.76,0,0,1,316,17.77a3.33,3.33,0,0,0-.1-.55c-1.2,1.66-2.24,3.26-3.45,4.71a2.36,2.36,0,0,0-.33,2.9c2.13,4.81,2.45,9.93,2.19,15.11a46.77,46.77,0,0,1-2,11.56,24.65,24.65,0,0,0-.86,4c-.05.37,0,1-.57.88s-.36-.64-.32-1a54.92,54.92,0,0,0-.25-14.6c-.38-2.58-1-5.12-1.53-7.67a18.08,18.08,0,0,1-.46-5.86c-1,1.08-1.72,1.91-2.48,2.73-.35.37-.15.75-.05,1.13A38.76,38.76,0,0,1,307,44.94a31.52,31.52,0,0,1-1.12,5.71,70.47,70.47,0,0,0-1.66,8.62,2.69,2.69,0,0,1-1.66-.14,85.73,85.73,0,0,0-.17-12.31c-.32-4-.6-8,.46-12a5.48,5.48,0,0,0,.39-2c-1.34,1.3-2.6,2.57-3.91,3.78a2,2,0,0,0-.7,1.52c-.34,7.09-2,14-3.21,20.95a12.29,12.29,0,0,1-3.75.68c.8-6.79,1.79-13.54,4.51-20a2.16,2.16,0,0,0-1.36,1.25c-1.45,2.55-2.76,5.2-4.42,7.61a59.91,59.91,0,0,1-4.63,5.79,67.86,67.86,0,0,1-5.93,6.18,21.66,21.66,0,0,1-3.79,2.95c-.28.15-.57.41-.9.16s-.14-.59-.05-.9a24.8,24.8,0,0,1,3.36-6.53c1.83-2.74,3.74-5.43,5.77-8a32.2,32.2,0,0,1,6.95-6.84,4.27,4.27,0,0,0,.38-.36,1.71,1.71,0,0,0-1.31.2c-4.38,1.56-8.79,3-13.29,4.16-2.31.58-4.66,1-7,1.4a4.7,4.7,0,0,1-1.58-.19c-.47-.1-.47-.44-.11-.81a5.75,5.75,0,0,1,1.82-1,111.84,111.84,0,0,1,14.18-5.79c4.37-1.32,8.76-2.5,13.38-2.46a.89.89,0,0,0,.7-.22c1-1,2-1.91,3.15-3a4.18,4.18,0,0,0-1.77.45c-3.41,1.21-7,1.5-10.53,2.34-4.31,1-8.64,2-13,2.68a29.21,29.21,0,0,1-4.86,0,.78.78,0,0,1-.84-.59C270.33,37.56,270.86,37.76,271.1,37.64Z"/><path id="Path_2083" data-name="Path 2083" class="cls-4" d="M56,29.42c-4.26-2.19-8.94-2.59-13.57-3.23-1.3-.18-2.59-.41-3.88-.66a2.19,2.19,0,0,1-1.46-.85c-.33-.43-.7-.83-1.15-1.34,1.07.25,2,.49,2.93.69,2.11.46,4.27.64,6.39,1,.89.17,1.76.44,2.65.64a4,4,0,0,0,2.27,0c.14-.05.33-.09.32-.31s-.18-.24-.33-.29A11.34,11.34,0,0,1,48,24.19c-3.42-1.83-7.17-2.38-10.94-2.85-.82-.1-1.65-.16-2.47-.22a.73.73,0,0,1-.63-.27c-.59-.82-1.19-1.62-1.83-2.49a1.46,1.46,0,0,1,.78.3,26.56,26.56,0,0,0,6.46,2c1.33.27,2.65.53,4,.84a19.08,19.08,0,0,1,3.14,1c.22.09.51.32.71,0s-.12-.51-.3-.7a4.85,4.85,0,0,0-2.29-1.29C41.2,19.59,38,18.11,34.55,17.1a20.63,20.63,0,0,0-3.2-.65.86.86,0,0,1-.68-.41c-.44-.7-.9-1.38-1.34-2,.08-.15.15-.1.22-.07A34.43,34.43,0,0,0,39.19,17c1.36.28,2.75.45,4.08.85.23.07.56.17.67-.15s-.24-.36-.43-.48A21.42,21.42,0,0,0,41,15.85,30.7,30.7,0,0,0,33,13a29.62,29.62,0,0,1-4.65-1.09c-.17,0-.38-.06-.48-.23-.68-1.16-1.34-2.32-2-3.52l1,.69a27.39,27.39,0,0,0,9.72,3.89c2,.45,4,.82,6,1.22.2,0,.47.18.58-.12s-.17-.38-.38-.46c-2.32-.92-4.28-2.55-6.66-3.34-2.07-.69-4.2-1.16-6.3-1.75-1.59-.45-3.14-1-4.68-1.63A1.25,1.25,0,0,1,24.35,6c-.45-.83-.94-1.63-1.41-2.46.09,0,.13-.07.15-.06A37.65,37.65,0,0,0,34.05,8l5.41,1.54a5.71,5.71,0,0,0,1.13.36c.22,0,.36,0,.43-.21s-.13-.27-.22-.35a28.89,28.89,0,0,0-11.2-6c-1.27-.33-2.52-.73-3.79-1.07A36.86,36.86,0,0,1,21.47.53a.53.53,0,0,1-.28-.29l-2.88-6a1,1,0,0,1,0-.24c.22,0,.32.16.46.26a16.57,16.57,0,0,0,4.71,2.56c2.49.87,5,1.83,7.52,2.49a12.52,12.52,0,0,0,3.1.48c.18,0,.4,0,.46-.18s-.18-.32-.36-.39c-1.35-.52-2.68-1.09-4-1.56a59.3,59.3,0,0,1-6.48-3.11,16,16,0,0,0-5.41-1.66.76.76,0,0,1-.73-.56,38.39,38.39,0,0,1-1.34-4.83,22.68,22.68,0,0,0-1.05-3.24,1.23,1.23,0,0,0-.8-.69c-.35-.12-.52.14-.72.29s-.07.39,0,.54c.45.62.83,1.29,1.3,1.91.9,1.15,1,2.62,1.34,4a12.35,12.35,0,0,0,.69,2,1.6,1.6,0,0,1,.11,1.4C16.43-4.91,16-3.5,15.32-2.18c-.8,1.55-1.5,3.15-2.21,4.74a28.63,28.63,0,0,0-1,3.54c-.53,1.85-.39,3.8-.94,5.64-.06.19-.08.44.19.49s.28-.19.31-.37a9.63,9.63,0,0,1,1.42-3.42A45,45,0,0,0,17.43-1a27.53,27.53,0,0,0,.75-3.61A4.89,4.89,0,0,1,19.1-.26a21.12,21.12,0,0,1-1.52,3.68A25.21,25.21,0,0,0,14.72,11a31.33,31.33,0,0,0-.56,5.72c0,.21-.06.5.26.51s.25-.26.32-.45c.83-2.27,1.79-4.48,2.73-6.71.36-.87.7-1.76,1.12-2.6a13.39,13.39,0,0,0,1.3-6A6.38,6.38,0,0,1,20.1-.55a4.4,4.4,0,0,1,1,2.49,34.73,34.73,0,0,1-.9,6.26c-.45,1.83-.89,3.65-1.46,5.45C18.3,15.08,18,16.54,17.6,18a12.33,12.33,0,0,0-.16,4.24,4,4,0,0,0,.15.45.27.27,0,0,0,.29.24h0c.14,0,.18-.15.21-.26.1-.35.19-.7.29-1.05,1.08-4,2.5-7.8,3.79-11.69a12.29,12.29,0,0,0,.61-5.38A4.12,4.12,0,0,1,24,7.32a23.12,23.12,0,0,1-1.51,5.78A26.4,26.4,0,0,0,20.63,21c-.09,2.24,0,4.48-.17,6.71,0,.18,0,.39.21.43s.27-.12.31-.3c.77-4.12,2.39-8,3.37-12.06a23.08,23.08,0,0,0,.7-7.26c0-.07-.06-.16.19-.3.71,1.23,1.41,2.47,2.14,3.69.16.27,0,.45-.09.66-.83,1.57-1.67,3.13-2.42,4.74a18.54,18.54,0,0,0-1.79,7.6c0,2,0,4-.21,6,0,.18-.09.45.22.48s.29-.24.3-.42c.13-3.33,1.3-6.38,2.43-9.45a33.87,33.87,0,0,0,2.24-8.21,1.21,1.21,0,0,1,.1-.19l2.12,3.26c.2.3,0,.5-.15.71A21,21,0,0,0,27.46,27.4a43.17,43.17,0,0,0,.42,4.39c.1,1,.15,1.93.23,2.89,0,.18,0,.4.27.39s.25-.23.24-.41c-.3-3.37.75-6.5,1.68-9.65a22.32,22.32,0,0,0,1.06-6.49,1.59,1.59,0,0,1,.06-.3c.66.91,1.23,1.79,1.9,2.59a1.3,1.3,0,0,1,.18,1.6,18,18,0,0,0-1.2,8.31,25.93,25.93,0,0,0,1.1,6.36,13.43,13.43,0,0,1,.47,2.18c0,.2,0,.52.31.48s.2-.35.18-.55a29.91,29.91,0,0,1,.14-8c.21-1.42.53-2.82.84-4.21a9.69,9.69,0,0,0,.25-3.22L37,25.24c.19.21.08.41,0,.62a21.26,21.26,0,0,0-.67,7.61,17.78,17.78,0,0,0,.61,3.14,40.07,40.07,0,0,1,.92,4.74,1.49,1.49,0,0,0,.91-.08,47.82,47.82,0,0,1,.09-6.77,19.57,19.57,0,0,0-.25-6.61,3.17,3.17,0,0,1-.22-1.1c.74.72,1.43,1.42,2.15,2.08a1.1,1.1,0,0,1,.38.83,91.55,91.55,0,0,0,1.76,11.52,6.93,6.93,0,0,0,2.06.37,40.06,40.06,0,0,0-2.48-11,1.18,1.18,0,0,1,.74.69c.8,1.4,1.52,2.86,2.43,4.18A32.47,32.47,0,0,0,48,38.63,37.34,37.34,0,0,0,51.21,42a11.62,11.62,0,0,0,2.08,1.62c.16.08.32.23.49.09s.08-.32,0-.5A13.58,13.58,0,0,0,52,39.65c-1-1.5-2.06-3-3.17-4.41A17.47,17.47,0,0,0,45,31.48l-.21-.2a1,1,0,0,1,.72.11c2.4.86,4.83,1.66,7.3,2.29,1.27.32,2.56.56,3.85.77a2.56,2.56,0,0,0,.87-.1c.26-.05.26-.24.06-.44a3,3,0,0,0-1-.56,61.18,61.18,0,0,0-7.79-3.18,24.6,24.6,0,0,0-7.35-1.35A.51.51,0,0,1,41,28.7L39.29,27a2.18,2.18,0,0,1,1,.25,57,57,0,0,0,5.79,1.29c2.37.57,4.75,1.12,7.16,1.47a15.87,15.87,0,0,0,2.67,0,.44.44,0,0,0,.46-.32C56.46,29.38,56.17,29.49,56,29.42Z"/><path id="Path_2081" data-name="Path 2081" class="cls-5" d="M93.93-2.77A4.1,4.1,0,0,1,93-1.44,10.1,10.1,0,0,1,87.87.84a36.76,36.76,0,0,1-8.44.52,1.22,1.22,0,0,0,.71.53,10.4,10.4,0,0,0,4.25,1c2.17,0,4.35,0,6.52,0A11,11,0,0,1,98,5.29a13.77,13.77,0,0,1,5,10.68,20.93,20.93,0,0,0,.26,4,1.23,1.23,0,0,1-.81,1.52l-.11,0a3.75,3.75,0,0,1-2.25.06c-1.74-.44-3.47-.9-5.18-1.43a77.54,77.54,0,0,0-8.29-2.51l-.12,0a12,12,0,0,0-4.69-.19c-1.12.23-1.3.68-.77,1.67.71,1.32,2,1.75,3.29,2.22a17.85,17.85,0,0,0,5,.95,42.67,42.67,0,0,0,4.38,0,20,20,0,0,1,6.07.46c2.43.65,3.45,1.93,3.68,4.44.18,2-.12,4,0,5.93a1,1,0,0,1-.52,1,5.59,5.59,0,0,1-2.53,1c-1.06.08-2.11.13-3.17.17h-.41c-1.68,0-3.36-.17-5.05,0-.26,0-.62,0-.72.28s.2.53.43.72a6.64,6.64,0,0,0,2.57,1.19,10,10,0,0,0,4.27.43,5.72,5.72,0,0,0,1.61-.52,7.13,7.13,0,0,1,2.25-.67,2.69,2.69,0,0,1,2.84,1.39,6.75,6.75,0,0,1,.81,2.54c.48,3,2.22,5.16,4.4,7.07a10.27,10.27,0,0,0,2.77,1.62c.4.17.75.35.6.87s-.61.39-.94.33a10.87,10.87,0,0,0-5.5.65,37.86,37.86,0,0,1-5,1.65,18.31,18.31,0,0,1-4.11.4,8.77,8.77,0,0,1-2.33-.41c-2-.64-3.73-1.49-4.75-3.43-.61-1.17-1.43-2.24-2-3.45A9.37,9.37,0,0,0,86.36,42c-.68-.53-1-.42-1.23.44a6.32,6.32,0,0,0,.12,3.45c.37,1.07,1,2,1.26,3.15.45,1.85-.14,2.94-2,3.42a16.28,16.28,0,0,1-2.78.45A23.39,23.39,0,0,1,77,52.69a4.92,4.92,0,0,1-3.32-1.51,14.33,14.33,0,0,1-2.87-5.79,10.87,10.87,0,0,1,.33-5.9,33.63,33.63,0,0,0,.88-3.42,15.84,15.84,0,0,0,.29-2.48c.08-2.47.16-5-1.33-7.15a1.86,1.86,0,0,0-1.58-.79c-.53,0-.67.46-.86.84a7.61,7.61,0,0,0-.65,2.43c0,.19,0,.37-.06.56a110.16,110.16,0,0,0-.12,12.59,8,8,0,0,1-.34,3.08,1.3,1.3,0,0,1-1.12.93,6.47,6.47,0,0,1-1.46,0,41.24,41.24,0,0,1-8.57-1.94c-2.77-1-5.24-2.48-6.84-5.09a6,6,0,0,1-.83-5.26,19.06,19.06,0,0,1,3.12-5.54,44.78,44.78,0,0,0,4.79-7.17,6.51,6.51,0,0,0,.94-2.83c0-.38,0-.84-.41-1s-.5.33-.73.54a2.14,2.14,0,0,0-.28.39c-1.58,2.2-2.81,4.66-4.62,6.7-2,2.24-4.23,3.86-7.47,3a1.47,1.47,0,0,1-.79-.36,4.34,4.34,0,0,1-1.29-2.39,23.83,23.83,0,0,1,3-15.56,12,12,0,0,1,6.13-5.17,17.2,17.2,0,0,1,2.44-.75c1.09-.26,2.21-.44,3.32-.66.46-.09.7-.16.45-.72C56.34.5,55.4-1.23,54.64-3q-.2-.45-.36-.9c-.34-.89-.89-1.69-1.23-2.56-1-2.4-2-4.75-3.16-7.07a5.75,5.75,0,0,1-.87-3,1,1,0,0,1,.74-1,1.5,1.5,0,0,1,2,.75.17.17,0,0,1,0,.05,20.35,20.35,0,0,1,2.12,4.94,58.72,58.72,0,0,0,2.87,7.58c.93,2.07,2,4.11,3,6.13.08.16.13.41.35.4s.27-.3.33-.49a26.85,26.85,0,0,1,2.38-5.13,22.57,22.57,0,0,1,2.57-3.51,15.94,15.94,0,0,1,5-3.77l.28-.14a13.16,13.16,0,0,1,4.07-1.47,28.72,28.72,0,0,1,6.87-.1,12.19,12.19,0,0,1,7.78,3.78,23.22,23.22,0,0,0,3.9,3.44,1.56,1.56,0,0,1,.82,2.05A1.22,1.22,0,0,1,93.93-2.77ZM82,46.63a11.34,11.34,0,0,0-4.4-1,7.1,7.1,0,0,0-1.3.15l-.32.1a1.37,1.37,0,0,0-.42,1.89l.11.15a2.7,2.7,0,0,0,1.32.91,6.72,6.72,0,0,0,2.67.39,5.74,5.74,0,0,0,1.63-.36,1.78,1.78,0,0,0,1.1-1.12.8.8,0,0,0-.33-1.08A.07.07,0,0,0,82,46.63ZM58.48,40.09a9.27,9.27,0,0,0,3.1,1.9c1.76.58,3-.17,3.15-2A15.91,15.91,0,0,0,63.62,34a1.83,1.83,0,0,0-1.13-.89.87.87,0,0,0-1.15.47.84.84,0,0,0-.05.17,2.65,2.65,0,0,0-.16.63,2.75,2.75,0,0,1-2.07,2.36C56.78,37.61,56.63,38.5,58.48,40.09ZM60,24.22a1.59,1.59,0,0,0-1.7.17,7.79,7.79,0,0,0-3.19,5.06,2.41,2.41,0,0,0,.19,1.19,1.2,1.2,0,0,0,1.52.78,1.25,1.25,0,0,0,.41-.22,9,9,0,0,0,3.24-4.46,3.31,3.31,0,0,0,.15-.88A1.57,1.57,0,0,0,60,24.22ZM103,41.1c.39-.52.24-.88-.24-1.21a1.67,1.67,0,0,0-1.77-.16,3.44,3.44,0,0,0-1.88,2.12,1.09,1.09,0,0,0,.26,1.27,1.07,1.07,0,0,0,1.29,0l.41-.24.13-.08A7.3,7.3,0,0,0,103,41.1Zm-2.21,7.68c.16,0,.36.07.35-.14,0,0,0,0,0-.07h0a1,1,0,0,0-.4-.45l-.64-.49-.34-.25a122.4,122.4,0,0,1-12-10.3h0c-1.83-1.77-3.65-3.6-5.46-5.47-3.93-4.09-7.7-8.44-11.33-13q-3.06-3.83-6-7.78c-1.61-2.18-3.19-4.4-4.73-6.64-.61-.88-.93-1.08-1.34-.83s-.36.78.23,1.64L62,9.09a170.26,170.26,0,0,0,14.25,18c4.28,4.63,8.55,9.33,13.07,13.47a70.05,70.05,0,0,0,5.56,4.61,49.76,49.76,0,0,0,4.74,3.13h0A5.49,5.49,0,0,0,100.79,48.78ZM59.05,5h0V5s-.09,0,0,0h0C59,5,59,5,59.05,5Zm17.3,5a4.49,4.49,0,0,0-4.81-.41,2.11,2.11,0,0,0-1.12,2.45c.07.3.19.58.52.49,1.3-.37,2.59.06,3.88,0a2.79,2.79,0,0,0,1.33-.3,1.27,1.27,0,0,0,.71-1.65A1.41,1.41,0,0,0,76.35,10Zm10,4.72a2.88,2.88,0,0,0,1.18.69,15.68,15.68,0,0,0,5,.74c.56,0,1.2,0,1.43-.69s-.23-1.1-.67-1.44c-1.83-1.4-3.83-2.24-6.19-1.56l-.34.1a1.32,1.32,0,0,0-.64,1.76A1.3,1.3,0,0,0,86.34,14.73Zm-5.5-23.3A4.66,4.66,0,0,0,78.58-8a10.44,10.44,0,0,1-4,1.46.62.62,0,0,0-.66.5.75.75,0,0,0,.55.81,12.53,12.53,0,0,0,3.5,1c.86.13,1.72.2,2.57.37s1.57.34,2.14-.44A2.61,2.61,0,0,0,83-7.08a1,1,0,0,0-.08-.14h0A2.28,2.28,0,0,0,80.84-8.57Z"/><path id="Path_2072-7" data-name="Path 2072-7" class="cls-6" d="M364.39,785.12a32.72,32.72,0,0,0,9.06-8.41,22.13,22.13,0,0,0,3.26-5.88c.18-.52.37-1.13-.22-1.52s-1.06-.08-1.55.23a17.65,17.65,0,0,0-3.28,2.88,59.17,59.17,0,0,0-6.9,9.79c-.37.61-.79,1.19-1.27,1.92-.5-1.85-.93-3.51-1.39-5.16-.12-.44.11-.64.4-.86a36.76,36.76,0,0,0,8.39-9.45,13.07,13.07,0,0,0,2.27-6.1c0-.82.2-1.83-.75-2.25s-1.59.31-2.21.89a14.82,14.82,0,0,0-3,4.49c-1.61,3.31-3.16,6.64-4.73,10a4.59,4.59,0,0,1-.92,1.45c-.37-1.37-.65-2.56-1-3.72a1.2,1.2,0,0,1,.27-1.26,76.15,76.15,0,0,0,8.83-14.08,9.65,9.65,0,0,0,1.3-5.89c-.16-1.08-.59-1.3-1.52-.69A7,7,0,0,0,367.2,754c-.94,1.69-1.56,3.52-2.38,5.27a85.9,85.9,0,0,0-4.51,10.92,1.65,1.65,0,0,1-.47.88c-.65-1.89-1.24-3.71-1.93-5.5a1.31,1.31,0,0,1,.46-1.8l.07,0a6.14,6.14,0,0,0,1.13-1.09,32.57,32.57,0,0,0,6.62-13.19,7.33,7.33,0,0,0,.32-2.94c-.17-1.21-.94-1.59-2-.89a5.75,5.75,0,0,0-1,.86,25,25,0,0,0-5.08,9.6c-.63,2-1.15,4-1.76,6.17-.59-1.41-1.09-2.7-1.65-4-.19-.45.05-.72.27-1a26,26,0,0,0,4.47-11.66,23,23,0,0,0,.24-5.86,4.07,4.07,0,0,0-.1-1.15,1.57,1.57,0,0,0-.67-1.15,1,1,0,0,0-.63,0,1.43,1.43,0,0,0-1.14.52h0l-.11.15a.8.8,0,0,0-.15.21,14.48,14.48,0,0,0-1.51,4c-.86,3-.75,6-.92,9.06a40.26,40.26,0,0,1-.52,4.91,5.38,5.38,0,0,1-1-3,20.9,20.9,0,0,0-.62-6,33,33,0,0,0-2.19-6.63,24,24,0,0,0-3.44-6,1.43,1.43,0,0,0-1.69-.57c-.72.29-.77,1-.67,1.65a10.74,10.74,0,0,0,.69,2.35,6.25,6.25,0,0,1,.74,1.89c-.41-.35-.68-.6-1-.83a5.36,5.36,0,0,0-2.09-1.24c-.74-.17-1.58.3-1.49.91a4.73,4.73,0,0,0,.49,1.76c.7,1.15,1.37,2.31,2.13,3.42a44.88,44.88,0,0,0,2.95,4c1.81,2.13,3.56,4.3,5.21,6.54a3,3,0,0,1,.28.63.14.14,0,0,1,.16.15s0,0,0,.07l-.13-.21c-1.72-1.4-3.15-3.11-4.75-4.64-2.71-2.61-5.69-4.68-9.58-5.11a1.13,1.13,0,0,0-1.13.38,1.2,1.2,0,0,0-.09,1.25,10.54,10.54,0,0,0,2.14,2.7,13,13,0,0,0,2.66,1.75c1.85,1.05,3.77,2,5.67,2.93,1.74.87,3.49,1.72,5.22,2.6a2.31,2.31,0,0,1,1.14.9c.49,1.1.87,2.25,1.27,3.38.06.17.24.4,0,.55s-.39-.07-.54-.18a14.27,14.27,0,0,0-2.35-1.59,35.42,35.42,0,0,0-6.49-2.7,28.93,28.93,0,0,0-5.57-1.47,1.25,1.25,0,0,0-1.39.64,1.29,1.29,0,0,0,.28,1.6,18.82,18.82,0,0,0,5.33,3.42,56.83,56.83,0,0,0,8.15,2.51c1,.21,2,.48,3,.79a2.24,2.24,0,0,1,1.47,1.2c.46.92.56,1.94,1,2.86a3.13,3.13,0,0,1,.61,2,23.82,23.82,0,0,0-4.1-3,24.88,24.88,0,0,0-7.7-3,9.81,9.81,0,0,0-4.93.21c-.73.24-.76.68-.43,1.19a5.48,5.48,0,0,0,2.24,1.86,30.45,30.45,0,0,0,7,2.29,56.35,56.35,0,0,1,8.14,2.42,1,1,0,0,1,.69.59,32,32,0,0,1,1.06,3.62c-.38,0-.55-.29-.78-.45a30.73,30.73,0,0,0-14.11-5.8,21.51,21.51,0,0,0-3.31-.11c-.82,0-1,.38-.61,1.09a4.49,4.49,0,0,0,1,1.21c.53.51,1.23.59,1.75,1a7.54,7.54,0,0,0,2.88,1.31c4,1.06,7.89,2.14,11.86,3.06a2.59,2.59,0,0,1,2.36,2.38,30.12,30.12,0,0,0,.88,3.39,1.44,1.44,0,0,1-.73-.36,27.89,27.89,0,0,0-12.67-6,6.32,6.32,0,0,0-2.87,0c-.44.12-.79.33-.66.85a2.17,2.17,0,0,0,.81,1.28,21.86,21.86,0,0,0,7.25,3.34c2.32.6,4.67,1.07,7,1.58a2.76,2.76,0,0,1,2.54,2.46c.23,1.58.66,3.14,1,4.71a2,2,0,0,1,0,1c-1.6-1.52-3.09-3-4.64-4.4-3.14-2.84-6.59-5-11-5.09-.83,0-1.2.3-.95,1.06a4,4,0,0,0,1.21,2.07,23.45,23.45,0,0,0,5.25,3.13l9,3.74a2.82,2.82,0,0,1,1.9,2.3c.22,1.52.53,3,.85,4.78-.67-.68-1.16-1.2-1.67-1.71a31,31,0,0,0-7.65-6.08,11.77,11.77,0,0,0-3.46-1.21,1.22,1.22,0,0,0-1.28.34,1.12,1.12,0,0,0,.13,1.38c.19.26.35.54.55.78a16.49,16.49,0,0,0,6,4.73c1.71.76,3.4,1.55,5.1,2.32s3.16,1.7,3,3.89a.86.86,0,0,0,0,.17c.15,1.14.3,2.29.46,3.43a2.72,2.72,0,0,1-.78-.77,29.59,29.59,0,0,0-5.94-6.4,9.09,9.09,0,0,0-5.05-2c-.41,0-1-.13-.94.56a4.53,4.53,0,0,0,.91,2.68,15.51,15.51,0,0,0,2.92,2.86,40.2,40.2,0,0,0,7.12,4.29c1.44.66,2.39,1.48,2.34,3.22a33,33,0,0,0,.33,3.72,28.27,28.27,0,0,0-3.5-3.92,7.45,7.45,0,0,0-4.89-2.27c-.83,0-1,.31-.8,1.11a8.47,8.47,0,0,0,4,5.06,43.61,43.61,0,0,0,4.13,2.41c.69.34,1.48.74,1.53,1.74.08,1.6.25,3.19.28,4.79a29.12,29.12,0,0,1-.36,5.28c-.06.36-.11.76.37.83s.5-.31.55-.63.13-.75.17-1.12a38,38,0,0,0-.1-9,2,2,0,0,1,.64-1.86,20.8,20.8,0,0,0,2.55-2.59,34.37,34.37,0,0,0,4.4-6.41,9.91,9.91,0,0,0,1.2-3.63,1,1,0,0,0-.41-1.08,1.06,1.06,0,0,0-1.07.12,8.3,8.3,0,0,0-1.69,1.38c-2.54,2.57-4.05,5.76-5.44,9-.13.3-.18.66-.6.9-.17-1.58-.27-3.1-.51-4.59a1.62,1.62,0,0,1,.59-1.59,38.91,38.91,0,0,0,8.11-10.7,11.81,11.81,0,0,0,1.39-5.37c0-.83-.27-1-1-.67a6.91,6.91,0,0,0-2.22,1.68A36.8,36.8,0,0,0,370,803.5c-.79,1.48-1.44,3-2.09,4.6-.33-1.67-.58-3.33-.83-5a.67.67,0,0,1,.32-.67,31.25,31.25,0,0,0,7.3-8.08,27.14,27.14,0,0,0,4-8.05c.14-.55.24-1.15-.33-1.51a1.28,1.28,0,0,0-1.47.23,13.63,13.63,0,0,0-2.68,2.63,56.81,56.81,0,0,0-5.5,9.65,34,34,0,0,1-1.93,3.62c-.33-1.78-.61-3.38-.94-5a1.72,1.72,0,0,1,.45-1.67c1.42-1.59,2.84-3.18,4.19-4.83a39.23,39.23,0,0,0,6.86-11.23,5.7,5.7,0,0,0,.52-2.64.94.94,0,0,0-1.43-.85,4.78,4.78,0,0,0-1.14.8,18.7,18.7,0,0,0-3,3.64,64,64,0,0,0-5.13,10.15c-.52,1.18-1.1,2.33-1.65,3.49-.7-2.36-1.19-4.66-1.71-7C363.8,785.46,364.09,785.31,364.39,785.12Z"/><path id="Path_2073-4" data-name="Path 2073-4" class="cls-7" d="M384.77,750.92c-1-1.92-1.95-3.91-2.89-5.88a55.32,55.32,0,0,0-6.33-10.86c-.17-.21-.52-.42-.32-.75s.5-.16.76-.13c1.68.21,3.26.84,4.9,1.21a7.11,7.11,0,0,0,2.68.19.76.76,0,0,0,.71-.47c.12-.38-.21-.54-.45-.7a24.9,24.9,0,0,0-3.59-1.67c-.41-.18-.81-.38-1.22-.59-.22-.11-.47-.23-.43-.52s.34-.29.56-.37a4.88,4.88,0,0,1,2.68,0c2.57.5,4.82.1,6.61-2a26,26,0,0,0,2.58-3.66,4.09,4.09,0,0,0,.49-3,1.42,1.42,0,0,0-1.41-1.24c-1.68-.18-3.17.57-4.72,1-2.55.72-5.08,1.5-7.78,1.29a6.68,6.68,0,0,1-3.07-1c-1-.61-1-1.27,0-1.88a4.13,4.13,0,0,1,1.65-.4,6.77,6.77,0,0,1,.9,0c5.28.06,9.06-2.77,12.34-6.47a7.85,7.85,0,0,0,1.46-4.3,12.18,12.18,0,0,0-.33-5.66c-1.14-3.27-3.63-5.08-7.09-2.53-2.37,1.74-4.07,4.16-6.23,6.13a17.9,17.9,0,0,1-4.43,3.35,6.45,6.45,0,0,1-4.21.51c-.35-.08-.87,0-1-.5s.32-.61.59-.84a18.4,18.4,0,0,1,4.07-2.48c2.13-1,4.34-1.93,6.45-3,2.44-1.26,4.32-3.05,4.73-6a5.91,5.91,0,0,0-.72-3.57,27.07,27.07,0,0,0-5.57-7.59c-1.7-1.6-4.19-1.52-6.22.13a26.41,26.41,0,0,0-4.45,4.93c-1.48,2-2.93,4.05-4.39,6.06a6.15,6.15,0,0,1-1.43,1.36c-.16.12-.29.37-.53.25s-.15-.42-.09-.64a10.32,10.32,0,0,1,2.37-4.1c1.09-1.24,2.24-2.43,3.26-3.73a7.19,7.19,0,0,0,1.54-6,13.28,13.28,0,0,0-7.2-9.62c-1.79-1-3.11.19-3.76,1.59a21,21,0,0,0-1.33,5.58c-.38,2.22-.92,4.36-2.59,6-.48.48-1,1.21-1.7.85s-.41-1.23-.24-1.9a19.07,19.07,0,0,1,2.54-5.16,14.4,14.4,0,0,0,2.15-5.59,5.18,5.18,0,0,0-1.54-4c-2-2.22-4.59-2.58-7.36-2.05s-3,.78-2.68,3.71c.26,2.39.93,4.73.87,7.15,0,.87-.12,1.74-.21,2.61,0,.32-.09.7-.49.78s-.54-.18-.74-.42a16.07,16.07,0,0,1-2.11-4.25c-1-2.45-1.54-5-2.9-7.36-2.6-4.43-8.91-3.92-11.34-.21-1,1.55-.84,3.54.65,5.32a14.72,14.72,0,0,0,3.17,2.88,29.77,29.77,0,0,1,3.64,2.56c1.34,1.2,2.92,2.29,3.06,4.38a1.66,1.66,0,0,1-1.26,2l-.15,0a5.7,5.7,0,0,1-4.31-1.14,48.3,48.3,0,0,0-5.95-3.74c-1.67-.8-3.74-.63-4.57,1.08a8.36,8.36,0,0,0-.67,4,16,16,0,0,0,1.86,7.09c1.71,3.17,4,4.73,7.94,3.52,2.47-.74,4.88-1.67,7.32-2.52a8.25,8.25,0,0,1,2.74-.5,1.09,1.09,0,0,1,1.12.59,1.14,1.14,0,0,1-.23,1.33,7,7,0,0,1-3.41,1.91,31.89,31.89,0,0,1-9.15,1.37,8.28,8.28,0,0,0-3.51.59,2.75,2.75,0,0,0-1.78,2.59,12,12,0,0,0,3.16,8.45,7.11,7.11,0,0,0,7.15,1.73,17.17,17.17,0,0,0,7.51-4.62,22.75,22.75,0,0,1,4.77-3.68,4.48,4.48,0,0,1,2.14-.63,1.26,1.26,0,0,1,1.47,1,1.22,1.22,0,0,1-.18.91,10.58,10.58,0,0,1-3,3.51c-2.63,2.33-5.93,3.22-9.19,4.19a23.08,23.08,0,0,0-5.56,2.05,2.64,2.64,0,0,0-1.21,3.53l0,.06a12,12,0,0,0,2,3.12,26.93,26.93,0,0,0,4.56,4.43c2.67,2.12,4.87,1.74,7.3-.29a35.2,35.2,0,0,0,5.18-6.11,17.87,17.87,0,0,1,4.23-4.27,2.19,2.19,0,0,1,.37-.25c.55-.22,1.12-.61,1.67-.08s.25,1.08,0,1.59a18.31,18.31,0,0,1-5.78,6.67c-2.81,2-5.72,4-8,6.69-1.52,1.81-1.28,3.62.61,5a15.44,15.44,0,0,0,6.1,2.66,7.1,7.1,0,0,0,4.87-.65c2.79-1.47,5.12-3.37,6.21-6.47.52-1.47,1-3,1.61-4.4a5.77,5.77,0,0,1,1.76-2.58c1-.72,1.55-.47,1.75.7a5.55,5.55,0,0,1-.9,4.13c-1.8,2.63-3.68,5.2-5.52,7.8a12.55,12.55,0,0,1-2.07,1.71,2,2,0,0,0,.55,3.61,9.71,9.71,0,0,0,10.56-1.76,14.14,14.14,0,0,0,4.24-6.84,8.18,8.18,0,0,1,.88-2.17c.45-.69.92-.69,1.41,0a51.67,51.67,0,0,1,5.38,9.88q1.83,4.17,3.67,8.33a10.38,10.38,0,0,1,.58,1.79,1,1,0,0,0,1.13.93,1.06,1.06,0,0,0,.51-.19,1.7,1.7,0,0,0,1.05-2.15,1.77,1.77,0,0,0-.16-.34c-.17-.35-.36-.69-.55-1A5.07,5.07,0,0,1,384.77,750.92ZM373.45,732c.26.39.3.67.06.81s-.6-.11-.82-.33l-.11-.15A90.29,90.29,0,0,1,365.81,722a120.24,120.24,0,0,0-7.14-11.49c-2.73-3.58-5.62-7-8.46-10.53a151.39,151.39,0,0,1-10.33-14.08,55.6,55.6,0,0,0-3.55-5.21,24.08,24.08,0,0,0-3-3.2c-.23-.2-.51-.42-.21-.74s.55-.16.8.07l.4.36a24.94,24.94,0,0,1,4.64,5.6c2.26,3.51,4.54,7,7,10.36q4,5.42,8.39,10.58a94.84,94.84,0,0,1,8.85,12C366.5,721.26,369.42,726.94,373.45,732Zm-11.76-23.31a2.25,2.25,0,0,1-.29.17c-1.3.67-1.85.43-2-1a5.29,5.29,0,0,1,2.24-5,1.56,1.56,0,0,1,2.2.17,1.52,1.52,0,0,1,.24.38,2.78,2.78,0,0,1,.11,2.75,5.36,5.36,0,0,1-2.49,2.53Zm-8.23,2.38a7,7,0,0,1,2.72-1c.86-.09,1.21.27,1,1.09a6,6,0,0,1-2.21,3.6,2.7,2.7,0,0,1-3,.15,1.37,1.37,0,0,1-.63-1.84l.09-.16A5.52,5.52,0,0,1,353.46,711.1Zm17.19,7a10.22,10.22,0,0,1-2.77.79c-.85.16-1.06,0-.94-.89a5.57,5.57,0,0,1,3-4.34,1.37,1.37,0,0,1,1.66.27c1.29,1.16,1,3-1,4.17Zm-9.07,5.31a6.84,6.84,0,0,1-1.06.5,1.72,1.72,0,0,1-1.95-.58,1.36,1.36,0,0,1-.16-1.67,5.77,5.77,0,0,1,4.88-2c.76.18,1,.58.59,1.24A6.71,6.71,0,0,1,361.58,723.43ZM342,694.19c-2.13,1.26-3.62.65-5-.73-.41-.41-.31-.73.24-.93.79-.29,1.56-.63,2.35-.91a3.22,3.22,0,0,1,2.87,0c1.15.68,1.18,1.15.16,2l-.62.51ZM376,728a3.93,3.93,0,0,1-3.3-.08c-.41-.14-.35-.51-.31-.84a3.41,3.41,0,0,1,3.41-2.87,1.48,1.48,0,0,1,1.53,1.42,1.62,1.62,0,0,1,0,.22A2.57,2.57,0,0,1,376,728Zm-31.9-24.6c-.27-.52.08-1,.64-1.41a5.48,5.48,0,0,1,2.57-1c.66-.08,1.48-.38,1.91.32s0,1.47-.38,2.1C347.9,704.94,345,705,344.1,703.37Zm9.66-4.06-.39.22c-.94.53-1.26.41-1.57-.59a2.57,2.57,0,0,1,1.69-3.21,2.67,2.67,0,0,1,1.43,0,1.14,1.14,0,0,1,1.07,1.23,1.2,1.2,0,0,1-.33.74,5.86,5.86,0,0,1-1.9,1.64Zm-6.43-12.22a3.26,3.26,0,0,1-.21,3.8c-.35.42-.64.46-1.05.11a4,4,0,0,1-1.41-2.73,1.8,1.8,0,0,1,1.17-1.82,1.06,1.06,0,0,1,1.42.42c0,.07.05.14.08.22Zm21.6,45.38a1.72,1.72,0,0,1-2.27-.26c-.4-.65.1-1.86,1-2.36s1.76-.43,2,.07a1.88,1.88,0,0,1-.72,2.55Z"/><path id="Path_2075" data-name="Path 2075" class="cls-8" d="M323.53,750.54c1.4,6.45.25,12.82-.54,19.21-.22,1.79-.38,3.59-.51,5.39a3,3,0,0,0,.61,2.25c.46.59.85,1.23,1.38,2,0-1.51.06-2.83.12-4.14.14-3,.67-5.91.91-8.87.1-1.24.05-2.5.1-3.75a5.61,5.61,0,0,1,.84-3c.12-.17.24-.4.53-.31s.26.33.27.55a16.57,16.57,0,0,0,.39,3.21c1.21,5.2.6,10.39-.11,15.58-.16,1.13-.38,2.25-.59,3.37a1,1,0,0,0,.14.94c.87,1.07,1.74,2.16,2.66,3.32a2,2,0,0,0-.12-1.14,36.66,36.66,0,0,1-.34-9.3c.11-1.86.24-3.72.3-5.58a26.51,26.51,0,0,0-.2-4.54c0-.32-.23-.8.21-1s.63.34.82.65a6.64,6.64,0,0,1,.9,3.51c0,4.9.83,9.74.95,14.63A28.14,28.14,0,0,1,332,788a1.19,1.19,0,0,0,.31,1.06c.77.83,1.52,1.69,2.25,2.51.22-.05.19-.16.16-.26-1.11-4.6-1-9.26-.71-13.94.11-1.91.38-3.81.33-5.74,0-.33,0-.81.44-.83s.39.44.49.74a29.74,29.74,0,0,1,1,3.85c.65,3.87,1.42,7.75,1,11.73a41.29,41.29,0,0,0-.21,6.58c0,.24-.06.53.13.72,1.3,1.31,2.6,2.61,4,4l-.57-1.56a38,38,0,0,1-1.71-14.32c.11-2.82.34-5.64.53-8.46,0-.28-.08-.69.36-.72s.44.37.47.66c.39,3.41,1.87,6.6,2.07,10.05.17,3,0,6,.08,9,0,2.28.25,4.55.5,6.81a1.77,1.77,0,0,0,.57,1.15c.94.9,1.84,1.83,2.76,2.75.08-.1.14-.15.13-.18-1.79-5.26-2.08-10.72-2.16-16.2l-.12-7.75a9,9,0,0,1-.08-1.64c.05-.3.16-.47.43-.5s.32.27.39.41a39.53,39.53,0,0,1,3.92,17c0,1.81.08,3.61.07,5.42a49.71,49.71,0,0,0,.89,6.43.74.74,0,0,0,.28.48l7,6a1.77,1.77,0,0,0,.31.15c.08-.3-.1-.49-.19-.7a22.78,22.78,0,0,1-1.72-7.18c-.28-3.63-.67-7.25-.64-10.9a17.69,17.69,0,0,1,.47-4.29c.06-.24.1-.54.41-.55s.35.35.39.62c.22,2,.5,4,.65,5.94a82.13,82.13,0,0,0,1.82,9.73,22.12,22.12,0,0,1,.29,7.78,1,1,0,0,0,.49,1.17,51.37,51.37,0,0,0,5.94,3.5,30.21,30.21,0,0,1,3.94,2.56,1.67,1.67,0,0,1,.63,1.3c0,.51-.36.65-.65.86s-.53,0-.7-.25c-.67-.82-1.43-1.56-2.07-2.41-1.22-1.6-3.13-2.28-4.84-3.2a16.89,16.89,0,0,1-2.48-1.64,2.21,2.21,0,0,0-1.82-.64c-2,.33-4,.4-6,.84-2.35.51-4.72.87-7.1,1.25a35.9,35.9,0,0,1-5.08.08c-2.65,0-5.2-.84-7.84-.77-.28,0-.62,0-.59-.42s.36-.31.6-.28a13.21,13.21,0,0,0,5.07-.67,61.87,61.87,0,0,1,14.1-2.42,37.39,37.39,0,0,1,5.07.29c-1.51-1.68-3.1-2.86-5.44-2.77a28.44,28.44,0,0,0-5.44.71,34.7,34.7,0,0,1-11.07,1.12,41.94,41.94,0,0,1-7.8-1.3c-.28-.08-.69-.11-.59-.53s.44-.24.71-.26c3.32-.29,6.61-.78,9.9-1.24,1.29-.18,2.59-.31,3.87-.57a18.38,18.38,0,0,1,8.5.42,8.38,8.38,0,0,0,2.68.41c-.89-.89-1.58-2-3-2.23a49.35,49.35,0,0,0-8.65-1c-2.59-.05-5.18-.11-7.77,0-2.06.08-4.12,0-6.18,0a17,17,0,0,1-5.7-1.3,5.07,5.07,0,0,1-.54-.36.37.37,0,0,1-.21-.48h0c.08-.18.26-.19.43-.19h1.5c5.65,0,11.27-.55,16.9-.87a17.2,17.2,0,0,1,7.38,1.1,5.68,5.68,0,0,0-3.26-2.63,31.49,31.49,0,0,0-8.23,0,36.27,36.27,0,0,1-11.2-.32c-3-.67-6-1.61-9-2.17-.24,0-.54-.1-.5-.44s.27-.32.51-.3c5.76.45,11.5-.32,17.25-.19a31.55,31.55,0,0,1,9.91,1.66c.09,0,.19.14.47-.15-1.38-1.38-2.78-2.76-4.15-4.16-.31-.31-.59-.18-.91-.11-2.38.54-4.76,1.1-7.17,1.53a25.64,25.64,0,0,1-10.75-.33c-2.69-.67-5.36-1.45-8.12-1.88-.25,0-.62,0-.56-.46s.42-.31.67-.25c4.47,1,9,.54,13.44.14a46.51,46.51,0,0,1,11.73,0,1,1,0,0,0,.29-.07c-1.22-1.36-2.41-2.67-3.58-4-.33-.37-.67-.13-1-.06a29,29,0,0,1-14.6-.1c-2-.54-3.8-1.41-5.69-2.14-1.24-.48-2.51-.89-3.77-1.33-.23-.08-.53-.17-.42-.5s.39-.25.63-.17c4.37,1.59,8.92,1.32,13.45,1.2a31.06,31.06,0,0,1,9,.9,3,3,0,0,0,.43,0c-1-1.2-1.94-2.28-2.77-3.45a1.79,1.79,0,0,0-2.06-.81,24.66,24.66,0,0,1-11.48-1.36,35.32,35.32,0,0,1-8.06-3.73,17.73,17.73,0,0,0-2.74-1.41c-.26-.11-.7-.17-.53-.59s.54-.14.79,0a41.32,41.32,0,0,0,10.72,2.68c2,.23,3.93.3,5.91.38a13.68,13.68,0,0,1,4.38.81c-.6-.93-1.07-1.63-1.51-2.35-.21-.33-.52-.26-.82-.26a29.58,29.58,0,0,1-10.37-1.82,23.43,23.43,0,0,1-4-1.94,55,55,0,0,0-6-2.91,2,2,0,0,1,.43-1.19,65,65,0,0,0,9,2.29,26.62,26.62,0,0,1,8.7,2.7,4.28,4.28,0,0,0,1.39.68c-.69-1.24-1.37-2.4-2-3.6a1.54,1.54,0,0,0-1-.81c-5.12-1.64-9.84-4.19-14.69-6.45a9.6,9.6,0,0,1,.23-2.88c4.81,1.92,9.55,4,13.76,7.22a1.65,1.65,0,0,0-.65-1.24c-1.58-1.56-3.26-3-4.7-4.73a47.36,47.36,0,0,1-3.33-4.52,52.16,52.16,0,0,1-3.36-5.55,16.21,16.21,0,0,1-1.42-3.35c-.06-.24-.19-.5.06-.69s.45,0,.67.14a18.28,18.28,0,0,1,4.11,3.74c1.64,1.88,3.24,3.8,4.74,5.8a24.41,24.41,0,0,1,3.64,6.42,2.27,2.27,0,0,0,.19.34,1.29,1.29,0,0,0,.11-1c-.28-3.51-.48-7-.44-10.53,0-1.8.17-3.61.35-5.4a3.42,3.42,0,0,1,.45-1.12c.16-.32.42-.26.61.08a4.5,4.5,0,0,1,.4,1.53A85.62,85.62,0,0,1,320,759.8a34.05,34.05,0,0,1-.82,10.26.72.72,0,0,0,0,.56l1.59,2.89a3.06,3.06,0,0,0,0-1.38c-.21-2.73.28-5.44.35-8.16.08-3.36.2-6.71.6-10.06a21.94,21.94,0,0,1,1-3.55.6.6,0,0,1,.59-.5C323.74,750,323.48,750.34,323.53,750.54Z"/><path id="Path_2080" data-name="Path 2080" class="cls-9" d="M263.2,899a9.18,9.18,0,0,1,1.22-3.32c2.29-3.69,5.82-5.85,9.56-7.73a79.51,79.51,0,0,1,17.56-5.87,2.64,2.64,0,0,0-1.81-.71,22.79,22.79,0,0,0-9.55.36c-4.61,1.18-9.16,2.56-13.78,3.69-5.55,1.35-11.06,1.39-16.38-1.12a30.12,30.12,0,0,1-16.7-19.73,44,44,0,0,0-2.79-8.2c-.81-1.56-.37-2.75,1.09-3.79a8.09,8.09,0,0,1,4.72-1.39c3.92,0,7.85-.07,11.77.1,6.32.27,12.62,1,19,.62l.27,0a26,26,0,0,0,10-2.25c2.23-1.11,2.37-2.18.69-4-2.25-2.38-5.24-2.57-8.21-2.82a38.2,38.2,0,0,0-11,.8c-3.11.64-6.18,1.55-9.25,2.49a44.23,44.23,0,0,1-13.09,2.48c-5.52,0-8.39-2.13-10.3-7.3-1.5-4.08-2-8.43-3.42-12.53a2.32,2.32,0,0,1,.52-2.48,12.22,12.22,0,0,1,4.78-3.57c2.19-.76,4.39-1.46,6.61-2.15l.86-.25c3.55-1,7.21-1.54,10.68-2.82.54-.2,1.31-.34,1.35-1s-.71-1-1.31-1.27a14.65,14.65,0,0,0-6.1-1.07,22,22,0,0,0-9.28,1.5,12.46,12.46,0,0,0-3.11,2,15.49,15.49,0,0,1-4.39,2.69,5.92,5.92,0,0,1-6.8-1.33,14.83,14.83,0,0,1-3.16-4.91c-2.7-6-7.61-9.66-13.31-12.45a23.42,23.42,0,0,0-6.77-1.87c-.93-.14-1.79-.32-1.76-1.51s1.06-1.18,1.8-1.23c4.22-.35,7.82-2.21,11.25-4.49,3.2-2.12,6.19-4.66,9.62-6.3a39.4,39.4,0,0,1,8.46-3.17,19,19,0,0,1,5.16-.44c4.53.24,8.73,1,12,4.57,2,2.13,4.29,3.93,6.07,6.18,2.24,2.82,4.6,5.36,8,6.78,1.75.73,2.45.3,2.35-1.63a13.93,13.93,0,0,0-2.2-7.22c-1.38-2.06-3.24-3.74-4.45-5.94-2-3.66-1.38-6.29,2.23-8.35a33.19,33.19,0,0,1,5.61-2.52,51.55,51.55,0,0,1,10.11-2.28c2.7-.36,5.57-.33,7.88,1.31a31.46,31.46,0,0,1,9.35,10.61,23.79,23.79,0,0,1,2.64,12.66,76.86,76.86,0,0,0,.06,7.74,33.68,33.68,0,0,0,.79,5.39c1.24,5.27,2.47,10.55,6.85,14.36a4,4,0,0,0,3.78.77c1.14-.24,1.16-1.35,1.33-2.28a16.92,16.92,0,0,0,0-5.5c0-.41-.12-.82-.18-1.22-1.42-9.12-4.42-17.83-6.86-26.69-.6-2.19-1.31-4.38-1-6.71a2.85,2.85,0,0,1,1.85-2.61,14.4,14.4,0,0,1,3.1-.79c6.38-.73,12.76-1.42,19.22-.75s12.51,2.31,17.35,6.91c3,2.87,5,6.32,4.74,10.64a41.87,41.87,0,0,1-3.45,13.47,98.77,98.77,0,0,0-6.07,17.87,14.38,14.38,0,0,0-.39,6.52c.2.82.52,1.76,1.43,1.84s.87-1,1.23-1.55a5,5,0,0,0,.37-1c2.1-5.56,3.3-11.44,6-16.78,2.93-5.85,6.75-10.55,14.08-10.61a3.38,3.38,0,0,1,1.88.31,9.46,9.46,0,0,1,4.07,4.32A52.15,52.15,0,0,1,360.07,845a26.22,26.22,0,0,1-10,14.4,35.73,35.73,0,0,1-4.73,3c-2.17,1.16-4.42,2.19-6.64,3.26-.91.44-1.38.74-.54,1.78,2.7,3.34,5.67,6.46,8.31,9.84.43.56.86,1.13,1.28,1.7,1.21,1.69,2.83,3.08,4,4.72,3.38,4.54,7,8.89,10.69,13.16,1.5,1.72,3.08,3.43,3.52,5.84a2.17,2.17,0,0,1-1,2.56c-1.71,1.12-3,1-4.69-.56a45.48,45.48,0,0,1-7.29-9.23,131.92,131.92,0,0,0-10.35-14.41c-3.15-3.85-6.45-7.57-9.82-11.25-.27-.29-.5-.79-1-.65s-.4.79-.42,1.22a60.66,60.66,0,0,1-2.12,12.19,51.36,51.36,0,0,1-3.44,8.87,35.12,35.12,0,0,1-8.44,10.81l-.51.46a29.11,29.11,0,0,1-7.77,5.42,62.72,62.72,0,0,1-14.47,4.09,26.65,26.65,0,0,1-18.61-3.59,51.79,51.79,0,0,0-10.19-5.07C263.45,902.75,262.73,901.53,263.2,899ZM260.44,787.8a24.69,24.69,0,0,0,9.87-.4,14.86,14.86,0,0,0,2.66-1c.22-.12.42-.25.63-.39a3,3,0,0,0-.19-4.22,2.51,2.51,0,0,0-.32-.25,5.91,5.91,0,0,0-3.31-1.17,14.45,14.45,0,0,0-5.87.7,13,13,0,0,0-3.24,1.68,3.89,3.89,0,0,0-1.69,3,1.75,1.75,0,0,0,1.32,2.1A.34.34,0,0,1,260.44,787.8Zm53.43.48a20.48,20.48,0,0,0-7.64-2.27c-4-.22-6.3,2.08-5.52,6,.87,4.43,3.31,8.21,5.72,12a4,4,0,0,0,2.89,1.24,1.92,1.92,0,0,0,2.17-1.63,2.55,2.55,0,0,0,0-.39,6.74,6.74,0,0,0,0-1.42c-.42-2.77.88-4.63,3-6.16C318.88,792.56,318.7,790.59,313.87,788.28Zm5.85,34.41c1.46.42,2.49-.37,3.5-1.34,2.64-3.74,4.56-7.7,3.87-12.5a5.37,5.37,0,0,0-1.07-2.41,2.65,2.65,0,0,0-3.66-.8,2.78,2.78,0,0,0-.74.71,19.74,19.74,0,0,0-4.32,11.26,8.44,8.44,0,0,0,.17,1.94C317.75,820.93,318.19,822.24,319.72,822.69ZM219.19,811.37c-.55,1.32,0,2,1.19,2.44a3.67,3.67,0,0,0,3.83-.66A7.46,7.46,0,0,0,227,807.6a2.35,2.35,0,0,0-1.27-2.53,2.32,2.32,0,0,0-2.7.81l-.74.74-.22.24A15.6,15.6,0,0,0,219.19,811.37Zm.33-17.48c-.36,0-.79.06-.66.48l.06.14h0a2.23,2.23,0,0,0,1.1.73c.55.25,1.09.46,1.63.67l.85.34a268.88,268.88,0,0,1,31.18,15h0q7.32,4,14.63,8.48c10.64,6.41,21.07,13.49,31.31,21q8.64,6.36,17.05,13.07,7,5.55,13.76,11.35c1.79,1.53,2.59,1.76,3.3,1s.32-1.86-1.42-3.33c-2.77-2.34-5.56-4.65-8.34-7a368.48,368.48,0,0,0-40.33-30C272,818.5,260.27,811,248.37,804.79A152.28,152.28,0,0,0,234,798.2a114.17,114.17,0,0,0-11.8-3.94h0A10.47,10.47,0,0,0,219.52,793.89Zm113.06,69h0l0,0c.12,0,.18-.07-.09-.09l0,0C332.68,862.87,332.68,862.88,332.58,862.87ZM293.13,862a9.81,9.81,0,0,0,10.41-1.86,4.64,4.64,0,0,0,1-5.82c-.32-.59-.74-1.12-1.37-.76-2.54,1.52-5.51,1.33-8.21,2.16a6,6,0,0,0-2.64,1.39C290.57,858.89,290.89,860.9,293.13,862Zm-23.79-4.32a6.22,6.22,0,0,0-2.89-.78,34.81,34.81,0,0,0-10.89,1.23c-1.19.3-2.51.73-2.65,2.26s1.11,2.19,2.24,2.65c4.67,1.93,9.35,2.56,14-.21l.67-.41a2.9,2.9,0,0,0,.36-4.09,3.22,3.22,0,0,0-.81-.65Zm24.83,46.16a10,10,0,0,0,4.46-2.45c2.37-2,4.54-4.36,7.65-5.36a1.35,1.35,0,0,0,1.11-1.43,1.66,1.66,0,0,0-1.62-1.4,27.23,27.23,0,0,0-8-.13c-1.88.22-3.75.56-5.64.68s-3.5.18-4.27,2.15a5.72,5.72,0,0,0,.92,6,1.88,1.88,0,0,0,.24.25h0a5,5,0,0,0,5.11,1.69Z"/><path id="Path_2078" data-name="Path 2078" class="cls-10" d="M50.82,713.44c-5.64,2.91-11.84,3.43-18,4.27-1.72.24-3.43.54-5.14.87a2.94,2.94,0,0,0-1.94,1.12c-.43.57-.93,1.09-1.52,1.78,1.41-.34,2.64-.65,3.88-.92,2.8-.6,5.65-.84,8.46-1.37,1.18-.22,2.33-.58,3.5-.84a5.28,5.28,0,0,1,3,0c.19.07.43.13.42.41s-.24.32-.44.39a15.63,15.63,0,0,0-2.88,1.16c-4.53,2.42-9.49,3.15-14.49,3.78-1.09.14-2.18.21-3.27.29a1,1,0,0,0-.83.36c-.78,1.08-1.58,2.15-2.42,3.3a2,2,0,0,0,1-.39,35.13,35.13,0,0,1,8.55-2.63c1.75-.36,3.51-.71,5.25-1.11a26.09,26.09,0,0,0,4.16-1.31c.29-.12.68-.42.94,0s-.16.67-.4.92a6.38,6.38,0,0,1-3,1.71c-4.55,1.23-8.84,3.19-13.35,4.52a26.53,26.53,0,0,1-4.24.85,1.13,1.13,0,0,0-.9.55c-.58.93-1.19,1.83-1.77,2.71.1.2.2.13.29.09,4-2.18,8.36-3.21,12.76-4.13,1.8-.37,3.64-.59,5.41-1.12.31-.09.74-.23.88.21s-.31.47-.57.64a27.17,27.17,0,0,1-3.33,1.86c-3.43,1.57-6.84,3.25-10.65,3.84a40.51,40.51,0,0,0-6.16,1.44c-.22.07-.5.07-.63.3l-2.7,4.66,1.31-.92a36.36,36.36,0,0,1,12.87-5.14c2.65-.6,5.32-1.09,8-1.61.26-.05.62-.24.76.16s-.23.5-.5.61c-3.07,1.21-5.66,3.38-8.82,4.42-2.74.91-5.56,1.53-8.34,2.32-2.11.6-4.16,1.36-6.2,2.16a1.76,1.76,0,0,0-.93.81c-.6,1.09-1.24,2.17-1.87,3.25.11,0,.18.09.2.08,4.44-3,9.43-4.6,14.51-6l7.17-2a7.72,7.72,0,0,1,1.5-.48c.29,0,.48,0,.57.28s-.17.36-.29.46a38.4,38.4,0,0,1-14.83,7.88c-1.68.44-3.33,1-5,1.41a47.55,47.55,0,0,0-5.75,2.42.71.71,0,0,0-.38.38L.86,760a1.14,1.14,0,0,0-.07.32c.29,0,.43-.21.6-.34a22.19,22.19,0,0,1,6.23-3.39c3.3-1.16,6.56-2.42,10-3.3a16.75,16.75,0,0,1,4.1-.63c.24,0,.52,0,.61.24s-.24.42-.48.51c-1.78.7-3.55,1.45-5.36,2.08a77.68,77.68,0,0,0-8.58,4.12,21.21,21.21,0,0,1-7.16,2.2,1,1,0,0,0-1,.75A50.38,50.38,0,0,0-2,769a28.4,28.4,0,0,1-1.4,4.3,1.62,1.62,0,0,1-1,.91c-.46.16-.69-.18-1-.39s-.09-.51.06-.72c.59-.83,1.09-1.71,1.72-2.53,1.18-1.53,1.34-3.47,1.77-5.29a16.88,16.88,0,0,1,.9-2.71,2.11,2.11,0,0,0,.14-1.85c-.81-1.78-1.38-3.65-2.28-5.39-1.06-2-2-4.17-2.92-6.28a34.82,34.82,0,0,1-1.34-4.69c-.7-2.45-.52-5-1.24-7.47-.08-.26-.11-.59.25-.65s.37.25.41.49a12.76,12.76,0,0,0,1.88,4.54A60.07,60.07,0,0,1-.32,753.71a35.57,35.57,0,0,1,1,4.78c1.18-1.82,1.89-3.59,1.22-5.74a27,27,0,0,0-2-4.88,33.53,33.53,0,0,1-3.79-10,41,41,0,0,1-.74-7.57c0-.28-.07-.66.35-.68s.33.35.42.59c1.1,3,2.37,5.94,3.61,8.88.49,1.16.94,2.33,1.49,3.45a17.65,17.65,0,0,1,1.72,8,8.41,8.41,0,0,0,.28,2.59c.61-1,1.42-2,1.33-3.3a46.42,46.42,0,0,0-1.2-8.29c-.59-2.42-1.18-4.84-1.93-7.22-.59-1.89-1.06-3.82-1.52-5.74A16,16,0,0,1-.32,723a4.1,4.1,0,0,1,.2-.59.36.36,0,0,1,.39-.32h0c.19,0,.24.2.28.35.13.46.25.93.38,1.39,1.43,5.24,3.31,10.33,5,15.47a16.41,16.41,0,0,1,.81,7.12,5.44,5.44,0,0,0,1.63-3.68,30.19,30.19,0,0,0-2-7.65,34.73,34.73,0,0,1-2.49-10.48c-.13-3,0-5.93-.23-8.89,0-.24,0-.52.28-.57s.37.17.41.4c1,5.45,3.16,10.59,4.46,16a30.21,30.21,0,0,1,.92,9.61c0,.09-.08.21.26.4.94-1.63,1.87-3.26,2.83-4.89.21-.36,0-.59-.13-.87-1.1-2.08-2.21-4.15-3.2-6.28A24.7,24.7,0,0,1,7.12,719.4c0-2.67,0-5.34-.27-8,0-.25-.11-.59.29-.63s.39.31.4.56c.17,4.4,1.72,8.45,3.21,12.52a45.13,45.13,0,0,1,3,10.87,1.43,1.43,0,0,0,.14.25l2.81-4.32c.26-.4-.05-.66-.2-.94a27.81,27.81,0,0,1-3.54-13.57c0-1.95.36-3.88.57-5.81.14-1.27.2-2.55.3-3.83,0-.24,0-.53.36-.51s.33.3.31.55c-.39,4.46,1,8.61,2.23,12.78a29.47,29.47,0,0,1,1.4,8.59,1.77,1.77,0,0,0,.08.4c.87-1.21,1.63-2.37,2.51-3.43a1.71,1.71,0,0,0,.24-2.11,23.75,23.75,0,0,1-1.59-11,33.86,33.86,0,0,1,1.46-8.41,16.71,16.71,0,0,0,.62-2.89c0-.27,0-.69.41-.64s.26.47.23.72a40.18,40.18,0,0,0,.18,10.62c.28,1.88.7,3.73,1.12,5.58a13.31,13.31,0,0,1,.34,4.27l1.8-2c.26-.27.11-.55,0-.82a28.32,28.32,0,0,1-.89-10.08,23.53,23.53,0,0,1,.81-4.16,51.55,51.55,0,0,0,1.21-6.28,2,2,0,0,1,1.21.1,63.79,63.79,0,0,0,.12,9,25.73,25.73,0,0,1-.34,8.75,4.21,4.21,0,0,0-.29,1.45c1-1,1.89-1.87,2.85-2.74a1.47,1.47,0,0,0,.51-1.11c.25-5.17,1.44-10.18,2.34-15.25a9.4,9.4,0,0,1,2.73-.5c-.58,4.94-1.3,9.86-3.28,14.57a1.6,1.6,0,0,0,1-.91c1.06-1.86,2-3.79,3.22-5.53a45.48,45.48,0,0,1,3.37-4.22,49.5,49.5,0,0,1,4.31-4.5,15.15,15.15,0,0,1,2.76-2.15c.21-.11.42-.3.65-.11s.1.42,0,.66a18,18,0,0,1-2.45,4.75c-1.33,2-2.72,4-4.2,5.84a23.61,23.61,0,0,1-5,5,2.23,2.23,0,0,0-.27.26,1.29,1.29,0,0,0,1-.14c3.18-1.14,6.39-2.2,9.67-3,1.68-.43,3.39-.73,5.1-1a3.43,3.43,0,0,1,1.15.14c.34.07.34.32.08.59a4.22,4.22,0,0,1-1.32.75,81.83,81.83,0,0,1-10.32,4.22,32.67,32.67,0,0,1-9.73,1.79.69.69,0,0,0-.52.16c-.72.7-1.45,1.39-2.29,2.19a2.91,2.91,0,0,0,1.29-.33c2.48-.88,5.12-1.09,7.66-1.7,3.14-.76,6.28-1.48,9.48-2a22,22,0,0,1,3.54,0,.58.58,0,0,1,.61.43C51.39,713.49,51,713.35,50.82,713.44Z"/><path id="Path_2071-3" data-name="Path 2071-3" class="cls-11" d="M42.08,824.5a6.13,6.13,0,0,0-.78-2.14c-1.48-2.37-3.74-3.76-6.15-5a51.52,51.52,0,0,0-11.29-3.78,1.73,1.73,0,0,1,1.16-.46,14.62,14.62,0,0,1,6.14.23c3,.76,5.89,1.65,8.86,2.37A15.4,15.4,0,0,0,50.55,815a19.39,19.39,0,0,0,10.74-12.68,28,28,0,0,1,1.79-5.27,1.71,1.71,0,0,0-.56-2.36l-.14-.08a5.18,5.18,0,0,0-3-.9c-2.52,0-5.05,0-7.56.07-4.06.18-8.11.67-12.19.4h-.17A16.83,16.83,0,0,1,33,792.76c-1.43-.71-1.52-1.4-.44-2.55,1.44-1.53,3.37-1.65,5.28-1.82a24.83,24.83,0,0,1,7.09.51c2,.41,4,1,5.95,1.6a28.39,28.39,0,0,0,8.41,1.59c3.54,0,5.4-1.37,6.62-4.69,1-2.62,1.28-5.42,2.2-8a1.51,1.51,0,0,0-.33-1.59,7.81,7.81,0,0,0-3.07-2.29c-1.41-.49-2.82-.94-4.25-1.38l-.55-.16c-2.28-.65-4.64-1-6.86-1.81-.35-.13-.84-.22-.87-.64s.46-.64.84-.82a9.23,9.23,0,0,1,3.92-.68,14.11,14.11,0,0,1,6,1,8.25,8.25,0,0,1,2,1.29A10.1,10.1,0,0,0,67.71,774a3.79,3.79,0,0,0,4.37-.86,9.51,9.51,0,0,0,2-3.16c1.74-3.88,4.89-6.21,8.56-8a15,15,0,0,1,4.35-1.2c.6-.09,1.15-.21,1.13-1S87.46,759,87,759a15.26,15.26,0,0,1-7.23-2.89,52.56,52.56,0,0,0-6.18-4.05,25.12,25.12,0,0,0-5.44-2,12.33,12.33,0,0,0-3.32-.28c-2.91.16-5.61.66-7.71,2.94-1.26,1.37-2.76,2.53-3.9,4A13.21,13.21,0,0,1,48.09,761c-1.13.47-1.58.19-1.51-1A8.89,8.89,0,0,1,48,755.33c.89-1.32,2.08-2.4,2.86-3.82,1.29-2.35.88-4-1.43-5.36a21.69,21.69,0,0,0-3.61-1.63,32.89,32.89,0,0,0-6.5-1.47,6.94,6.94,0,0,0-5.07.85,20.3,20.3,0,0,0-6,6.82,15.32,15.32,0,0,0-1.7,8.14,48.66,48.66,0,0,1,0,5,21.35,21.35,0,0,1-.51,3.47c-.8,3.39-1.59,6.78-4.4,9.23a2.64,2.64,0,0,1-2.43.5c-.73-.16-.74-.87-.86-1.46a11.06,11.06,0,0,1,0-3.54c0-.26.07-.52.12-.79.91-5.86,2.84-11.47,4.41-17.16a11.32,11.32,0,0,0,.67-4.31,1.81,1.81,0,0,0-1.19-1.68,9.69,9.69,0,0,0-2-.51A56.71,56.71,0,0,0,8,747.11c-4.16.43-8,1.48-11.15,4.44a8.48,8.48,0,0,0-3.05,6.84A26.78,26.78,0,0,0-4,767.05a62.88,62.88,0,0,1,3.9,11.48,9.28,9.28,0,0,1,.25,4.19c-.13.53-.33,1.13-.92,1.18s-.56-.63-.79-1a3.81,3.81,0,0,1-.24-.64c-1.35-3.57-2.12-7.35-3.84-10.79-1.88-3.76-4.34-6.78-9-6.82a2.21,2.21,0,0,0-1.21.2,6,6,0,0,0-2.62,2.78,33.48,33.48,0,0,0-1.65,22.21,16.86,16.86,0,0,0,6.44,9.25,23.88,23.88,0,0,0,3,1.91c1.39.75,2.84,1.4,4.27,2.1.59.29.89.47.35,1.14-1.73,2.15-3.64,4.15-5.34,6.33-.28.36-.55.72-.82,1.09-.78,1.08-1.82,2-2.61,3-2.17,2.92-4.49,5.72-6.87,8.46A8,8,0,0,0-24,826.9a1.4,1.4,0,0,0,.63,1.65,2.11,2.11,0,0,0,3-.28l.06-.08a28.91,28.91,0,0,0,4.68-5.94A84,84,0,0,1-9,813c2-2.48,4.15-4.87,6.31-7.23.17-.19.32-.51.63-.42s.26.51.27.79A38.44,38.44,0,0,0-.44,814a33.44,33.44,0,0,0,2.21,5.7,22.8,22.8,0,0,0,5.42,7l.33.3a18.58,18.58,0,0,0,5,3.48,40.12,40.12,0,0,0,9.3,2.63,17.14,17.14,0,0,0,12-2.31,33.35,33.35,0,0,1,6.55-3.26C41.92,826.92,42.38,826.15,42.08,824.5ZM43.85,753a15.93,15.93,0,0,1-6.34-.26,9.67,9.67,0,0,1-1.71-.68l-.4-.25a1.92,1.92,0,0,1,.13-2.71,1.56,1.56,0,0,1,.2-.16,3.82,3.82,0,0,1,2.13-.75,9.28,9.28,0,0,1,3.77.45,8.23,8.23,0,0,1,2.08,1.08,2.53,2.53,0,0,1,1.09,1.92A1.13,1.13,0,0,1,44,753Zm-34.34.32a13.17,13.17,0,0,1,4.91-1.46c2.6-.14,4,1.34,3.55,3.89-.56,2.85-2.13,5.28-3.68,7.68a2.56,2.56,0,0,1-1.86.8,1.23,1.23,0,0,1-1.4-1,2.09,2.09,0,0,1,0-.25,4.05,4.05,0,0,1,0-.92,3.89,3.89,0,0,0-1.95-4c-2.79-2-2.68-3.25.43-4.73ZM5.74,775.46a2.23,2.23,0,0,1-2.25-.86c-1.7-2.4-2.93-5-2.49-8A3.3,3.3,0,0,1,1.69,765,1.71,1.71,0,0,1,4,764.5a1.75,1.75,0,0,1,.48.46A12.67,12.67,0,0,1,7.3,772.2a5.72,5.72,0,0,1-.11,1.24,2.22,2.22,0,0,1-1.45,2Zm64.62-7.27c.35.85,0,1.28-.76,1.56a2.36,2.36,0,0,1-2.46-.43,4.8,4.8,0,0,1-1.2-1.45,4.9,4.9,0,0,1-.57-2.12,1.42,1.42,0,0,1,2.56-1.11l.47.47a1.07,1.07,0,0,1,.14.16,10.53,10.53,0,0,1,1.82,2.92ZM70.15,757c.23,0,.51,0,.42.31a.36.36,0,0,1,0,.09h0a1.46,1.46,0,0,1-.7.47c-.35.16-.7.3-1,.43l-.55.22a171.51,171.51,0,0,0-20,9.63h0q-4.71,2.61-9.41,5.45c-6.84,4.12-13.54,8.67-20.12,13.51q-5.55,4.08-11,8.4-4.47,3.57-8.85,7.3c-1.15,1-1.67,1.13-2.12.64s-.21-1.2.91-2.14Q.31,799,3,796.78a236.42,236.42,0,0,1,25.92-19.26c7.51-4.74,15-9.56,22.67-13.55a97.38,97.38,0,0,1,9.23-4.24,72.43,72.43,0,0,1,7.58-2.53h0a6.87,6.87,0,0,1,1.73-.24ZM-2.52,801.29h0l0,0c-.07,0-.11,0,.06-.06h0q-.13,0,0,0Zm25.36-.56a6.32,6.32,0,0,1-6.69-1.19,3,3,0,0,1-.64-3.75c.21-.38.48-.72.88-.49,1.63,1,3.54.85,5.28,1.39a3.82,3.82,0,0,1,1.7.89,1.78,1.78,0,0,1,.38,2.5,1.85,1.85,0,0,1-.91.65ZM38.13,798a3.92,3.92,0,0,1,1.86-.5,22.36,22.36,0,0,1,7,.79c.76.2,1.62.47,1.7,1.45s-.72,1.41-1.44,1.7c-3,1.24-6,1.65-9-.13l-.43-.26a1.86,1.86,0,0,1-.24-2.62,2,2,0,0,1,.53-.43Zm-16,29.67a6.48,6.48,0,0,1-2.87-1.57c-1.52-1.31-2.92-2.8-4.92-3.44a.87.87,0,0,1-.71-.92,1.07,1.07,0,0,1,1-.9,17.23,17.23,0,0,1,5.12-.08c1.21.14,2.41.36,3.62.44s2.25.11,2.75,1.38a3.68,3.68,0,0,1-.59,3.86,1.21,1.21,0,0,1-.16.16h0a3.22,3.22,0,0,1-3.28,1.07Z"/><path id="Path_2074-3" data-name="Path 2074-3" class="cls-12" d="M102.17,811.24c0-.25-.22-.28-.42-.32l-.41-.09A50,50,0,0,1,89.94,807a50.54,50.54,0,0,1-5.73-3.25,30.51,30.51,0,0,1-6.46-5.37c-.2-.22-.48-.41-.14-.75s.54-.2.83.06A25.75,25.75,0,0,0,88.64,803a25.3,25.3,0,0,0,10.73,1,13.55,13.55,0,0,0,4.83-1.63c.29-.17.52-.36.44-.7s-.43-.17-.63-.19c-1-.11-2,0-3,0-1.43-.07-2.85.17-4.29.05-1-.08-2,.22-2.93.07-1.37-.21-2.76-.28-4.12-.36a18.82,18.82,0,0,1-6.17-1.52,11.42,11.42,0,0,1-4-2.59c-.16-.17-.58-.36-.28-.65s.73-.92,1.46-.42a10.18,10.18,0,0,0,2.48,1.15,35.41,35.41,0,0,0,12.25,1.91,32.59,32.59,0,0,0,8.62-1.13,15.25,15.25,0,0,0,6.75-3.67c.2-.19.56-.39.38-.75s-.58-.24-.83-.2c-1,.16-2.07.36-3.09.61-2.39.58-4.74,1.32-7.15,1.74-2.11.38-4.16,1-6.33,1.16a37.86,37.86,0,0,1-6.29.35,13.05,13.05,0,0,1-6-1.88c-.26-.16-.47-.26-.11-.58.92-.8,1.8-1.65,2.72-2.46.23-.2.5-.46.88-.22a6.73,6.73,0,0,0,2.78.74,28.75,28.75,0,0,0,10.09-.32,35,35,0,0,0,8.93-3.08,37.56,37.56,0,0,0,4.5-2.64,16.79,16.79,0,0,0,2.65-2.68.7.7,0,0,0,.12-.84c-.23-.34-.45-.07-.69,0a28.12,28.12,0,0,0-5.25,2.29c-4,2-7.9,4.34-12.3,5.64a17.39,17.39,0,0,1-9.19.38c-1.3-.31-1.28-.36-.37-1.32.28-.3.5-.65.75-1a2.08,2.08,0,0,1,2-.87,23.12,23.12,0,0,0,3,.07,46.21,46.21,0,0,0,4.71-.36,30,30,0,0,0,8-2.66,23.56,23.56,0,0,0,6.49-4.62,17,17,0,0,0,3.25-4.46c.13-.27.21-.56,0-.75s-.5,0-.66.15a33.7,33.7,0,0,1-2.9,2.57,36,36,0,0,1-4.08,3.42,39,39,0,0,1-9.45,4.3,34.69,34.69,0,0,1-3.63,1,18.47,18.47,0,0,1-4.75.35,4.66,4.66,0,0,1,4.41-2.66,15.52,15.52,0,0,0,7.22-2.21,30.26,30.26,0,0,0,10.76-11,9.88,9.88,0,0,0,1.56-4.7c0-.23,0-.47-.22-.58s-.42.08-.55.25a44.44,44.44,0,0,0-2.7,3.6c-1.15,1.85-2.49,3.55-3.73,5.33a14.29,14.29,0,0,1-2,2.3c-.67.62-1.26,1.32-2,1.91a19.78,19.78,0,0,1-6,2.95,6.23,6.23,0,0,1-2.21.53,40.11,40.11,0,0,0,9-11c2.1-3.62,4.09-7.3,6.13-11a37.17,37.17,0,0,0,2.66-5.41c.1-.27.24-.56-.07-.74s-.46.19-.59.39c-1.14,1.71-2.25,3.44-3.4,5.15-.6.9-1.28,1.75-1.86,2.66-.88,1.38-1.64,2.83-2.59,4.17a22.31,22.31,0,0,0-1.58,2.38,82.05,82.05,0,0,1-4.64,7.82l-.13.19A.32.32,0,0,1,96,778h0l.2-.33.11-.21c.09-.26.17-.52.28-.78a23.37,23.37,0,0,0,1.8-9.77,20.28,20.28,0,0,0-1.57-7.29,10.61,10.61,0,0,0-2.82-4.22c-.22-.17-.4-.41-.69-.28s-.24.47-.19.73a12.86,12.86,0,0,0,1,3.33c.54,1.08.86,2.27,1.37,3.38a14.15,14.15,0,0,1,1.2,5.16,22.08,22.08,0,0,1-1,6.85,29.4,29.4,0,0,1-3.17,7.62,10.86,10.86,0,0,1-2.22,2.56,1.24,1.24,0,0,1,.16-1.06A23.18,23.18,0,0,0,91.52,772a24,24,0,0,0-2.24-7.3,18.87,18.87,0,0,0-4.62-5.91c-.13-.11-.27-.3-.5-.16a.35.35,0,0,0-.19.42,7.88,7.88,0,0,0,.88,2.29c.89,1.16,1.63,2.42,2.47,3.62a13.8,13.8,0,0,1,1.76,4.55,27.89,27.89,0,0,1,.79,6.17c.07,1.59.2,3.19.15,4.78a11.58,11.58,0,0,1-3.64,8.61.3.3,0,0,1-.31.22l.06-.29a2.1,2.1,0,0,1,.06-.24C89,781,87.67,774,82.55,767.65a16,16,0,0,0-6-4.5c-.21-.09-.44-.34-.66-.06s0,.51.19.71c1.55,1.5,3,3.08,4.43,4.72A21.14,21.14,0,0,1,86,781.05c.21,2.88-.5,5.66-1.06,8.46-.44,2.21-2.32,3-3.63,4.45a.77.77,0,0,1,.08-.75,20.52,20.52,0,0,0,1.33-8.39,25,25,0,0,0-6.47-15.64,19.5,19.5,0,0,0-6.17-5c-.18-.08-.33-.44-.61-.11s0,.45.11.66a1.88,1.88,0,0,0,.27.42A52.55,52.55,0,0,1,74,770.36a48.51,48.51,0,0,1,3.68,5.73,32,32,0,0,1,2.85,7.12,16.95,16.95,0,0,1-.34,11.08,2.33,2.33,0,0,1-1.37,1.62c-.16-.12-.1-.26-.09-.4a30.12,30.12,0,0,0,0-7.35A25.66,25.66,0,0,0,75.16,778a31.62,31.62,0,0,0-3.79-4.69,19.77,19.77,0,0,0-6.27-4.92,4.67,4.67,0,0,0-3-.4c-.2,0-.45.1-.49.38a.4.4,0,0,0,.21.41,31.87,31.87,0,0,1,3.79,3.27c4.41,4.24,8.46,8.77,11,14.46a15.84,15.84,0,0,1,1.3,9.8,1,1,0,0,1-.9,1,21,21,0,0,0-.41-5.42,27,27,0,0,0-12.78-17c-.21-.12-.44-.31-.66-.05s0,.42.09.61A7.66,7.66,0,0,0,64.28,777a63.64,63.64,0,0,1,6.49,7.53c2.28,3.4,4.36,6.87,5.17,11,.5,2.48.55,2.47-1.53,3.92-.82.57-.84.57-1-.46a.91.91,0,0,1,0-.17,28.11,28.11,0,0,0-5.06-14.47,21.26,21.26,0,0,0-7.12-6.71,20,20,0,0,0-3.52-1.44.6.6,0,0,0-.8.23.46.46,0,0,0,.18.57c2.18,1.93,4.12,4.1,6.19,6.15a39.91,39.91,0,0,1,3,3.58,40.36,40.36,0,0,1,4.79,8.14,16.19,16.19,0,0,1,1.65,5c0,.29.17.6-.19.8-1.06.64-2,1.46-3.14,2a1,1,0,0,1-.19-.73,18.82,18.82,0,0,0-2-8.4,22.69,22.69,0,0,0-5.94-8A9.36,9.36,0,0,0,57,783.12c-.26,0-.57-.21-.76.08s.09.53.25.71c1.4,1.61,2.77,3.24,4.23,4.8a37.42,37.42,0,0,1,6.28,8.5,13.82,13.82,0,0,1,1.58,5.12c0,.39.07.84-.3,1.07-.87.55-1.78,1-2.72,1.59.63-3.25.56-4.09-.49-6.17a26.73,26.73,0,0,0-8-9.2,8.67,8.67,0,0,0-3.23-1.87c-.24,0-.5-.19-.68.08s0,.46.21.64c.34.36.69.72,1,1.06,2.66,2.61,5.54,5,7.84,8A11.47,11.47,0,0,1,65,803.13c.21,1.76-.32,2.67-1.84,3.24-.32.12-.46.12-.43-.28.18-3-1.2-5.28-3-7.42a25.9,25.9,0,0,0-9.31-6.83.75.75,0,0,0,.17,1.09c.61.59,1.23,1.19,1.87,1.75a75.55,75.55,0,0,1,6.49,5.64,9.36,9.36,0,0,1,2.82,5.51c.12,1.41,0,1.55-1.46,1.92A9.82,9.82,0,0,0,58.35,803a21.72,21.72,0,0,0-4.77-4.56,10.78,10.78,0,0,0-1.51-.78c-.2-.1-.43-.18-.59.07s0,.41.21.56c.39.35.8.68,1.18,1,1.19,1.12,2.48,2.13,3.58,3.35a10.41,10.41,0,0,1,2.78,5.11c0,.22.19.52-.15.65s-.32-.18-.42-.32a10.07,10.07,0,0,0-5.11-3.53,8.82,8.82,0,0,0-3.43-.79c-.21,0-.41,0-.5.2s0,.36.22.48.41.28.63.41c1.51.86,3.16,1.43,4.71,2.18a6.91,6.91,0,0,1,2.11,1.39c.54.56.34.71-.18,1-1.55.78-3.21,1.29-4.77,2-1.81.83-3.69,1.45-5.52,2.19-2.11.86-4.35,1.37-6.51,2.08s-4.29,1.17-6.44,1.71c-.92.23-1.85.44-2.78.65-.27.06-.5.19-.4.5s.35.21.56.17c1.31-.27,2.65-.46,3.93-.83,2.5-.71,5-1.34,7.5-2.16,3.06-1,6.11-2,9.07-3.27,2-.82,3.9-1.7,5.85-2.56.39-.17.83-.38,1,.23a9.54,9.54,0,0,1,.59,3.13c-.14,1.87-.22,3.74-.33,5.61,0,.35-.18.68,0,1,.1.2.11.44.38.48s.35-.2.47-.39a4.71,4.71,0,0,0,.45-1.65c.53-3,.73-6-.58-8.87-.07-.15-.19-.3,0-.41s.3,0,.38.18l.27.61c1.15,2.35,1.81,4.91,3.13,7.2A12.54,12.54,0,0,0,67.94,822c.2.11.44.34.68.11a.57.57,0,0,0,.08-.75c-.73-1.13-1.45-2.28-2.23-3.37a28.6,28.6,0,0,1-3.7-5.89,13,13,0,0,0-1.49-2.87c-.61-.84-.6-.81.31-1.3.46-.25.7-.16.9.29s.37.75.52,1.13a16.11,16.11,0,0,0,1.49,3.24A23.82,23.82,0,0,0,75,821.32c1,.41,2,.75,3,1.1.21.07.5.2.65-.11s-.11-.44-.31-.59c-.54-.43-1.07-.89-1.63-1.28-5-3.55-9.61-7.56-12.94-12.83-.11-.18-.45-.36-.3-.53a3.78,3.78,0,0,1,1.54-.94c.38-.15.53.2.72.42A43.85,43.85,0,0,0,74.71,815a14,14,0,0,0,7.53,2.54c.42,0,1,.23,1.2-.26s-.52-.62-.87-.82c-1.92-1-3.85-2.07-5.8-3.08a35.45,35.45,0,0,1-10.46-8.06c.67-.39,1.37-.77,2-1.19.39-.25.56-.16.74.24a10.46,10.46,0,0,0,1.4,2.25,27.3,27.3,0,0,0,12.4,8.43,10.81,10.81,0,0,0,5.31.62c.27,0,.61-.05.63-.41s-.3-.35-.53-.44c-.94-.35-1.87-.68-2.8-1a46,46,0,0,1-11.7-6A20.43,20.43,0,0,1,70.06,804c-.36-.46-.38-.78.19-1.1a15.77,15.77,0,0,0,1.92-1.3c.5-.39.78-.32,1.2.17a42.16,42.16,0,0,0,9.54,8.93,24.05,24.05,0,0,0,11.17,3.93c.27,0,.61.11.72-.22s-.23-.46-.46-.59c-1-.52-1.89-1-2.85-1.54-3.45-1.77-7-3.31-10.33-5.34a26.33,26.33,0,0,1-6.8-5.77c-.41-.51-.49-.85.12-1.24a17.94,17.94,0,0,0,1.68-1.22c.38-.3.61-.35.89.14a17.82,17.82,0,0,0,3,3.74c5.86,5.62,12.69,9,21,9.07.24,0,.47.1.72,0S102.18,811.54,102.17,811.24Z"/></svg>