<svg xmlns="http://www.w3.org/2000/svg" xmlns:xlink="http://www.w3.org/1999/xlink" width="41.279" height="40.291" viewBox="0 0 41.279 40.291"><defs><style>.a{fill:url(#a);}</style><linearGradient id="a" y1="0.5" x2="1" y2="0.5" gradientUnits="objectBoundingBox"><stop offset="0" stop-color="#f2ad6c"/><stop offset="1" stop-color="#fff"/></linearGradient></defs><g transform="translate(0)"><path class="a" d="M1503.911,1272.252h.958a.32.32,0,0,0,.161.024q.619.022,1.235.073.749.062,1.49.18a19.888,19.888,0,0,1,2.634.6,20.279,20.279,0,0,1,4.613,2.057,20.554,20.554,0,0,1,7.545,7.879,19.928,19.928,0,0,1,1.861,4.748,19.51,19.51,0,0,1,.445,2.4,14.111,14.111,0,0,1,.129,1.71c0,.093.006.187.007.28a.557.557,0,0,0,.025.16v1.09a1.3,1.3,0,0,0-.031.392,14.266,14.266,0,0,1-.148,1.924c-.078.594-.185,1.184-.316,1.769a19.571,19.571,0,0,1-1.937,5.138,21.74,21.74,0,0,1-3.275,4.5,19.9,19.9,0,0,1-3.131,2.7,20.394,20.394,0,0,1-5.115,2.565,1.153,1.153,0,0,1-.32.073.136.136,0,0,0-.092.03h-.231a.284.284,0,0,0-.141-.037.8.8,0,0,1-.41-.2,1.062,1.062,0,0,1-.307-.518,1.564,1.564,0,0,1-.032-.393q0-2.642,0-5.284c0-.292,0-.583-.023-.874a6.244,6.244,0,0,0-.24-1.4,3.818,3.818,0,0,0-1.048-1.748c-.019-.017-.047-.032-.036-.073.018,0,.038-.009.059-.011.234-.031.469-.06.7-.092a15.845,15.845,0,0,0,1.765-.338,10.589,10.589,0,0,0,3.425-1.549,6.657,6.657,0,0,0,2.231-2.54,11.121,11.121,0,0,0,1.059-3.506q.08-.589.11-1.183a13.2,13.2,0,0,0,0-1.749,8.3,8.3,0,0,0-.224-1.366,7.6,7.6,0,0,0-1.755-3.267.237.237,0,0,1-.052-.288,5.879,5.879,0,0,0,.379-1.834,7.556,7.556,0,0,0-.251-2.271,11.267,11.267,0,0,0-.36-1.114.2.2,0,0,0-.164-.14,2.406,2.406,0,0,0-.294-.038,3.262,3.262,0,0,0-.851.086,7.846,7.846,0,0,0-1.176.381,13.969,13.969,0,0,0-2.164,1.054q-.486.3-.963.608a.258.258,0,0,1-.231.032c-.466-.13-.938-.237-1.414-.328-.449-.085-.9-.156-1.353-.207q-.443-.05-.887-.081c-.615-.042-1.231-.064-1.848-.045-.666.02-1.33.064-1.991.15q-.761.1-1.513.254-.549.114-1.09.264a.2.2,0,0,1-.185-.03c-.13-.092-.265-.178-.4-.263a12.416,12.416,0,0,0-1.4-.8q-.838-.391-1.7-.717a5.511,5.511,0,0,0-1.306-.338,2.2,2.2,0,0,0-.674.019.208.208,0,0,0-.176.147,10.98,10.98,0,0,0-.358,1.149,7.426,7.426,0,0,0-.217,2.406,6.322,6.322,0,0,0,.368,1.654c.07.19.081.141-.059.3a7.7,7.7,0,0,0-1.978,4.771,14.164,14.164,0,0,0,.147,3,11.269,11.269,0,0,0,.736,2.648,7.657,7.657,0,0,0,.974,1.737,7.2,7.2,0,0,0,2.134,1.845,11.394,11.394,0,0,0,3.927,1.394q.676.111,1.356.193c.024,0,.057-.005.064.041l-.054.055a3.625,3.625,0,0,0-.418.488,4.385,4.385,0,0,0-.683,1.563c-.041.177-.072.356-.1.535a.139.139,0,0,1-.092.123c-.016.006-.03.014-.045.021a5.374,5.374,0,0,1-1.228.373,7.852,7.852,0,0,1-1.48.1,2.5,2.5,0,0,1-.6-.087,3.674,3.674,0,0,1-1.5-.829,4.855,4.855,0,0,1-1-1.26,4.7,4.7,0,0,0-2.208-1.962,1.985,1.985,0,0,0-.485-.158c-.13-.023-.26-.045-.391-.06a2.2,2.2,0,0,0-.739.036.591.591,0,0,0-.212.088.227.227,0,0,0-.092.314,1.181,1.181,0,0,0,.141.242,2.138,2.138,0,0,0,.706.611,2.811,2.811,0,0,1,.464.314,4.523,4.523,0,0,1,.6.635,7.55,7.55,0,0,1,1.167,2.1,3.5,3.5,0,0,0,.691,1.154,4.083,4.083,0,0,0,1.43.985,4.372,4.372,0,0,0,1.016.279,11.819,11.819,0,0,0,1.361.147c.319.015.638.012.958,0a5.177,5.177,0,0,0,.657-.057c.223-.035.445-.074.668-.109.148-.023.155-.042.156.131q0,1.123.01,2.246c0,.44.01.881.017,1.321a1.9,1.9,0,0,1-.022.329.954.954,0,0,1-.781.792.214.214,0,0,0-.109.033h-.231a.381.381,0,0,0-.094-.028,1.31,1.31,0,0,1-.367-.088q-.6-.207-1.189-.446a19.787,19.787,0,0,1-6.255-4.044,21.526,21.526,0,0,1-4.151-5.475,19.646,19.646,0,0,1-2.245-7.707c-.015-.187-.031-.373-.04-.56-.02-.418-.035-.835-.053-1.253-.009-.21.019-.418.024-.626.011-.539.048-1.077.1-1.614.055-.553.134-1.1.234-1.649a19.212,19.212,0,0,1,.953-3.428,20.742,20.742,0,0,1,11.493-11.837,19.277,19.277,0,0,1,3.51-1.081q.768-.159,1.544-.262c.387-.051.776-.092,1.165-.12.335-.024.67-.035,1.005-.052A.3.3,0,0,0,1503.911,1272.252Z" transform="translate(-1483.735 -1272.252)"/></g></svg>