<?xml version="1.0" encoding="UTF-8" standalone="no"?>
<svg
   xmlns:dc="http://purl.org/dc/elements/1.1/"
   xmlns:cc="http://creativecommons.org/ns#"
   xmlns:rdf="http://www.w3.org/1999/02/22-rdf-syntax-ns#"
   xmlns:svg="http://www.w3.org/2000/svg"
   xmlns="http://www.w3.org/2000/svg"
   xmlns:xlink="http://www.w3.org/1999/xlink"
   xmlns:sodipodi="http://sodipodi.sourceforge.net/DTD/sodipodi-0.dtd"
   xmlns:inkscape="http://www.inkscape.org/namespaces/inkscape"
   width="483.361"
   height="300.17"
   viewBox="0 0 483.361 300.17"
   version="1.1"
   id="svg1011"
   sodipodi:docname="logo.svg"
   inkscape:version="0.92.3 (2405546, 2018-03-11)">
  <metadata
     id="metadata1015">
    <rdf:RDF>
      <cc:Work
         rdf:about="">
        <dc:format>image/svg+xml</dc:format>
        <dc:type
           rdf:resource="http://purl.org/dc/dcmitype/StillImage" />
      </cc:Work>
    </rdf:RDF>
  </metadata>
  <sodipodi:namedview
     pagecolor="#ffffff"
     bordercolor="#666666"
     borderopacity="1"
     objecttolerance="10"
     gridtolerance="10"
     guidetolerance="10"
     inkscape:pageopacity="0"
     inkscape:pageshadow="2"
     inkscape:window-width="1853"
     inkscape:window-height="1025"
     id="namedview1013"
     showgrid="false"
     inkscape:zoom="0.68944331"
     inkscape:cx="524.23087"
     inkscape:cy="-151.79285"
     inkscape:window-x="67"
     inkscape:window-y="27"
     inkscape:window-maximized="1"
     inkscape:current-layer="svg1011" />
  <defs
     id="defs959">
    <style
       id="style933">.a{fill:url(#a);}.b{fill:url(#b);}.c{fill:url(#c);}.d{fill:url(#d);}.e{fill:url(#e);}.f{fill:url(#f);}.g{fill:url(#g);}.h{fill:url(#h);}.i{fill:url(#i);}.j{fill:url(#j);}.k{fill:url(#k);}.l{fill:url(#l);}.m{fill:url(#m);}.n{fill:url(#n);}.o{fill:url(#o);}.p{fill:url(#p);}.q{fill:url(#q);}.r{fill:url(#r);}.s{fill:url(#s);}.t{fill:url(#t);}</style>
    <linearGradient
       id="a"
       x1="0.013"
       y1="0.5"
       x2="0.997"
       y2="0.5"
       gradientUnits="objectBoundingBox">
      <stop
         offset="0"
         stop-color="#ffab5f"
         id="stop935" />
      <stop
         offset="1"
         stop-color="#fff"
         id="stop937" />
    </linearGradient>
    <linearGradient
       id="b"
       x1="-0.074"
       y1="0.5"
       x2="3.672"
       y2="0.5"
       xlink:href="#a" />
    <linearGradient
       id="c"
       x1="-0.421"
       y1="0.5"
       x2="0.962"
       y2="0.5"
       xlink:href="#a" />
    <linearGradient
       id="d"
       x1="1.494"
       y1="0.5"
       x2="-0.031"
       y2="0.5"
       xlink:href="#a" />
    <linearGradient
       id="e"
       x1="1.132"
       y1="0.5"
       x2="-3"
       y2="0.5"
       xlink:href="#a" />
    <linearGradient
       id="f"
       x1="0.037"
       y1="0.5"
       x2="0.987"
       y2="0.5"
       xlink:href="#a" />
    <linearGradient
       id="g"
       x1="-0.013"
       y1="0.5"
       x2="15.031"
       y2="0.5"
       xlink:href="#a" />
    <linearGradient
       id="h"
       x1="-1.971"
       y1="0.5"
       x2="23.151"
       y2="0.5"
       xlink:href="#a" />
    <linearGradient
       id="i"
       x1="-1.944"
       y1="0.5"
       x2="13.764"
       y2="0.5"
       xlink:href="#a" />
    <linearGradient
       id="j"
       x1="-2.665"
       y1="0.5"
       x2="11.086"
       y2="0.5"
       xlink:href="#a" />
    <linearGradient
       id="k"
       x1="-4.287"
       y1="0.5"
       x2="11.421"
       y2="0.5"
       xlink:href="#a" />
    <linearGradient
       id="l"
       x1="-7.919"
       y1="0.5"
       x2="14.735"
       y2="0.5"
       xlink:href="#a" />
    <linearGradient
       id="m"
       x1="-5.822"
       y1="0.5"
       x2="8.72"
       y2="0.5"
       xlink:href="#a" />
    <linearGradient
       id="n"
       x1="-8.465"
       y1="0.5"
       x2="8.106"
       y2="0.5"
       xlink:href="#a" />
    <linearGradient
       id="o"
       x1="-15.181"
       y1="0.5"
       x2="11.034"
       y2="0.5"
       xlink:href="#a" />
    <linearGradient
       id="p"
       x1="-8.845"
       y1="0.5"
       x2="5.303"
       y2="0.5"
       xlink:href="#a" />
    <linearGradient
       id="q"
       x1="-11.114"
       y1="0.5"
       x2="4.593"
       y2="0.5"
       xlink:href="#a" />
    <linearGradient
       id="r"
       x1="-11.086"
       y1="0.5"
       x2="3.062"
       y2="0.5"
       xlink:href="#a" />
    <linearGradient
       id="s"
       x1="-14.693"
       y1="0.5"
       x2="2.273"
       y2="0.5"
       xlink:href="#a" />
    <linearGradient
       id="t"
       x1="-13.571"
       y1="0.5"
       x2="0.971"
       y2="0.5"
       xlink:href="#a" />
  </defs>
  <g
     transform="translate(-647.146 -327.125)"
     id="g1009">
    <g
       transform="translate(803.592 327.125)"
       id="g977">
      <path
         class="a"
         d="M7215.057-975.828c-.34-.663-.908-.5-1.479-.387-.4.078-.844.383-1.213-.029-.4-.436.118-.725.244-1.067.147-.4.266-.78-.091-1.112a.865.865,0,0,0-1.06-.036c-.288.143-.559.319-.837.488,0,0,0,0-.006.006-.021.017-.082.068-.177.15-.062.013-.124.026-.189.036a1.408,1.408,0,0,1-.17,0,1,1,0,0,1-.223,0c-2.553-.3-5.108-.588-7.665-.894-.229-.026-.458-.045-.693-.059-.692-.039-1.379-.127-2.063-.23-8.415,2.682-41.072,10.652-64.9-17.5a5.246,5.246,0,0,1-1.853-.477c-3.619-1.164-6.688-3.42-10.095-5.012a1.543,1.543,0,0,1-.215-.081,1.637,1.637,0,0,1-.337-.234.837.837,0,0,1-.094-.091l.007.13h0l-.039-.555a15.2,15.2,0,0,0-.3-1.574.853.853,0,0,0-.8-.686.867.867,0,0,0-.867.6c-.127.3-.208.608-.312.913-.072.2-.134.423-.4.462a.534.534,0,0,1-.572-.358c-.231-.451-.436-.919-.677-1.372a1.047,1.047,0,0,0-.961-.63,1.109,1.109,0,0,0-.994.712,1.86,1.86,0,0,0-.066,1.485c.123.339.269.667.427,1.063-.831-.191-1.561-1.1-2.321-.094a1.034,1.034,0,0,0-.124.851c.17.914.905,1.314,1.738,1.707-.311.143-.507.224-.69.328a.756.756,0,0,0-.456.7.742.742,0,0,0,.555.715,3.309,3.309,0,0,0,.781.185l.115.02c.1.016.206.029.3.039.04.045.075.088.111.136a.823.823,0,0,1,.207.234,6.988,6.988,0,0,1,1.022,2.256c1.679,8.169,2.784,16.383,2.284,24.757a44.015,44.015,0,0,1-1.834,10.756,21.712,21.712,0,0,1-4.757,8.689,4.855,4.855,0,0,1-1.907,1.093l-.187.068a.651.651,0,0,1-.208.045,1.073,1.073,0,0,1-.323.02,7.847,7.847,0,0,0-.779-.536v0a1.783,1.783,0,0,1-.226-.091.833.833,0,0,0-.912.1.8.8,0,0,0-.15.9,3.479,3.479,0,0,0,.229.517.555.555,0,0,1-.029.67.567.567,0,0,1-.66.152c-.21-.061-.42-.117-.626-.176-.524-.149-1.121-.347-1.405.31a1.3,1.3,0,0,0,.531,1.618,6.441,6.441,0,0,0,1.385.6c-.372.127-.6.2-.824.286-.4.153-.724.394-.724.862a1,1,0,0,0,.672.923,1.734,1.734,0,0,0,1.266.081c.313-.088.482,0,.542.371.146.93.464,1.079,1.292.608.074-.059.15-.121.222-.179a.671.671,0,0,0,.082-.01,1.83,1.83,0,0,1,.2,0,1.151,1.151,0,0,1,.55.071,9.9,9.9,0,0,0,4.471.468c4.829-.536,9.649-1.111,14.47-1.68-11.236,3.286-28.531,21.432-38.838,30.618a22.2,22.2,0,0,1-3.762,2.692s-11.837,6.186-15.292,1.206c-.125-.215-.245-.426-.365-.634a8.686,8.686,0,0,1-.7-1.079,15.717,15.717,0,0,1-1.739-5.965,31.516,31.516,0,0,1,.06-3.778c.918-13.016-14.945-12.739-20.788-4.391-4.382,6.273-7.778,16.37-1.868,27.11a29.105,29.105,0,0,0,6.523,7.984,34.278,34.278,0,0,0,5.75,4.193,41,41,0,0,0,13.4,4.22s10.385.826,16.38-.611a38.686,38.686,0,0,0,28.351-23.931c10.5-26.09,26.536-32.133,31.291-33.388h0c.013.01.029.016.038.023a2.756,2.756,0,0,1,1.22-.117,19.877,19.877,0,0,1,8.055,2.97,21.416,21.416,0,0,1,5.554,5.881,14.523,14.523,0,0,0,5.8,5.338,2.69,2.69,0,0,1,.72.426c.066.052.135.108.2.166s.1.1.15.15l0,0c.021.094.04.188.063.283.28.7.863.679,1.266.042.082-.127.055-.328.329-.377a2.4,2.4,0,0,0,1.173,1.112,1.09,1.09,0,0,0,1.266-.247c.312-.364.175-.748-.021-1.125-.1-.192-.321-.351-.232-.653a2.487,2.487,0,0,0,1.983.179,1.094,1.094,0,0,0,.708-.91.888.888,0,0,0-.67-.894,7.67,7.67,0,0,1-.891-.387.525.525,0,0,1-.02-.992c.181-.117.389-.188.569-.309a.8.8,0,0,0,.461-.787.841.841,0,0,0-.707-.686,2.45,2.45,0,0,0-.635-.1,1.074,1.074,0,0,1-.408-.046l-.156-.01a.672.672,0,0,1-.109-.078.636.636,0,0,1-.1-.1l-.06-.078-.05-.068a1.579,1.579,0,0,1-.22-.384,4.1,4.1,0,0,1-.393-1.71,12.268,12.268,0,0,1,.921-4.307,39.853,39.853,0,0,1,5.433-9.358,97.121,97.121,0,0,1,17.8-18.48c2.5-1.976,5.1-3.8,8.365-4.36a15.805,15.805,0,0,0,3.3-1.044,2.176,2.176,0,0,1,.889-.211,1.1,1.1,0,0,1,.142,0c.049,0,.1.01.146.016l0,0c.055.029.109.059.166.091a1.477,1.477,0,0,1,.212.111c.635.393,1.107.013,1.052-.732-.015-.163-.205-.329-.022-.5,1.345.419,2.217.3,2.466-.4.385-1.079-.685-1.124-1.26-1.544a11.085,11.085,0,0,0,1.168-.474A1.291,1.291,0,0,0,7215.057-975.828Z"
         transform="translate(-7043.798 1092.719)"
         id="path961" />
      <g
         transform="translate(110.575 57.646)"
         id="g967">
        <path
           class="b"
           d="M7204.227-1025.923c.911.073,1.753-1.021,1.868-2.46s-.54-2.646-1.451-2.719-1.749,1.025-1.864,2.453S7203.308-1026,7204.227-1025.923Z"
           transform="translate(-7202.766 1042.863)"
           id="path963" />
        <path
           class="c"
           d="M7208.283-1037.6a5.579,5.579,0,0,0,2.175,3.225,3,3,0,0,0,1.393.476c2.482.2,4.745-2.791,5.062-6.68s-1.444-7.2-3.925-7.394-4.749,2.787-5.062,6.68a10.124,10.124,0,0,0,.355,3.693Z"
           transform="translate(-7204.324 1047.983)"
           id="path965" />
      </g>
      <g
         transform="translate(162.015 63.19)"
         id="g973">
        <path
           class="d"
           d="M7279.158-1040.015c-1.731.192-2.778,3.49-2.342,7.367s2.191,6.86,3.926,6.665a1.865,1.865,0,0,0,1.246-.795,7.5,7.5,0,0,0,1.167-3.935s0,0,0-.007,0,0,0-.008a14.949,14.949,0,0,0-.069-2.622C7282.649-1037.228,7280.893-1040.207,7279.158-1040.015Z"
           transform="translate(-7276.717 1040.024)"
           id="path969" />
        <path
           class="e"
           d="M7288.208-1018.015c.643-.073,1.028-1.283.865-2.714s-.807-2.522-1.447-2.449-1.026,1.283-.866,2.707S7287.571-1017.946,7288.208-1018.015Z"
           transform="translate(-7279.763 1034.915)"
           id="path971" />
      </g>
      <path
         class="f"
         d="M7134.163-1111.244c.7,6.7,1.725,13.344,3.02,19.956a113.361,113.361,0,0,0,6.278,22.267,45.022,45.022,0,0,0,10.86,16.214,2.875,2.875,0,0,1,.987,1.843,23.2,23.2,0,0,0,4.954,11.462c.605.767,1.24,1.508,1.949,2.373,27.569,32.572,66.952,16.79,66.952,16.79a18.151,18.151,0,0,0,5.949-4.87,38.581,38.581,0,0,0,6.676-13.126c.147-.474.225-.975.35-1.462a4.931,4.931,0,0,1-1.745.536c-4.973.553-9.872-6.709-10.945-16.221s2.086-17.671,7.061-18.229a5,5,0,0,1,1.57.082c-.138-.26-.281-.524-.423-.784a7.449,7.449,0,0,1-1.169-2.445,85.751,85.751,0,0,0-7.7-23.964,129.6,129.6,0,0,0-11.242-18.837,80.6,80.6,0,0,0-9.078-11.068h-.482c-.01.374-.037.751-.021,1.125.217,5.653.248,11.312.657,16.959a95.379,95.379,0,0,0,1.655,12.752c.068.3.283.667-.012.9-.254.2-.565-.055-.832-.156a41.7,41.7,0,0,0-14.038-2.461,49.73,49.73,0,0,0-17.639,3.267c-2.12.78-2.091.722-3.735-.93a96.185,96.185,0,0,0-11.815-10.061c-1.267-.91-2.537-1.807-3.839-2.659a85.549,85.549,0,0,0-11.585-6.5,77.778,77.778,0,0,0-12.3-4.473c-1.014-.266-1.046-.266-1.017.817C7133.563-1118.513,7133.783-1114.869,7134.163-1111.244Zm94.2,24.685c-1.428-3.689-9.708-9.937-9.708-9.937l-3.143-16.75C7225.221-1096.21,7224.365-1098.2,7228.363-1086.559Zm-16.942,49.794a2.413,2.413,0,0,1,2.079-2.071,2.412,2.412,0,0,1,2.71,2.7,2.417,2.417,0,0,1-2.083,2.067A2.409,2.409,0,0,1,7211.42-1036.765Zm-39.065-26.766c.764-9.544,7.166-16.816,14.287-16.25s12.281,8.768,11.512,18.312-7.174,16.812-14.292,16.243S7171.581-1053.991,7172.355-1063.531Zm-4.675-29.756s-12.431,14.127-12.209,28.917c-8.879-13.685-12.432-27.592-14.429-46.355C7141.042-1110.725,7151.254-1110.282,7167.68-1093.287Z"
         transform="translate(-7071.094 1130.729)"
         id="path975" />
    </g>
    <g
       transform="translate(647.147 578.866)"
       id="g1007">
      <path
         class="g"
         d="M6850.318-686.61h-4.806c-11.149,0-17.308-5.676-17.308-17.459v-7.156a82.711,82.711,0,0,1,.739-11.475c.8-5.429,4.063-7.033,8.19-7.033H6860.3v2.776c0,4.072-2.156,6.786-7.084,6.786h-12.937c-.245,2.1-.43,5.182-.43,7.219h16.447v4.257c0,3.084-2.28,4.811-6.407,4.811h-10.04v1.543c0,4.565,1.479,6.169,7.393,6.169h3.08a38.6,38.6,0,0,0,9.917-1.172v4.5C6860.235-688.954,6857.833-686.61,6850.318-686.61Z"
         transform="translate(-6828.205 734.607)"
         id="path979" />
      <path
         class="h"
         d="M6892.281-687.9c-6.222,0-11.58-3.7-11.58-11.722V-734.05h4.127c5.111,0,7.575,2.344,7.575,8.082v24.615c0,3.023,1.665,3.948,4.93,3.948h2.588v4.072C6899.921-689.2,6895.977-687.9,6892.281-687.9Z"
         transform="translate(-6843.25 735.839)"
         id="path981" />
      <path
         class="i"
         d="M6925.827-683.182c-6.528,0-14.474-3.085-14.474-10.8,0-7.527,5.42-11.352,17.739-11.352h1.663v-1.419c0-2.776-2.155-3.455-6.775-3.455-6.345,0-8.686,1.481-11.088,3.7h-.309v-4.134c0-4.195,4.374-8.39,14.046-8.39,9.362,0,15.46,4.75,15.46,14.744v5.244C6942.09-686.7,6938.147-683.182,6925.827-683.182ZM6931-698.05h-2.341c-4.434,0-6.222,1.11-6.222,3.393,0,2.159,1.356,3.269,4.622,3.269,2.094,0,3.94-1.049,3.94-4.133Z"
         transform="translate(-6852.036 731.55)"
         id="path983" />
      <path
         class="j"
         d="M6980.378-683.22h-3.143c-3.881,0-5.729-1.851-7.7-4.936-4.56-7.095-9.3-19.557-10.781-29.489h6.1a6.671,6.671,0,0,1,6.652,4.874,76.928,76.928,0,0,0,5.607,16.349c2.155-4.011,5.174-13.634,6.4-21.223h5.606c2.956,0,4.743,1.789,4.743,4.627a23.029,23.029,0,0,1-1.6,7.28C6990.049-699.26,6984.442-687.724,6980.378-683.22Z"
         transform="translate(-6865.62 731.156)"
         id="path985" />
      <path
         class="k"
         d="M7026.766-683.182c-6.528,0-14.475-3.085-14.475-10.8,0-7.527,5.421-11.352,17.74-11.352h1.663v-1.419c0-2.776-2.156-3.455-6.776-3.455-6.344,0-8.684,1.481-11.086,3.7h-.311v-4.134c0-4.195,4.374-8.39,14.045-8.39,9.365,0,15.461,4.75,15.461,14.744v5.244C7043.027-686.7,7039.086-683.182,7026.766-683.182Zm5.174-14.868h-2.34c-4.435,0-6.221,1.11-6.221,3.393,0,2.159,1.354,3.269,4.619,3.269,2.095,0,3.941-1.049,3.941-4.133Z"
         transform="translate(-6880.963 731.55)"
         id="path987" />
      <path
         class="l"
         d="M7068.25-726.932a10.176,10.176,0,0,1,6.1-2.283h1.233v8.267h9.916v4.133c0,2.9-3.08,5.121-5.729,5.121h-4.187v12.276a3.385,3.385,0,0,0,3.694,3.64,13.17,13.17,0,0,0,5.3-.74h.307v4.565c0,2.838-2.586,5.43-8.684,5.43-5.79,0-12.012-2.777-12.012-12.092v-21.038A9.235,9.235,0,0,1,7068.25-726.932Z"
         transform="translate(-6895.837 734.459)"
         id="path989" />
      <path
         class="m"
         d="M7115.18-696.9h-5.051c.678,3.393,3.449,5,8.314,5,5.422,0,8.81-.864,10.719-2.159h.432v2.714c0,4.318-3.512,8.205-13.183,8.205-11.7,0-17.862-7.9-17.862-17.274,0-10.3,6.959-18.693,17.432-18.693,8.869,0,15.769,5,15.769,13.634C7131.749-698.693,7126.637-696.9,7115.18-696.9Zm.8-13.449c-4.127,0-5.852,2.653-6.161,5.922h4.561c5.543,0,6.528-.863,6.528-2.344C7120.908-708.5,7119.368-710.353,7115.98-710.353Z"
         transform="translate(-6905.685 731.575)"
         id="path991" />
      <path
         class="n"
         d="M7196.3-720.109h-11.336v7.958h14.97v3.64a5.025,5.025,0,0,1-5.052,5.306h-9.671v16.04h-5.667c-3.7,0-6.22-1.851-6.22-5.8v-29.057c0-5.244,2.895-7.711,8.561-7.711h20.574v4.133C7202.459-723.132,7200.426-720.109,7196.3-720.109Z"
         transform="translate(-6927.116 734.607)"
         id="path993" />
      <path
         class="o"
         d="M7225.677-724.956a5.992,5.992,0,0,1-6.159-5.8,5.992,5.992,0,0,1,6.159-5.8,5.94,5.94,0,0,1,6.1,5.8A5.94,5.94,0,0,1,7225.677-724.956Zm5.543,36.337c-6.221,0-11.087-3.085-11.087-11.105v-22.271h2.895c6.653,0,8.81,1.913,8.81,8.082v12.462c0,3.023,1.416,3.948,4.68,3.948h1.417v3.455C7237.934-689.976,7234.854-688.618,7231.22-688.618Z"
         transform="translate(-6940.355 736.554)"
         id="path995" />
      <path
         class="p"
         d="M7279.884-684.108c-5.174,0-6.773-1.728-6.773-6.91v-11.906c0-4.566-1.541-6.6-5.483-6.6-3.388,0-5.237,2.283-5.237,6.416v19h-3.942c-4.988,0-7.76-1.974-7.76-6.91v-11.906c0-9.748,6.467-16.1,17.246-16.1,12.012,0,16.88,6.354,16.88,16.41v18.508Z"
         transform="translate(-6949.289 731.55)"
         id="path997" />
      <path
         class="q"
         d="M7320.941-683.182c-6.529,0-14.477-3.085-14.477-10.8,0-7.527,5.422-11.352,17.74-11.352h1.663v-1.419c0-2.776-2.154-3.455-6.774-3.455-6.346,0-8.686,1.481-11.088,3.7h-.31v-4.134c0-4.195,4.376-8.39,14.047-8.39,9.362,0,15.46,4.75,15.46,14.744v5.244C7337.2-686.7,7333.261-683.182,7320.941-683.182Zm5.175-14.868h-2.342c-4.435,0-6.222,1.11-6.222,3.393,0,2.159,1.355,3.269,4.62,3.269,2.095,0,3.943-1.049,3.943-4.133Z"
         transform="translate(-6965.274 731.55)"
         id="path999" />
      <path
         class="r"
         d="M7387.126-684.108c-5.175,0-6.776-1.728-6.776-6.91v-11.906c0-4.566-1.541-6.6-5.482-6.6-3.389,0-5.236,2.283-5.236,6.416v19h-3.942c-4.989,0-7.76-1.974-7.76-6.91v-11.906c0-9.748,6.467-16.1,17.246-16.1,12.012,0,16.879,6.354,16.879,16.41v18.508Z"
         transform="translate(-6980.024 731.55)"
         id="path1001" />
      <path
         class="s"
         d="M7441.856-706.91c-1.046-1.11-4.25-2.344-7.515-2.344-5.729,0-8.933,2.9-8.933,7.65,0,5.8,3.2,8.513,8.379,8.513a15.747,15.747,0,0,0,8.191-1.912h.124v3.516c0,4.5-4.62,8.144-10.779,8.144-10.289,0-17.617-6.971-17.617-17.582,0-9.687,6.713-18.015,18.664-18.015,5.359,0,9.793,3.517,9.793,7.9v4.134Z"
         transform="translate(-6996.011 731.525)"
         id="path1003" />
      <path
         class="t"
         d="M7475.842-696.9h-5.051c.677,3.393,3.449,5,8.315,5,5.421,0,8.809-.864,10.719-2.159h.431v2.714c0,4.318-3.511,8.205-13.182,8.205-11.7,0-17.863-7.9-17.863-17.274,0-10.3,6.96-18.693,17.432-18.693,8.87,0,15.771,5,15.771,13.634C7492.413-698.693,7487.3-696.9,7475.842-696.9Zm.8-13.449c-4.127,0-5.852,2.653-6.159,5.922h4.558c5.544,0,6.529-.863,6.529-2.344C7481.57-708.5,7480.03-710.353,7476.643-710.353Z"
         transform="translate(-7009.052 731.575)"
         id="path1005" />
    </g>
  </g>
</svg>
