<svg xmlns="http://www.w3.org/2000/svg" xmlns:xlink="http://www.w3.org/1999/xlink" viewBox="0 0 478.38 351.22"><defs><style>.cls-1{fill:url(#linear-gradient);}.cls-2{fill:url(#linear-gradient-2);}.cls-3{fill:url(#linear-gradient-3);}.cls-4{fill:url(#linear-gradient-4);}.cls-5{fill:url(#linear-gradient-5);}.cls-6{fill:url(#linear-gradient-8);}.cls-7{fill:url(#linear-gradient-11);}.cls-8{fill:url(#linear-gradient-13);}.cls-9{opacity:0.3;}.cls-10{fill:url(#linear-gradient-14);}.cls-11{fill:url(#linear-gradient-15);}.cls-12{fill:url(#linear-gradient-16);}.cls-13{fill:url(#linear-gradient-17);}.cls-14{fill:#ff1d25;}.cls-15{fill:url(#linear-gradient-18);}.cls-16{fill:url(#linear-gradient-19);}.cls-17{fill:url(#linear-gradient-20);}</style><linearGradient id="linear-gradient" x1="2.94" y1="325.95" x2="474.47" y2="325.95" gradientUnits="userSpaceOnUse"><stop offset="0" stop-color="#f2ad6c"/><stop offset="1" stop-color="#fff"/></linearGradient><linearGradient id="linear-gradient-2" x1="2.94" y1="324.48" x2="474.47" y2="324.48" xlink:href="#linear-gradient"/><linearGradient id="linear-gradient-3" x1="2.94" y1="323.46" x2="474.47" y2="323.46" xlink:href="#linear-gradient"/><linearGradient id="linear-gradient-4" x1="2.94" y1="324.76" x2="474.47" y2="324.76" xlink:href="#linear-gradient"/><linearGradient id="linear-gradient-5" x1="2.94" y1="330.82" x2="474.47" y2="330.82" xlink:href="#linear-gradient"/><linearGradient id="linear-gradient-8" x1="2.94" y1="330.29" x2="474.47" y2="330.29" xlink:href="#linear-gradient"/><linearGradient id="linear-gradient-11" x1="2.94" y1="330.75" x2="474.47" y2="330.75" xlink:href="#linear-gradient"/><linearGradient id="linear-gradient-13" x1="4467.36" y1="-5319.48" x2="4467.7" y2="-5319.48" gradientTransform="matrix(83.96, 0, 0, -88.1, -374765.07, -468562.65)" xlink:href="#linear-gradient"/><linearGradient id="linear-gradient-14" x1="341.45" y1="96.06" x2="345.2" y2="96.06" xlink:href="#linear-gradient"/><linearGradient id="linear-gradient-15" x1="267.96" y1="89.13" x2="273.05" y2="89.13" xlink:href="#linear-gradient"/><linearGradient id="linear-gradient-16" x1="332.37" y1="86.8" x2="341.77" y2="86.8" xlink:href="#linear-gradient"/><linearGradient id="linear-gradient-17" x1="207.72" y1="72.44" x2="343.39" y2="72.44" xlink:href="#linear-gradient"/><linearGradient id="linear-gradient-18" x1="272.58" y1="79.79" x2="285.09" y2="79.79" xlink:href="#linear-gradient"/><linearGradient id="linear-gradient-19" x1="133.18" y1="186.27" x2="339.51" y2="186.27" xlink:href="#linear-gradient"/><linearGradient id="linear-gradient-20" x1="212.61" y1="186.42" x2="212.67" y2="186.42" xlink:href="#linear-gradient"/></defs><g id="Layer_2" data-name="Layer 2"><g id="Layer_1-2" data-name="Layer 1"><path class="cls-1" d="M25.13,351.22C11.48,351.22,0,341.49,0,326.51c0-14.35,10.36-25.83,27.37-25.83,9.52,0,14.35,4.9,14.35,10.29v4.83h-.35c-2.52-2.31-6.93-4.27-14.35-4.27-7.21,0-13.72,4.76-13.72,13.86,0,10.43,5.74,15,13,15,3.85,0,4.13-1.26,4.13-3V332a26.78,26.78,0,0,0-.91-6.65h6.79c4.27,0,6.51,2.8,6.51,6.44v6.44C42.77,346.18,37.8,351.22,25.13,351.22Z"/><path class="cls-2" d="M63.42,350.66c-7.07,0-13.16-4.2-13.16-13.3V298.3H55c5.81,0,8.61,2.66,8.61,9.17V335.4c0,3.43,1.89,4.48,5.6,4.48H72.1v4.62C72.1,349.19,67.62,350.66,63.42,350.66Z"/><path class="cls-3" d="M83.3,309.43a6.59,6.59,0,1,1,6.93-6.58A6.81,6.81,0,0,1,83.3,309.43Zm6.3,41.23c-7.07,0-12.6-3.5-12.6-12.6V312.79h3.29c7.56,0,10,2.17,10,9.17V336.1c0,3.43,1.61,4.48,5.32,4.48h1.61v3.92C97.23,349.12,93.73,350.66,89.6,350.66Z"/><path class="cls-4" d="M120.82,351.22a20.06,20.06,0,0,1-20.09-19.74c0-13,8-21,18.2-21,4.9,0,8.54,2.17,9.94,5.18V298.3h4.76c5.32,0,8.19,2.8,8.19,9.31v22.33C141.82,343.87,136.15,351.22,120.82,351.22Zm-.28-30.45c-3.57,0-6.58,3.71-6.58,9.59,0,7.56,3.5,10.64,8.33,10.64,4.13,0,6.3-3.22,6.3-9.24C128.59,323.15,125.3,320.77,120.54,320.77Z"/><path class="cls-5" d="M167.16,335.61h-5.74c.77,3.85,3.92,5.67,9.45,5.67,6.16,0,10-1,12.18-2.45h.49v3.08c0,4.9-4,9.31-15,9.31-13.3,0-20.3-9-20.3-19.6,0-11.69,7.91-21.21,19.81-21.21,10.08,0,17.92,5.67,17.92,15.47C186,333.58,180.18,335.61,167.16,335.61Zm.91-15.26c-4.69,0-6.65,3-7,6.72h5.18c6.3,0,7.42-1,7.42-2.66C173.67,322.45,171.92,320.35,168.07,320.35Z"/><path class="cls-1" d="M235,312.72H222.11v9h17v4.13a5.71,5.71,0,0,1-5.74,6h-11v18.2H216c-4.2,0-7.07-2.1-7.07-6.58v-33c0-5.95,3.29-8.75,9.73-8.75H242v4.69C242,309.29,239.68,312.72,235,312.72Z"/><path class="cls-3" d="M253.33,309.43a6.59,6.59,0,1,1,6.93-6.58A6.81,6.81,0,0,1,253.33,309.43Zm6.3,41.23c-7.07,0-12.6-3.5-12.6-12.6V312.79h3.29c7.56,0,10,2.17,10,9.17V336.1c0,3.43,1.61,4.48,5.32,4.48h1.61v3.92C267.26,349.12,263.76,350.66,259.63,350.66Z"/><path class="cls-6" d="M304.78,350.1c-5.88,0-7.7-2-7.7-7.84V328.75c0-5.18-1.75-7.49-6.23-7.49-3.85,0-6,2.59-6,7.28V350.1h-4.48c-5.67,0-8.82-2.24-8.82-7.84V328.75c0-11.06,7.35-18.27,19.6-18.27,13.65,0,19.18,7.21,19.18,18.62v21Z"/><path class="cls-5" d="M333.27,351.15c-7.42,0-16.46-3.5-16.46-12.25C316.81,330.36,323,326,337,326h1.89v-1.61c0-3.15-2.45-3.92-7.7-3.92-7.21,0-9.87,1.68-12.61,4.2h-.34V320c0-4.76,5-9.52,16-9.52,10.64,0,17.57,5.39,17.57,16.73v6C351.75,347.16,347.27,351.15,333.27,351.15Zm5.88-16.87h-2.66c-5,0-7.07,1.26-7.07,3.85s1.54,3.71,5.25,3.71c2.38,0,4.48-1.19,4.48-4.69Z"/><path class="cls-6" d="M391.72,350.1c-5.88,0-7.7-2-7.7-7.84V328.75c0-5.18-1.75-7.49-6.23-7.49-3.85,0-6,2.59-6,7.28V350.1h-4.48c-5.67,0-8.83-2.24-8.83-7.84V328.75c0-11.06,7.36-18.27,19.61-18.27,13.65,0,19.18,7.21,19.18,18.62v21Z"/><path class="cls-7" d="M435.75,324.2c-1.19-1.26-4.83-2.66-8.54-2.66-6.51,0-10.15,3.29-10.15,8.68,0,6.58,3.64,9.66,9.52,9.66a17.92,17.92,0,0,0,9.31-2.17H436v4c0,5.11-5.25,9.24-12.25,9.24-11.7,0-20-7.91-20-19.95,0-11,7.63-20.44,21.22-20.44,6.09,0,11.13,4,11.13,9v4.69Z"/><path class="cls-5" d="M459.55,335.61h-5.74c.77,3.85,3.92,5.67,9.45,5.67,6.16,0,10-1,12.18-2.45h.49v3.08c0,4.9-4,9.31-15,9.31-13.31,0-20.31-9-20.31-19.6,0-11.69,7.91-21.21,19.82-21.21,10.08,0,17.92,5.67,17.92,15.47C478.38,333.58,472.57,335.61,459.55,335.61Zm.91-15.26c-4.69,0-6.65,3-7,6.72h5.18c6.3,0,7.42-1,7.42-2.66C466.06,322.45,464.31,320.35,460.46,320.35Z"/><g id="Group_9" data-name="Group 9"><path id="Path_12" data-name="Path 12" class="cls-8" d="M311.54,21.65l-.09-.12.11.21S311.54,21.69,311.54,21.65Zm17.68,78.6h0a0,0,0,0,0,0,0,.44.44,0,0,0,0-.1A.09.09,0,0,1,329.22,100.25Zm.5,1.76a0,0,0,0,0,0,0,1.9,1.9,0,0,0,.09.29A2.76,2.76,0,0,0,329.72,102Zm11.06,17.55h0a2.75,2.75,0,0,0,.15-.36C340.89,119.32,340.84,119.44,340.78,119.56Zm-17.91,18.62a38,38,0,0,0,4.07-2.31Q325,137.11,322.87,138.18Z"/></g><g class="cls-9"><path d="M329.22,100.25h0a0,0,0,0,0,0,0,.44.44,0,0,0,0-.1A.09.09,0,0,1,329.22,100.25Z"/></g><g class="cls-9"><path d="M268.25,91.39v0Zm0,0v0Zm0,0v0ZM286.47,73.3c0-.13-.09-.25-.13-.36s0,0,0,0,.1.24.14.36l.06.14S286.49,73.35,286.47,73.3ZM268.25,91.39v0Zm0,0v0Zm0,0v0Z"/></g><path d="M340.94,119.2a2.75,2.75,0,0,1-.15.36h0C340.84,119.44,340.89,119.32,340.94,119.2Z"/><path d="M329.72,102a0,0,0,0,0,0,0,1.9,1.9,0,0,0,.09.29A2.76,2.76,0,0,0,329.72,102Zm-.5-1.76h0a0,0,0,0,0,0,0,.44.44,0,0,0,0-.1A.09.09,0,0,1,329.22,100.25Z"/><path d="M239.31,185.71l0,0h0Z"/><path d="M329.25,100.19a.44.44,0,0,1,0,.1,0,0,0,0,1,0,0h0A.09.09,0,0,0,329.25,100.19Z"/><path d="M311.56,21.74l-.11-.21.09.12S311.56,21.71,311.56,21.74Z"/><path d="M268.25,91.39v0Z"/><path d="M329.72,102a0,0,0,0,0,0,0,1.9,1.9,0,0,0,.09.29A2.76,2.76,0,0,0,329.72,102Z"/><path d="M341.86,93.34s0,0,0,0a.86.86,0,0,1,.06-.23A1.72,1.72,0,0,0,341.86,93.34Z"/><path class="cls-10" d="M345.2,96.05a7.73,7.73,0,0,1-.07,1.08,2.9,2.9,0,0,1-.06.41,3.44,3.44,0,0,1-.7,2,1.49,1.49,0,0,1-1,.43,1.48,1.48,0,0,1-1.14-.43,2.89,2.89,0,0,1-.61-1.5,10.78,10.78,0,0,1-.21-2c0-.34,0-.68.05-1,0-.15,0-.28.06-.42a5.09,5.09,0,0,1,.5-1.76,1.49,1.49,0,0,1,1.93-.54,1.38,1.38,0,0,1,.62.6,4.77,4.77,0,0,1,.44,1.48A9,9,0,0,1,345.2,96.05Z"/><path class="cls-11" d="M273.05,89.12a9.26,9.26,0,0,1-.12,1.49,5.69,5.69,0,0,1-.38,1.43,2,2,0,0,1-.44.6,1.49,1.49,0,0,1-.27.23,2.1,2.1,0,0,1-.67.33,2.29,2.29,0,0,1-2-.34,2.63,2.63,0,0,1-.92-1.49,9,9,0,0,1-.28-2.25c0-1.29.09-2.91,1.23-3.74a2.22,2.22,0,0,1,1.32-.43,2.33,2.33,0,0,1,1.34.44,2.42,2.42,0,0,1,.91,1.46,7.94,7.94,0,0,1,.2,1c0,.23.06.46.07.69S273.05,88.92,273.05,89.12Z"/><path class="cls-12" d="M341.77,86.82a14.5,14.5,0,0,1-2.3,7.78,3.46,3.46,0,0,1-2.24,1.77,2.52,2.52,0,0,1-2-.71,4.63,4.63,0,0,1-1.16-1.73c-.22-.57-.5-1.1-.73-1.67a16.56,16.56,0,0,1-.58-1.81,15.58,15.58,0,0,1-.44-3.79,14.8,14.8,0,0,1,2-7.29,5.24,5.24,0,0,1,1.39-1.67,2.29,2.29,0,0,1,2.07-.38,3.23,3.23,0,0,1,1.4,1.27,14.54,14.54,0,0,1,2.57,8C341.76,86.64,341.77,86.73,341.77,86.82Z"/><path class="cls-13" d="M343.3,112.42a14,14,0,0,1-5.64-1.18,14.18,14.18,0,0,1-3.55-2.26,13.86,13.86,0,0,1-2.37-2.64l-.26-.38a23.27,23.27,0,0,1-2.72-7.78,37.1,37.1,0,0,1,.93-17.79c.05-.18.1-.35.16-.52a.19.19,0,0,0,0-.08,14.41,14.41,0,0,1,3.71-6,14.18,14.18,0,0,1,6.09-3.44l.31-.08.37-.09-.15-.34q-1-2.07-2.07-4c-.06-.12-.13-.22-.2-.34a8.94,8.94,0,0,1-1-1.74c-.2-.68-.31-1.39-.54-2.06a.2.2,0,0,0,0-.07,16.25,16.25,0,0,1-.37-1.68c-.27-1.76-.58-3.52-.94-5.25A97.59,97.59,0,0,0,306,2.93c-1-.9-1.95-1.79-3-2.65L302.73,0c0,.14-.05.28-.07.43-.35,2.3-.67,4.6-.88,6.91s-.33,4.69-.38,7c0,.59,0,1.17,0,1.76a98.1,98.1,0,0,0,2.41,21.6,60.49,60.49,0,0,0-40.74,1.38c-.29-.31-.57-.62-.87-.92a2.26,2.26,0,0,0-.26-.29,93.28,93.28,0,0,0-14.78-12.86A97.6,97.6,0,0,0,214,9.9h0c-1.22-.3-2.45-.57-3.69-.83L209.91,9c0,.12,0,.24-.07.36-.63,3-1.12,6-1.47,9A97.58,97.58,0,0,0,224,83.56a101,101,0,0,0,12.46,15.21,60.08,60.08,0,0,0,6.72,16.44,61,61,0,0,0,30,25.51,59.56,59.56,0,0,0,21,4.16,61.49,61.49,0,0,0,21.46-3.53A47.53,47.53,0,0,0,332,131.92a40.66,40.66,0,0,0,10.28-16c.29-.81.58-1.63.82-2.46.06-.2.13-.41.19-.62l.11-.37ZM244.15,52.69a0,0,0,0,0,0,0A38,38,0,0,0,241,57.56,37.13,37.13,0,0,0,238.25,64a.17.17,0,0,1,0,0q-.53,1.44-1,2.94c-.39,1.29-.74,2.6-1.05,3.92a60.69,60.69,0,0,0-1.32,8.69l-.63-1h0a4.43,4.43,0,0,1-.29-.46q-2-3.25-3.78-6.69L230,71A98.77,98.77,0,0,1,225,59.49c0-.14-.1-.27-.14-.41a96.61,96.61,0,0,1-5.41-32c0-.47,0-.94,0-1.41a97.67,97.67,0,0,1,28,16.63l0,0s0,0,0,0c.79.67,1.57,1.35,2.34,2.06a1.57,1.57,0,0,1,.27.25c.32.28.65.57,1,.87l.1.09-.52.4c-.74.6-1.47,1.22-2.16,1.87l-.32.29-.43.42A37.89,37.89,0,0,0,244.15,52.69ZM288,91.91a35.58,35.58,0,0,1-1.23,5,0,0,0,0,1,0,0c-.06.2-.12.4-.2.6a14,14,0,0,1-5,6.63l-.34.24a13.84,13.84,0,0,1-4.84,2.07l-.54.1a13.93,13.93,0,0,1-2.44.22,13.77,13.77,0,0,1-3.87-.56,2.36,2.36,0,0,1-.38-.1,14,14,0,0,1-6.27-4.1,18.79,18.79,0,0,1-3.89-8.85c-1.24-6-1.26-12.83.8-18.67a15.72,15.72,0,0,1,5.06-7.34l.31-.24a14.16,14.16,0,0,1,8.24-2.67c6.78,0,11.79,4.73,13.73,11a27.09,27.09,0,0,1,.68,2.65,37.31,37.31,0,0,1,.8,7.67A36.73,36.73,0,0,1,288,91.91Zm23.89,25.27v0a3.21,3.21,0,0,1-1.9,2.31,3.07,3.07,0,0,1-1.25.25,3.2,3.2,0,1,1,3.15-2.58Zm14-66.74a60,60,0,0,0-6.41-5q-1.85-1.26-3.77-2.38c0-.27-.05-.53-.07-.8-.26-3-.66-6-1.19-9l-.09-.43c-.35-2-.78-3.9-1.26-5.82,0-.14-.07-.29-.11-.43q-.62-2.41-1.35-4.78a0,0,0,0,1,0,0l-.11-.21.09.12q2.11,2.82,4,5.79l.32.51c1.52,2.38,2.93,4.84,4.23,7.36.1.19.2.37.29.56a96.92,96.92,0,0,1,6.24,15.33C326.38,50.94,326.1,50.68,325.82,50.44Z"/><path class="cls-14" d="M341.86,93.34s0,0,0,0a.86.86,0,0,1,.06-.23A1.72,1.72,0,0,0,341.86,93.34Zm0,0s0,0,0,0a.86.86,0,0,1,.06-.23A1.72,1.72,0,0,0,341.86,93.34Zm0,0s0,0,0,0a.86.86,0,0,1,.06-.23A1.72,1.72,0,0,0,341.86,93.34Zm0,0s0,0,0,0a.86.86,0,0,1,.06-.23A1.72,1.72,0,0,0,341.86,93.34Zm0,0s0,0,0,0a.86.86,0,0,1,.06-.23A1.72,1.72,0,0,0,341.86,93.34Zm0,0s0,0,0,0a.86.86,0,0,1,.06-.23A1.72,1.72,0,0,0,341.86,93.34Zm0,0s0,0,0,0a.86.86,0,0,1,.06-.23A1.72,1.72,0,0,0,341.86,93.34Zm0,0s0,0,0,0a.86.86,0,0,1,.06-.23A1.72,1.72,0,0,0,341.86,93.34Zm0,0s0,0,0,0a.86.86,0,0,1,.06-.23A1.72,1.72,0,0,0,341.86,93.34Zm0,0s0,0,0,0a.86.86,0,0,1,.06-.23A1.72,1.72,0,0,0,341.86,93.34Zm0,0s0,0,0,0a.86.86,0,0,1,.06-.23A1.72,1.72,0,0,0,341.86,93.34Zm0,0s0,0,0,0a.86.86,0,0,1,.06-.23A1.72,1.72,0,0,0,341.86,93.34Zm0,0s0,0,0,0a.86.86,0,0,1,.06-.23A1.72,1.72,0,0,0,341.86,93.34Zm0,0s0,0,0,0a.86.86,0,0,1,.06-.23A1.72,1.72,0,0,0,341.86,93.34Zm0,0s0,0,0,0a.86.86,0,0,1,.06-.23A1.72,1.72,0,0,0,341.86,93.34Zm0,0s0,0,0,0a.86.86,0,0,1,.06-.23A1.72,1.72,0,0,0,341.86,93.34Zm0,0s0,0,0,0a.86.86,0,0,1,.06-.23A1.72,1.72,0,0,0,341.86,93.34Zm0,0s0,0,0,0a.86.86,0,0,1,.06-.23A1.72,1.72,0,0,0,341.86,93.34Zm0,0s0,0,0,0a.86.86,0,0,1,.06-.23A1.72,1.72,0,0,0,341.86,93.34Zm0,0s0,0,0,0a.86.86,0,0,1,.06-.23A1.72,1.72,0,0,0,341.86,93.34Zm0,0s0,0,0,0a.86.86,0,0,1,.06-.23A1.72,1.72,0,0,0,341.86,93.34Zm-19,44.84a38,38,0,0,0,4.07-2.31Q325,137.11,322.87,138.18Zm17.91-18.62h0a2.75,2.75,0,0,0,.15-.36C340.89,119.32,340.84,119.44,340.78,119.56Zm1.08-26.22s0,0,0,0a.86.86,0,0,1,.06-.23A1.72,1.72,0,0,0,341.86,93.34Zm0,0s0,0,0,0a.86.86,0,0,1,.06-.23A1.72,1.72,0,0,0,341.86,93.34Zm0,0s0,0,0,0a.86.86,0,0,1,.06-.23A1.72,1.72,0,0,0,341.86,93.34Zm0,0s0,0,0,0a.86.86,0,0,1,.06-.23A1.72,1.72,0,0,0,341.86,93.34Zm0,0s0,0,0,0a.86.86,0,0,1,.06-.23A1.72,1.72,0,0,0,341.86,93.34Zm0,0s0,0,0,0a.86.86,0,0,1,.06-.23A1.72,1.72,0,0,0,341.86,93.34Zm0,0s0,0,0,0a.86.86,0,0,1,.06-.23A1.72,1.72,0,0,0,341.86,93.34Zm0,0s0,0,0,0a.86.86,0,0,1,.06-.23A1.72,1.72,0,0,0,341.86,93.34Zm0,0s0,0,0,0a.86.86,0,0,1,.06-.23A1.72,1.72,0,0,0,341.86,93.34Zm0,0s0,0,0,0a.86.86,0,0,1,.06-.23A1.72,1.72,0,0,0,341.86,93.34Zm0,0s0,0,0,0a.86.86,0,0,1,.06-.23A1.72,1.72,0,0,0,341.86,93.34Zm-55.52-20.4s0,0,0,0,.1.24.14.36a0,0,0,0,1,0,0C286.43,73.17,286.38,73.05,286.34,72.94Zm55.52,20.4s0,0,0,0a.86.86,0,0,1,.06-.23A1.72,1.72,0,0,0,341.86,93.34Zm0,0s0,0,0,0a.86.86,0,0,1,.06-.23A1.72,1.72,0,0,0,341.86,93.34Zm0,0s0,0,0,0a.86.86,0,0,1,.06-.23A1.72,1.72,0,0,0,341.86,93.34Zm0,0s0,0,0,0a.86.86,0,0,1,.06-.23A1.72,1.72,0,0,0,341.86,93.34Zm0,0s0,0,0,0a.86.86,0,0,1,.06-.23A1.72,1.72,0,0,0,341.86,93.34Zm0,0s0,0,0,0a.86.86,0,0,1,.06-.23A1.72,1.72,0,0,0,341.86,93.34Zm0,0s0,0,0,0a.86.86,0,0,1,.06-.23A1.72,1.72,0,0,0,341.86,93.34Zm0,0s0,0,0,0a.86.86,0,0,1,.06-.23A1.72,1.72,0,0,0,341.86,93.34Zm0,0s0,0,0,0a.86.86,0,0,1,.06-.23A1.72,1.72,0,0,0,341.86,93.34Zm0,0s0,0,0,0a.86.86,0,0,1,.06-.23A1.72,1.72,0,0,0,341.86,93.34Z"/><path class="cls-15" d="M285.09,79.79A14,14,0,0,1,284,85.27a10.5,10.5,0,0,1-3,4.49,3.62,3.62,0,0,1-1,.53,3.49,3.49,0,0,1-2.3,0,6.68,6.68,0,0,1-3.23-3.41,14.86,14.86,0,0,1-1.76-5.31c0-.13,0-.26-.05-.41,0-.44-.06-.9-.06-1.37a10.38,10.38,0,0,1,.05-1.12c0-.13,0-.25,0-.37a14.31,14.31,0,0,1,2-6.07c.88-1.51,2.44-3.17,4.33-3.14,2.06,0,3.44,2.08,4.29,3.71A15.47,15.47,0,0,1,285.06,79v0Q285.09,79.43,285.09,79.79Z"/><path class="cls-16" d="M339.49,152.27a1.47,1.47,0,0,1-.42.83,1.5,1.5,0,0,1-1.72.27,1.17,1.17,0,0,1-.3-.19l-.14-.14a.81.81,0,0,0-.12-.14.65.65,0,0,0-.52-.17.5.5,0,0,0-.24.09.64.64,0,0,0-.27.38.07.07,0,0,0,0,.05v0a.54.54,0,0,0,0,.28.61.61,0,0,1,.07.14,1,1,0,0,1,0,.51.94.94,0,0,1-.26.56,1,1,0,0,1-1.66-.44s0-.05,0-.07a.62.62,0,0,0-.46-.41,1,1,0,0,0-.48.06l-.55.14c-.72.19-1.43.39-2.13.61-.18,0-.34.1-.5.15a58.28,58.28,0,0,0-9.74,4.05,60.35,60.35,0,0,0-26.2,26.78l-.7,1.45c-1.26,2.74-2.44,5.5-2.44,8.56a13.83,13.83,0,0,0,.75,4.52c0,.13.09.26.14.39s.05.11.07.17a1.83,1.83,0,0,0,.14.32.57.57,0,0,0,.24.19.66.66,0,0,0,.2.06h.05a.57.57,0,0,0,.38-.13l.12-.11L293,201a1.12,1.12,0,0,1,.32-.12,1.52,1.52,0,0,1,.38-.05,1.48,1.48,0,0,1,.82,2.72,1.14,1.14,0,0,1-.56.22.62.62,0,0,0-.44.25.58.58,0,0,0,.11.87.56.56,0,0,0,.17.09.63.63,0,0,0,.19,0l.19,0h.19a1.61,1.61,0,0,1,.37.07,1.56,1.56,0,0,1,.51.27,1.36,1.36,0,0,1,.37.45,1.22,1.22,0,0,1,.17.55,1.54,1.54,0,0,1,0,.43,1.63,1.63,0,0,1-.18.46.75.75,0,0,1-.09.15,1.49,1.49,0,0,1-1.2.6,1.36,1.36,0,0,1-.29,0,1.17,1.17,0,0,1-.2-.06,1.62,1.62,0,0,1-.35-.17,1.81,1.81,0,0,1-.21-.18.6.6,0,0,0-.55-.16.72.72,0,0,0-.28.13,1.19,1.19,0,0,0-.15.18.84.84,0,0,0,0,.12.64.64,0,0,0,.11.57l.12.1.11.15a1.46,1.46,0,0,1,.17.33,1.5,1.5,0,0,1-1.39,2,1.63,1.63,0,0,1-.59-.12,1.5,1.5,0,0,1-.48-.34A1.43,1.43,0,0,1,290,210a1.49,1.49,0,0,1-.11-.54.41.41,0,0,1,0-.12.68.68,0,0,0,0-.14.61.61,0,0,0-.25-.49.62.62,0,0,0-.49-.12.71.71,0,0,0-.18.08.57.57,0,0,0-.22.19.51.51,0,0,0-.07.17,2,2,0,0,1-.09.41.92.92,0,0,1-.16.27,1.57,1.57,0,0,1-.24.21,1,1,0,0,1-.3.12,1.06,1.06,0,0,1-.5,0,1,1,0,0,1-.51-.36,1,1,0,0,1-.2-.58c0-.13,0-.24,0-.37a.52.52,0,0,0-.1-.27.62.62,0,0,0-.39-.26l-.7-.19a9.86,9.86,0,0,1-1-.33,14.48,14.48,0,0,1-7.21-6c-.14-.22-.27-.45-.39-.68s-.25-.47-.36-.71-.12-.25-.17-.37-.1-.25-.14-.37,0-.1-.07-.15a1,1,0,0,0-.05-.12,14.07,14.07,0,0,0-12.89-8.46c-3,0-5.68,1.1-8.35,2.3A60.13,60.13,0,0,0,236.53,206a60.78,60.78,0,0,0-11.6,16.8,69.29,69.29,0,0,0-3,8.22,39.38,39.38,0,0,1-11.64,18.56,37.39,37.39,0,0,1-4.47,3.34l-.67.42-.67.4a39.37,39.37,0,0,1-5.84,2.75c-.61.23-1.22.44-1.85.63l-.78.25A63.89,63.89,0,0,1,180.8,260a53.57,53.57,0,0,1-10.36-.44,58,58,0,0,1-13.79-3.45,38.38,38.38,0,0,1-7.16-3.81c-.34-.23-.68-.47-1-.72a41.61,41.61,0,0,1-4.46-3.82,38.4,38.4,0,0,1-4.33-5.2l-.35-.51a37.19,37.19,0,0,1-5.75-14.57c-.05-.25-.09-.51-.13-.76-.07-.44-.13-.89-.17-1.34a21.24,21.24,0,0,1-.11-2.26,23.9,23.9,0,0,1,.32-3.88,23.27,23.27,0,0,1,8.79-14.54l.33-.25c.57-.43,1.17-.82,1.78-1.2l.4-.24a23.2,23.2,0,0,1,5.25-2.22c.49-.14,1-.27,1.46-.37a13,13,0,0,1,1.5-.24c.48,0,1-.07,1.43-.07a12.91,12.91,0,0,1,1.86.12l.34,0a16.38,16.38,0,0,1,1.61.34l.79.24.76.29.56.23a14.57,14.57,0,0,1,6.55,5.92l.21.38q.27.49.51,1c.15.35.29.71.42,1.07a11.1,11.1,0,0,1,.34,1.12c.1.38.19.76.26,1.15,0,.17.06.34.08.52s0,.32.05.48a14.91,14.91,0,0,1,.08,1.5c0,.24,0,.49,0,.72-.2,6.38,4.67,12.21,10.76,13.67a14.35,14.35,0,0,0,13.44-4,33.51,33.51,0,0,0,3.3-4.54A100.42,100.42,0,0,1,211.9,202.9a98,98,0,0,1,9.52-7.46A109.67,109.67,0,0,1,233,188.61l1.92-.93,1-.47.71-.32.29-.14.35-.15,1-.45c.33-.13.66-.27,1-.43a14.28,14.28,0,0,0-2.37-.65,14.07,14.07,0,0,0-9.13,1.44,15.52,15.52,0,0,1-7.51,2.1,14.28,14.28,0,0,1-4.11-.6l-.54-.17a1.15,1.15,0,0,0-.48-.1.57.57,0,0,0-.34.18,1.28,1.28,0,0,0-.15.25,1.57,1.57,0,0,1-.19.26,1.15,1.15,0,0,1-.19.14,1.07,1.07,0,0,1-.82.09,1,1,0,0,1-.39-.24,1,1,0,0,1-.29-.57,1,1,0,0,1,.09-.55.88.88,0,0,0,.07-.14.6.6,0,0,0,0-.52.84.84,0,0,0-.21-.21h0a.61.61,0,0,0-.73,0c-.08.05-.11.14-.16.21a.86.86,0,0,1-.13.14,1.6,1.6,0,0,1-.3.23,1.49,1.49,0,0,1-1.8-2.34,1.6,1.6,0,0,1,.51-.33,1.39,1.39,0,0,1,.45-.09.6.6,0,0,0,.43-.18.62.62,0,0,0,.15-.22.64.64,0,0,0,0-.41.55.55,0,0,0-.22-.3.53.53,0,0,0-.3-.12c-.13,0-.25,0-.37,0a1.54,1.54,0,0,1-.37-.09,1.63,1.63,0,0,1-.47-.32,1.46,1.46,0,0,1-.41-.82,1.51,1.51,0,0,1,.14-.91,1.4,1.4,0,0,1,.69-.67,1.33,1.33,0,0,1,.37-.12,1.52,1.52,0,0,1,1,.18,1,1,0,0,1,.22.14c.11.09.18.21.29.3a.58.58,0,0,0,.36.12.63.63,0,0,0,.62-.54.61.61,0,0,0-.12-.45l-.06-.07a1.25,1.25,0,0,1-.3-.54,1.46,1.46,0,0,1,.36-1.49,1.5,1.5,0,0,1,2.11,0,.88.88,0,0,1,.12.15,1.31,1.31,0,0,1,.21.36,1.77,1.77,0,0,0,.18.45.6.6,0,0,0,.38.24.7.7,0,0,0,.45-.1l.64-.4c.3-.2.59-.42.87-.65a12.73,12.73,0,0,0,1.66-1.54,23.61,23.61,0,0,0,3.83-6.93,61.55,61.55,0,0,0,4-16.76l.09-1.13c.08-1.4.15-2.81.15-4.21v-.07a59.79,59.79,0,0,0-3.9-21.3c-.46-1.23-1-2.43-1.51-3.62-.09-.2-.19-.39-.28-.6a.86.86,0,0,0-.23-.33.63.63,0,0,0-.37-.12.78.78,0,0,0-.21,0,1.45,1.45,0,0,1-.22.09.86.86,0,0,1-.28,0H220a1,1,0,0,1-.45-.2,1,1,0,0,1-.38-.78.93.93,0,0,1,.22-.61.83.83,0,0,1,.26-.23l.17-.08a1,1,0,0,1,.16-.06.58.58,0,0,0,.26-.23.63.63,0,0,0,0-.65.6.6,0,0,0-.34-.27.41.41,0,0,0-.16,0,2.44,2.44,0,0,1-.27,0,1.07,1.07,0,0,1-.25,0,1.56,1.56,0,0,1-.47-.17l-.13-.1a1.45,1.45,0,0,1-.49-.66,1.5,1.5,0,0,1,.21-1.41,1.17,1.17,0,0,1,.26-.28,1.51,1.51,0,0,1,.92-.32,1.54,1.54,0,0,1,1,.34c.08.08.17.18.26.26a.63.63,0,0,0,.35.11.58.58,0,0,0,.26-.06l.08,0a.63.63,0,0,0,.13-.11.6.6,0,0,0,.15-.4.56.56,0,0,0-.05-.23.53.53,0,0,0-.13-.2l-.13-.17a.78.78,0,0,1-.11-.2,1.34,1.34,0,0,1-.07-.18,1.5,1.5,0,0,1-.07-.44,1.43,1.43,0,0,1,.26-.83,1.5,1.5,0,0,1,1.23-.65,1.51,1.51,0,0,1,1.49,1.48,2.46,2.46,0,0,1,0,.28.51.51,0,0,0,0,.13.62.62,0,0,0,1.08.4.6.6,0,0,0,.15-.4v-.08a1.67,1.67,0,0,1,.11-.59,1.64,1.64,0,0,1,.58-.67,1.56,1.56,0,0,1,.37-.17,1.42,1.42,0,0,1,.42-.06,1.39,1.39,0,0,1,.61.13,1.33,1.33,0,0,1,.5.38,1.5,1.5,0,0,1,.36.71,1.67,1.67,0,0,1,0,.67c-.06.21-.21.4-.2.61a.77.77,0,0,0,.08.27c.15.28.42.31.7.39l.41.12c.34.1.68.22,1,.34s1,.33,1.48.52a38.2,38.2,0,0,1,6.46,3.23c.45.28.88.57,1.31.87q1.11.75,2.16,1.59c.89.72,1.76,1.47,2.59,2.27,2.25,2.16,4.12,4.68,6.32,6.9a60.59,60.59,0,0,0,7.06,6.13l1.53,1.09a2.71,2.71,0,0,0,.35.24,59.61,59.61,0,0,0,17.33,8.14,54.21,54.21,0,0,0,11.84,2.13q2.32.18,4.65.18A59.93,59.93,0,0,0,311.24,147l1.25-.41c1.15-.36,2.33-.66,3.53-.91,1-.2,2-.36,3-.49l.77-.08a35.31,35.31,0,0,1,3.87-.2,36.89,36.89,0,0,1,7.92.85l.74.16a.64.64,0,0,0,.58-.16.67.67,0,0,0,.18-.44,1.29,1.29,0,0,1,.17-.6,1.31,1.31,0,0,1,.26-.37,1.5,1.5,0,0,1,2.11,0,1.44,1.44,0,0,1,.41.8.91.91,0,0,1,0,.23c0,.1,0,.2,0,.3a.8.8,0,0,1-.09.26c-.06.14-.15.28-.22.42a.64.64,0,0,0-.06.18.57.57,0,0,0,.07.36.45.45,0,0,0,.11.17.6.6,0,0,0,.69.12l.15-.09.11-.13.14-.16a1.33,1.33,0,0,1,.33-.24,1.47,1.47,0,0,1,1.77.24,1.49,1.49,0,0,1,.34,1.57,1.25,1.25,0,0,1-.34.54,1.45,1.45,0,0,1-.51.33l-.25.08h-.13l-.19,0a.51.51,0,0,0-.37.17.57.57,0,0,0-.18.4.61.61,0,0,0,.18.47.64.64,0,0,0,.22.14.37.37,0,0,0,.14,0h.23l.17,0a1.19,1.19,0,0,1,.32.1,1.37,1.37,0,0,1,.45.3A1.5,1.5,0,0,1,339.49,152.27Z"/><path class="cls-17" d="M212.67,186.45l0,0,0,0h0Z"/><path class="cls-17" d="M212.67,186.45l0,0,0,0h0Z"/><path class="cls-17" d="M212.67,186.45l0,0,0,0h0Z"/><path class="cls-17" d="M212.67,186.45l0,0,0,0h0Z"/><path class="cls-17" d="M212.67,186.45l0,0,0,0h0Z"/><path class="cls-17" d="M212.67,186.45l0,0,0,0h0Z"/></g></g></svg>