<svg xmlns="http://www.w3.org/2000/svg" xmlns:xlink="http://www.w3.org/1999/xlink" width="46.641" height="40.291" viewBox="0 0 46.641 40.291"><defs><style>.a{fill:url(#a);}.b{fill:url(#b);}</style><linearGradient id="a" y1="0.5" x2="1" y2="0.5" gradientUnits="objectBoundingBox"><stop offset="0" stop-color="#f2ad6c"/><stop offset="1" stop-color="#fff"/></linearGradient><linearGradient id="b" x1="1.004" y1="0.5" x2="-0.001" y2="0.5" xlink:href="#a"/></defs><path class="a" d="M1030.219,1296.209q-5.164-1.741-10.327-3.485a3.08,3.08,0,0,1-1.551-1.08,1.33,1.33,0,0,1,.175-1.9,4.24,4.24,0,0,1,1.424-.82L1061.3,1272.7a6.236,6.236,0,0,1,1.592-.427c1.332-.146,1.971.529,1.723,1.845-.306,1.624-.644,3.242-.965,4.862-2.054,10.351-4.156,20.693-6.125,31.061a2.815,2.815,0,0,1-4.717,1.76c-3.049-2.47-6.211-4.8-9.327-7.185a1.787,1.787,0,0,0-.67-.413c-.057-.212-.25-.3-.4-.416q-2.981-2.333-5.964-4.665a.956.956,0,0,1,.4-.59q2.842-2.569,5.688-5.133,3.708-3.333,7.423-6.658,2.385-2.138,4.772-4.273c.541-.485,1.084-.969,1.608-1.472.24-.231.487-.531.259-.871-.24-.357-.609-.176-.9-.044a8.582,8.582,0,0,0-1.031.591q-3.879,2.464-7.753,4.935Q1038.562,1290.909,1030.219,1296.209Z" transform="translate(-1018.022 -1272.252)"/><path class="b" d="M1094.516,1336.607q8.342-5.3,16.684-10.6,3.878-2.466,7.753-4.935a8.557,8.557,0,0,1,1.031-.591c.29-.132.659-.314.9.044.228.34-.019.64-.259.871-.524.5-1.067.987-1.608,1.472q-2.384,2.139-4.772,4.273-3.713,3.328-7.423,6.658-2.849,2.561-5.688,5.133a.956.956,0,0,0-.4.59.9.9,0,0,0-.1.239c-.322,2.858-.621,5.719-.969,8.574a8.591,8.591,0,0,1-.4,2.457,3.452,3.452,0,0,1-.942-1.776Q1096.409,1342.814,1094.516,1336.607Z" transform="translate(-1082.319 -1312.65)"/><path class="a" d="M1124.335,1452.035a8.6,8.6,0,0,0,.4-2.457c.348-2.855.647-5.716.969-8.574a.893.893,0,0,1,.1-.239l5.964,4.665c.153.12.345.2.4.416a10.468,10.468,0,0,1-1.687,1.647c-1.516,1.431-3.072,2.821-4.612,4.227C1125.421,1452.13,1124.943,1452.4,1124.335,1452.035Z" transform="translate(-1107.384 -1413.896)"/></svg>