<svg xmlns="http://www.w3.org/2000/svg" xmlns:xlink="http://www.w3.org/1999/xlink" width="49.268" height="40.291" viewBox="0 0 49.268 40.291"><defs><style>.a{fill:url(#a);}</style><linearGradient id="a" y1="0.5" x2="1" y2="0.5" gradientUnits="objectBoundingBox"><stop offset="0" stop-color="#f2ad6c"/><stop offset="1" stop-color="#fff"/></linearGradient></defs><g transform="translate(0)"><path class="a" d="M575.412,1303.84a12.549,12.549,0,0,1-3.6-.939,10.015,10.015,0,0,1-5.408-5.679c-.21-.533-.169-.587.414-.487a9.9,9.9,0,0,0,3.084-.052.744.744,0,0,0,.544-.206,11.351,11.351,0,0,1-2.812-1.161,10,10,0,0,1-4.953-8.3c-.034-.6-.009-.6.537-.342a9.1,9.1,0,0,0,3.775.954c-.471-.445-.9-.834-1.308-1.236a9.826,9.826,0,0,1-2.964-7.032,10.051,10.051,0,0,1,1.164-4.83c.214-.423.376-.271.6,0a28.468,28.468,0,0,0,9.146,7.195,28.047,28.047,0,0,0,10.8,2.955c.449.029.577-.049.5-.544a9.837,9.837,0,0,1,2.8-8.835,10.109,10.109,0,0,1,14.058-.383,1.389,1.389,0,0,0,1.456.387,22.473,22.473,0,0,0,5.022-1.972c.137-.074.3-.264.448-.119s-.031.314-.089.462a9.938,9.938,0,0,1-3.46,4.489c-.131.095-.306.146-.4.388a21.071,21.071,0,0,0,5.389-1.475,8.426,8.426,0,0,1-1.2,1.723,20.819,20.819,0,0,1-3.282,3.155,1.149,1.149,0,0,0-.487,1.051,28.093,28.093,0,0,1-1.226,8.834,29.9,29.9,0,0,1-6.517,11.59,27.09,27.09,0,0,1-16.807,8.808,28.806,28.806,0,0,1-19.423-3.936c-.118-.071-.291-.1-.328-.366A19.988,19.988,0,0,0,575.412,1303.84Z" transform="translate(-560.888 -1272.252)"/></g></svg>